<svg width="34" height="34" viewBox="0 0 34 34" fill="none" xmlns="http://www.w3.org/2000/svg">
<g clip-path="url(#clip0_4176_3)">
<rect width="34" height="34" fill="white"/>
<path d="M14.7085 4.78448C12.9593 6.53705 12.0492 8.39788 12.0052 10.5328C11.924 12.7928 12.7902 15.6754 14.4886 19.1095C16.6269 23.3285 16.928 24.8578 16.9686 25.7679C17.0092 27.5611 16.4036 29.1174 15.0942 30.4268C14.448 31.0899 13.7578 31.6109 13.0135 32C13.0676 32 13.1093 31.9865 13.1386 31.9594C15.7573 31.9594 18.102 30.9106 20.2809 28.7351C22.0605 26.9419 22.93 25.1217 22.9402 23.1932C22.9402 21.0955 21.8507 17.8306 19.8106 13.527C18.5012 10.7425 17.7975 8.64486 17.6723 7.21371C17.493 5.55927 18.1392 3.95895 19.408 2.6902C19.6685 2.44322 19.8918 2.21992 20.1929 2C18.0986 2.26052 16.3224 3.17063 14.7085 4.78448Z" fill="url(#paint0_linear_4176_3)"/>
</g>
<defs>
<linearGradient id="paint0_linear_4176_3" x1="11.0511" y1="8.29976" x2="22.2229" y2="25.8085" gradientUnits="userSpaceOnUse">
<stop stop-color="#3A3590"/>
<stop offset="0.98" stop-color="#1D1752"/>
</linearGradient>
<clipPath id="clip0_4176_3">
<rect width="34" height="34" rx="17" fill="white"/>
</clipPath>
</defs>
</svg>
