solid STL generated by MeshLab
  facet normal -6.848226e-03 -7.901992e-01  6.128119e-01
    outer loop
      vertex  -1.490106e+01  1.299843e+03  8.077705e+02
      vertex  -2.499938e+03  1.299843e+03  7.800000e+02
      vertex  -4.338763e+01  1.299163e+03  8.065760e+02
    endloop
  endfacet
  facet normal -1.081781e-02  0.000000e+00  9.999415e-01
    outer loop
      vertex  -2.499938e+03  1.299843e+03  7.800000e+02
      vertex  -2.499938e+03  1.299163e+03  7.800000e+02
      vertex  -4.338763e+01  1.299163e+03  8.065760e+02
    endloop
  endfacet
  facet normal -5.288519e-03 -8.723558e-01  4.888430e-01
    outer loop
      vertex  -4.338763e+01  1.299163e+03  8.065760e+02
      vertex  -2.499938e+03  1.299163e+03  7.800000e+02
      vertex  -7.514753e+01  1.297771e+03  8.037467e+02
    endloop
  endfacet
  facet normal -9.792831e-03  0.000000e+00  9.999521e-01
    outer loop
      vertex  -2.499938e+03  1.299163e+03  7.800000e+02
      vertex  -2.499938e+03  1.297771e+03  7.800000e+02
      vertex  -7.514753e+01  1.297771e+03  8.037467e+02
    endloop
  endfacet
  facet normal -6.004551e-03 -7.899604e-01  6.131285e-01
    outer loop
      vertex  -7.514753e+01  1.297771e+03  8.037467e+02
      vertex  -2.499938e+03  1.297771e+03  7.800000e+02
      vertex  -1.075244e+02  1.295418e+03  8.003984e+02
    endloop
  endfacet
  facet normal -8.525990e-03  0.000000e+00  9.999636e-01
    outer loop
      vertex  -2.499938e+03  1.297771e+03  7.800000e+02
      vertex  -2.499938e+03  1.295418e+03  7.800000e+02
      vertex  -1.075244e+02  1.295418e+03  8.003984e+02
    endloop
  endfacet
  facet normal -7.686716e-03 -4.326481e-01  9.015301e-01
    outer loop
      vertex  -1.075244e+02  1.295418e+03  8.003984e+02
      vertex  -2.499938e+03  1.295418e+03  7.800000e+02
      vertex  -1.368580e+02  1.292667e+03  7.988281e+02
    endloop
  endfacet
  facet normal -7.967368e-03 -7.070792e-07  9.999682e-01
    outer loop
      vertex  -2.499938e+03  1.295418e+03  7.800000e+02
      vertex  -2.499938e+03  1.292667e+03  7.800000e+02
      vertex  -1.368580e+02  1.292667e+03  7.988281e+02
    endloop
  endfacet
  facet normal -7.010859e-03 -4.750724e-01  8.799188e-01
    outer loop
      vertex  -1.368580e+02  1.292667e+03  7.988281e+02
      vertex  -2.499938e+03  1.292667e+03  7.800000e+02
      vertex  -1.560318e+02  1.290483e+03  7.974961e+02
    endloop
  endfacet
  facet normal -7.464294e-03  8.343256e-07  9.999722e-01
    outer loop
      vertex  -2.499938e+03  1.292667e+03  7.800000e+02
      vertex  -2.499938e+03  1.290483e+03  7.800000e+02
      vertex  -1.560318e+02  1.290483e+03  7.974961e+02
    endloop
  endfacet
  facet normal -5.954796e-03 -6.029608e-01  7.977486e-01
    outer loop
      vertex  -1.560318e+02  1.290483e+03  7.974961e+02
      vertex  -2.499938e+03  1.290483e+03  7.800000e+02
      vertex  -1.807386e+02  1.287300e+03  7.949062e+02
    endloop
  endfacet
  facet normal -6.427192e-03  4.930529e-07  9.999793e-01
    outer loop
      vertex  -2.499938e+03  1.290483e+03  7.800000e+02
      vertex  -2.499938e+03  1.287300e+03  7.800000e+02
      vertex  -1.807386e+02  1.287300e+03  7.949062e+02
    endloop
  endfacet
  facet normal -5.539348e-03 -5.071439e-01  8.618436e-01
    outer loop
      vertex  -1.807386e+02  1.287300e+03  7.949062e+02
      vertex  -2.499938e+03  1.287300e+03  7.800000e+02
      vertex  -2.071009e+02  1.283200e+03  7.923242e+02
    endloop
  endfacet
  facet normal -5.065449e-03 -3.016315e-07  9.999872e-01
    outer loop
      vertex  -2.499938e+03  1.287300e+03  7.800000e+02
      vertex  -2.499938e+03  1.283200e+03  7.800000e+02
      vertex  -2.769167e+02  1.270021e+03  7.912607e+02
    endloop
  endfacet
  facet normal -5.592651e-03 -1.608551e-01  9.869622e-01
    outer loop
      vertex  -2.071009e+02  1.283200e+03  7.923242e+02
      vertex  -2.499938e+03  1.287300e+03  7.800000e+02
      vertex  -2.269678e+02  1.279716e+03  7.916438e+02
    endloop
  endfacet
  facet normal -5.065447e-03  0.000000e+00  9.999872e-01
    outer loop
      vertex  -2.499938e+03  1.283200e+03  7.800000e+02
      vertex  -2.499938e+03  1.279716e+03  7.800000e+02
      vertex  -2.769167e+02  1.270021e+03  7.912607e+02
    endloop
  endfacet
  facet normal -5.306703e-03 -5.772031e-02  9.983187e-01
    outer loop
      vertex  -2.269678e+02  1.279716e+03  7.916438e+02
      vertex  -2.499938e+03  1.287300e+03  7.800000e+02
      vertex  -2.588025e+02  1.273788e+03  7.911318e+02
    endloop
  endfacet
  facet normal -5.065447e-03  0.000000e+00  9.999872e-01
    outer loop
      vertex  -2.499938e+03  1.279716e+03  7.800000e+02
      vertex  -2.499938e+03  1.273788e+03  7.800000e+02
      vertex  -2.769167e+02  1.270021e+03  7.912607e+02
    endloop
  endfacet
  facet normal -4.619168e-03  5.638115e-02  9.983987e-01
    outer loop
      vertex  -2.588025e+02  1.273788e+03  7.911318e+02
      vertex  -2.499938e+03  1.287300e+03  7.800000e+02
      vertex  -2.769167e+02  1.270021e+03  7.912607e+02
    endloop
  endfacet
  facet normal -5.065447e-03  0.000000e+00  9.999872e-01
    outer loop
      vertex  -2.499938e+03  1.273788e+03  7.800000e+02
      vertex  -2.499938e+03  1.270021e+03  7.800000e+02
      vertex  -2.769167e+02  1.270021e+03  7.912607e+02
    endloop
  endfacet
  facet normal -4.892581e-03  2.590145e-01  9.658610e-01
    outer loop
      vertex  -2.769167e+02  1.270021e+03  7.912607e+02
      vertex  -2.499938e+03  1.270021e+03  7.800000e+02
      vertex  -3.080680e+02  1.262826e+03  7.930324e+02
    endloop
  endfacet
  facet normal -5.945690e-03  0.000000e+00  9.999823e-01
    outer loop
      vertex  -2.499938e+03  1.270021e+03  7.800000e+02
      vertex  -2.499938e+03  1.262826e+03  7.800000e+02
      vertex  -3.080680e+02  1.262826e+03  7.930324e+02
    endloop
  endfacet
  facet normal -5.441007e-03  4.031863e-01  9.151018e-01
    outer loop
      vertex  -3.080680e+02  1.262826e+03  7.930324e+02
      vertex  -2.499938e+03  1.262826e+03  7.800000e+02
      vertex  -3.281718e+02  1.257823e+03  7.951171e+02
    endloop
  endfacet
  facet normal -6.960582e-03  3.396731e-07  9.999758e-01
    outer loop
      vertex  -2.499938e+03  1.262826e+03  7.800000e+02
      vertex  -2.499938e+03  1.257823e+03  7.800000e+02
      vertex  -3.281718e+02  1.257823e+03  7.951171e+02
    endloop
  endfacet
  facet normal -6.484092e-03  3.636274e-01  9.315219e-01
    outer loop
      vertex  -3.281718e+02  1.257823e+03  7.951171e+02
      vertex  -2.499938e+03  1.257823e+03  7.800000e+02
      vertex  -3.488475e+02  1.252236e+03  7.971543e+02
    endloop
  endfacet
  facet normal -7.974443e-03  0.000000e+00  9.999682e-01
    outer loop
      vertex  -2.499938e+03  1.257823e+03  7.800000e+02
      vertex  -2.499938e+03  1.252236e+03  7.800000e+02
      vertex  -3.488475e+02  1.252236e+03  7.971543e+02
    endloop
  endfacet
  facet normal -7.780931e-03  2.189613e-01  9.757025e-01
    outer loop
      vertex  -3.488475e+02  1.252236e+03  7.971543e+02
      vertex  -2.499938e+03  1.252236e+03  7.800000e+02
      vertex  -3.684756e+02  1.246540e+03  7.982761e+02
    endloop
  endfacet
  facet normal -8.574137e-03 -3.674761e-07  9.999632e-01
    outer loop
      vertex  -2.499938e+03  1.252236e+03  7.800000e+02
      vertex  -2.499938e+03  1.246540e+03  7.800000e+02
      vertex  -3.684756e+02  1.246540e+03  7.982761e+02
    endloop
  endfacet
  facet normal -8.449519e-03  1.698736e-01  9.854296e-01
    outer loop
      vertex  -3.684756e+02  1.246540e+03  7.982761e+02
      vertex  -2.499938e+03  1.246540e+03  7.800000e+02
      vertex  -3.940339e+02  1.238718e+03  7.994053e+02
    endloop
  endfacet
  facet normal -9.214336e-03  0.000000e+00  9.999576e-01
    outer loop
      vertex  -2.499938e+03  1.246540e+03  7.800000e+02
      vertex  -2.499938e+03  1.238718e+03  7.800000e+02
      vertex  -3.940339e+02  1.238718e+03  7.994053e+02
    endloop
  endfacet
  facet normal -9.178409e-03  8.822069e-02  9.960586e-01
    outer loop
      vertex  -3.940339e+02  1.238718e+03  7.994053e+02
      vertex  -2.499938e+03  1.238718e+03  7.800000e+02
      vertex  -4.197496e+02  1.230057e+03  7.999355e+02
    endloop
  endfacet
  facet normal -9.583059e-03  0.000000e+00  9.999541e-01
    outer loop
      vertex  -2.499938e+03  1.238718e+03  7.800000e+02
      vertex  -2.499938e+03  1.230057e+03  7.800000e+02
      vertex  -4.197496e+02  1.230057e+03  7.999355e+02
    endloop
  endfacet
  facet normal -9.576473e-03  3.706592e-02  9.992669e-01
    outer loop
      vertex  -4.197496e+02  1.230057e+03  7.999355e+02
      vertex  -2.499938e+03  1.230057e+03  7.800000e+02
      vertex  -4.389964e+02  1.223345e+03  8.000000e+02
    endloop
  endfacet
  facet normal -9.703844e-03  0.000000e+00  9.999529e-01
    outer loop
      vertex  -2.499938e+03  1.230057e+03  7.800000e+02
      vertex  -2.499938e+03  1.223345e+03  7.800000e+02
      vertex  -4.389964e+02  1.223345e+03  8.000000e+02
    endloop
  endfacet
  facet normal -9.695918e-03 -4.040817e-02  9.991362e-01
    outer loop
      vertex  -4.389964e+02  1.223345e+03  8.000000e+02
      vertex  -2.499938e+03  1.223345e+03  7.800000e+02
      vertex  -4.611544e+02  1.215287e+03  7.994591e+02
    endloop
  endfacet
  facet normal -9.544033e-03  0.000000e+00  9.999545e-01
    outer loop
      vertex  -2.499938e+03  1.223345e+03  7.800000e+02
      vertex  -2.499938e+03  1.215287e+03  7.800000e+02
      vertex  -4.611544e+02  1.215287e+03  7.994591e+02
    endloop
  endfacet
  facet normal -9.432495e-03 -1.524366e-01  9.882683e-01
    outer loop
      vertex  -4.611544e+02  1.215287e+03  7.994591e+02
      vertex  -2.499938e+03  1.215287e+03  7.800000e+02
      vertex  -4.806083e+02  1.207842e+03  7.981250e+02
    endloop
  endfacet
  facet normal -8.975388e-03  0.000000e+00  9.999597e-01
    outer loop
      vertex  -2.499938e+03  1.215287e+03  7.800000e+02
      vertex  -2.499938e+03  1.207842e+03  7.800000e+02
      vertex  -4.806083e+02  1.207842e+03  7.981250e+02
    endloop
  endfacet
  facet normal -8.972153e-03  2.684823e-02  9.995993e-01
    outer loop
      vertex  -4.806083e+02  1.207842e+03  7.981250e+02
      vertex  -2.499938e+03  1.207842e+03  7.800000e+02
      vertex  -4.955156e+02  1.201758e+03  7.981546e+02
    endloop
  endfacet
  facet normal -9.056901e-03  0.000000e+00  9.999590e-01
    outer loop
      vertex  -2.499938e+03  1.207842e+03  7.800000e+02
      vertex  -2.499938e+03  1.201758e+03  7.800000e+02
      vertex  -4.955156e+02  1.201758e+03  7.981546e+02
    endloop
  endfacet
  facet normal -8.538782e-03  3.333791e-01  9.427542e-01
    outer loop
      vertex  -4.955156e+02  1.201758e+03  7.981546e+02
      vertex  -2.499938e+03  1.201758e+03  7.800000e+02
      vertex  -5.197327e+02  1.191496e+03  8.015642e+02
    endloop
  endfacet
  facet normal -1.088924e-02  0.000000e+00  9.999407e-01
    outer loop
      vertex  -2.499938e+03  1.201758e+03  7.800000e+02
      vertex  -2.499938e+03  1.191496e+03  7.800000e+02
      vertex  -5.197327e+02  1.191496e+03  8.015642e+02
    endloop
  endfacet
  facet normal -9.415330e-03  5.023826e-01  8.645942e-01
    outer loop
      vertex  -5.197327e+02  1.191496e+03  8.015642e+02
      vertex  -2.499938e+03  1.191496e+03  7.800000e+02
      vertex  -5.369913e+02  1.183823e+03  8.058346e+02
    endloop
  endfacet
  facet normal -1.315999e-02  0.000000e+00  9.999134e-01
    outer loop
      vertex  -2.499938e+03  1.191496e+03  7.800000e+02
      vertex  -2.499938e+03  1.183823e+03  7.800000e+02
      vertex  -5.369913e+02  1.183823e+03  8.058346e+02
    endloop
  endfacet
  facet normal -1.159654e-02  4.727499e-01  8.811203e-01
    outer loop
      vertex  -5.369913e+02  1.183823e+03  8.058346e+02
      vertex  -2.499938e+03  1.183823e+03  7.800000e+02
      vertex  -5.594298e+02  1.173391e+03  8.111367e+02
    endloop
  endfacet
  facet normal -1.604358e-02  0.000000e+00  9.998713e-01
    outer loop
      vertex  -2.499938e+03  1.183823e+03  7.800000e+02
      vertex  -2.499938e+03  1.173391e+03  7.800000e+02
      vertex  -5.594298e+02  1.173391e+03  8.111367e+02
    endloop
  endfacet
  facet normal -1.505385e-02  3.457955e-01  9.381891e-01
    outer loop
      vertex  -5.594298e+02  1.173391e+03  8.111367e+02
      vertex  -2.499938e+03  1.173391e+03  7.800000e+02
      vertex  -5.817778e+02  1.162477e+03  8.148007e+02
    endloop
  endfacet
  facet normal -1.813977e-02  0.000000e+00  9.998354e-01
    outer loop
      vertex  -2.499938e+03  1.173391e+03  7.800000e+02
      vertex  -2.499938e+03  1.162477e+03  7.800000e+02
      vertex  -5.817778e+02  1.162477e+03  8.148007e+02
    endloop
  endfacet
  facet normal -1.747273e-02  2.686859e-01  9.630693e-01
    outer loop
      vertex  -5.817778e+02  1.162477e+03  8.148007e+02
      vertex  -2.499938e+03  1.162477e+03  7.800000e+02
      vertex  -6.059863e+02  1.149998e+03  8.178430e+02
    endloop
  endfacet
  facet normal -1.997699e-02  0.000000e+00  9.998004e-01
    outer loop
      vertex  -2.499938e+03  1.162477e+03  7.800000e+02
      vertex  -2.499938e+03  1.149998e+03  7.800000e+02
      vertex  -6.059863e+02  1.149998e+03  8.178430e+02
    endloop
  endfacet
  facet normal -1.972764e-02  1.575079e-01  9.873207e-01
    outer loop
      vertex  -6.059863e+02  1.149998e+03  8.178430e+02
      vertex  -2.499938e+03  1.149998e+03  7.800000e+02
      vertex  -6.237842e+02  1.140516e+03  8.190000e+02
    endloop
  endfacet
  facet normal -2.078272e-02  0.000000e+00  9.997840e-01
    outer loop
      vertex  -2.499938e+03  1.149998e+03  7.800000e+02
      vertex  -2.499938e+03  1.140516e+03  7.800000e+02
      vertex  -6.237842e+02  1.140516e+03  8.190000e+02
    endloop
  endfacet
  facet normal -2.073971e-02 -6.429797e-02  9.977152e-01
    outer loop
      vertex  -6.237842e+02  1.140516e+03  8.190000e+02
      vertex  -2.499938e+03  1.140516e+03  7.800000e+02
      vertex  -6.370266e+02  1.133149e+03  8.182499e+02
    endloop
  endfacet
  facet normal -2.052801e-02  0.000000e+00  9.997893e-01
    outer loop
      vertex  -2.499938e+03  1.140516e+03  7.800000e+02
      vertex  -2.499938e+03  1.133149e+03  7.800000e+02
      vertex  -6.370266e+02  1.133149e+03  8.182499e+02
    endloop
  endfacet
  facet normal -2.051221e-02 -3.923090e-02  9.990196e-01
    outer loop
      vertex  -6.370266e+02  1.133149e+03  8.182499e+02
      vertex  -2.499938e+03  1.133149e+03  7.800000e+02
      vertex  -6.625553e+02  1.118194e+03  8.171385e+02
    endloop
  endfacet
  facet normal -2.020858e-02  0.000000e+00  9.997958e-01
    outer loop
      vertex  -2.499938e+03  1.133149e+03  7.800000e+02
      vertex  -2.499938e+03  1.118194e+03  7.800000e+02
      vertex  -6.625553e+02  1.118194e+03  8.171385e+02
    endloop
  endfacet
  facet normal -2.020164e-02  2.620464e-02  9.994525e-01
    outer loop
      vertex  -6.625553e+02  1.118194e+03  8.171385e+02
      vertex  -2.499938e+03  1.118194e+03  7.800000e+02
      vertex  -6.896451e+02  1.101698e+03  8.170234e+02
    endloop
  endfacet
  facet normal -2.044735e-02  0.000000e+00  9.997909e-01
    outer loop
      vertex  -2.499938e+03  1.118194e+03  7.800000e+02
      vertex  -2.499938e+03  1.101698e+03  7.800000e+02
      vertex  -6.896451e+02  1.101698e+03  8.170234e+02
    endloop
  endfacet
  facet normal -2.040697e-02  6.281169e-02  9.978167e-01
    outer loop
      vertex  -6.896451e+02  1.101698e+03  8.170234e+02
      vertex  -2.499938e+03  1.101698e+03  7.800000e+02
      vertex  -7.091222e+02  1.089367e+03  8.174013e+02
    endloop
  endfacet
  facet normal -2.088051e-02  0.000000e+00  9.997820e-01
    outer loop
      vertex  -2.499938e+03  1.101698e+03  7.800000e+02
      vertex  -2.499938e+03  1.089367e+03  7.800000e+02
      vertex  -7.091222e+02  1.089367e+03  8.174013e+02
    endloop
  endfacet
  facet normal -2.084232e-02  6.045048e-02  9.979536e-01
    outer loop
      vertex  -7.091222e+02  1.089367e+03  8.174013e+02
      vertex  -2.499938e+03  1.089367e+03  7.800000e+02
      vertex  -7.288880e+02  1.076315e+03  8.177791e+02
    endloop
  endfacet
  facet normal -2.132662e-02  0.000000e+00  9.997725e-01
    outer loop
      vertex  -2.499938e+03  1.089367e+03  7.800000e+02
      vertex  -2.499938e+03  1.076315e+03  7.800000e+02
      vertex  -7.288880e+02  1.076315e+03  8.177791e+02
    endloop
  endfacet
  facet normal -2.132611e-02 -6.917843e-03  9.997486e-01
    outer loop
      vertex  -7.288880e+02  1.076315e+03  8.177791e+02
      vertex  -2.499938e+03  1.076315e+03  7.800000e+02
      vertex  -7.443860e+02  1.065690e+03  8.173750e+02
    endloop
  endfacet
  facet normal -2.128477e-02  0.000000e+00  9.997734e-01
    outer loop
      vertex  -2.499938e+03  1.076315e+03  7.800000e+02
      vertex  -2.499938e+03  1.065690e+03  7.800000e+02
      vertex  -7.443860e+02  1.065690e+03  8.173750e+02
    endloop
  endfacet
  facet normal -2.121540e-02 -8.067311e-02  9.965148e-01
    outer loop
      vertex  -7.443860e+02  1.065690e+03  8.173750e+02
      vertex  -2.499938e+03  1.065690e+03  7.800000e+02
      vertex  -7.612683e+02  1.053708e+03  8.160455e+02
    endloop
  endfacet
  facet normal -2.072722e-02  0.000000e+00  9.997852e-01
    outer loop
      vertex  -2.499938e+03  1.065690e+03  7.800000e+02
      vertex  -2.499938e+03  1.053708e+03  7.800000e+02
      vertex  -7.612683e+02  1.053708e+03  8.160455e+02
    endloop
  endfacet
  facet normal -2.047066e-02 -1.568520e-01  9.874099e-01
    outer loop
      vertex  -7.612683e+02  1.053708e+03  8.160455e+02
      vertex  -2.499938e+03  1.053708e+03  7.800000e+02
      vertex  -7.786654e+02  1.040910e+03  8.136519e+02
    endloop
  endfacet
  facet normal -1.954686e-02  0.000000e+00  9.998090e-01
    outer loop
      vertex  -2.499938e+03  1.053708e+03  7.800000e+02
      vertex  -2.499938e+03  1.040910e+03  7.800000e+02
      vertex  -7.786654e+02  1.040910e+03  8.136519e+02
    endloop
  endfacet
  facet normal -1.919703e-02 -1.883465e-01  9.819150e-01
    outer loop
      vertex  -7.786654e+02  1.040910e+03  8.136519e+02
      vertex  -2.499938e+03  1.040910e+03  7.800000e+02
      vertex  -7.983491e+02  1.025913e+03  8.103904e+02
    endloop
  endfacet
  facet normal -1.785719e-02  0.000000e+00  9.998406e-01
    outer loop
      vertex  -2.499938e+03  1.040910e+03  7.800000e+02
      vertex  -2.499938e+03  1.025913e+03  7.800000e+02
      vertex  -7.983491e+02  1.025913e+03  8.103904e+02
    endloop
  endfacet
  facet normal -1.764798e-02 -1.526227e-01  9.881269e-01
    outer loop
      vertex  -7.983491e+02  1.025913e+03  8.103904e+02
      vertex  -2.499938e+03  1.025913e+03  7.800000e+02
      vertex  -8.212370e+02  1.007573e+03  8.071489e+02
    endloop
  endfacet
  facet normal -1.617046e-02  0.000000e+00  9.998692e-01
    outer loop
      vertex  -2.499938e+03  1.025913e+03  7.800000e+02
      vertex  -2.499938e+03  1.007573e+03  7.800000e+02
      vertex  -8.212370e+02  1.007573e+03  8.071489e+02
    endloop
  endfacet
  facet normal -1.613615e-02 -6.511573e-02  9.977472e-01
    outer loop
      vertex  -8.212370e+02  1.007573e+03  8.071489e+02
      vertex  -2.499938e+03  1.007573e+03  7.800000e+02
      vertex  -8.446040e+02  9.880704e+02  8.054982e+02
    endloop
  endfacet
  facet normal -1.540185e-02  0.000000e+00  9.998814e-01
    outer loop
      vertex  -2.499938e+03  1.007573e+03  7.800000e+02
      vertex  -2.499938e+03  9.880704e+02  7.800000e+02
      vertex  -8.446040e+02  9.880704e+02  8.054982e+02
    endloop
  endfacet
  facet normal -1.540005e-02 -1.526022e-02  9.997650e-01
    outer loop
      vertex  -8.446040e+02  9.880704e+02  8.054982e+02
      vertex  -2.499938e+03  9.880704e+02  7.800000e+02
      vertex  -8.582495e+02  9.763652e+02  8.051094e+02
    endloop
  endfacet
  facet normal -1.529306e-02  0.000000e+00  9.998831e-01
    outer loop
      vertex  -2.499938e+03  9.880704e+02  7.800000e+02
      vertex  -2.499938e+03  9.763652e+02  7.800000e+02
      vertex  -8.582495e+02  9.763652e+02  8.051094e+02
    endloop
  endfacet
  facet normal -1.518328e-02  1.196022e-01  9.927058e-01
    outer loop
      vertex  -8.582495e+02  9.763652e+02  8.051094e+02
      vertex  -2.499938e+03  9.763652e+02  7.800000e+02
      vertex  -8.729118e+02  9.631729e+02  8.064745e+02
    endloop
  endfacet
  facet normal -1.626959e-02  0.000000e+00  9.998676e-01
    outer loop
      vertex  -2.499938e+03  9.763652e+02  7.800000e+02
      vertex  -2.499938e+03  9.631729e+02  7.800000e+02
      vertex  -8.729118e+02  9.631729e+02  8.064745e+02
    endloop
  endfacet
  facet normal -1.604757e-02  1.646374e-01  9.862236e-01
    outer loop
      vertex  -8.729118e+02  9.631729e+02  8.064745e+02
      vertex  -2.499938e+03  9.631729e+02  7.800000e+02
      vertex  -8.965061e+02  9.412891e+02  8.097438e+02
    endloop
  endfacet
  facet normal -1.854691e-02  0.000000e+00  9.998280e-01
    outer loop
      vertex  -2.499938e+03  9.631729e+02  7.800000e+02
      vertex  -2.499938e+03  9.412891e+02  7.800000e+02
      vertex  -8.965061e+02  9.412891e+02  8.097438e+02
    endloop
  endfacet
  facet normal -1.819570e-02  1.936872e-01  9.808946e-01
    outer loop
      vertex  -8.965061e+02  9.412891e+02  8.097438e+02
      vertex  -2.499938e+03  9.412891e+02  7.800000e+02
      vertex  -9.137938e+02  9.246136e+02  8.127159e+02
    endloop
  endfacet
  facet normal -2.062166e-02  0.000000e+00  9.997873e-01
    outer loop
      vertex  -2.499938e+03  9.412891e+02  7.800000e+02
      vertex  -2.499938e+03  9.246136e+02  7.800000e+02
      vertex  -9.137938e+02  9.246136e+02  8.127159e+02
    endloop
  endfacet
  facet normal -2.022612e-02  1.949176e-01  9.806110e-01
    outer loop
      vertex  -9.137938e+02  9.246136e+02  8.127159e+02
      vertex  -2.499938e+03  9.246136e+02  7.800000e+02
      vertex  -9.233527e+02  9.149190e+02  8.144457e+02
    endloop
  endfacet
  facet normal -2.184310e-02  0.000000e+00  9.997614e-01
    outer loop
      vertex  -2.499938e+03  9.246136e+02  7.800000e+02
      vertex  -2.499938e+03  9.149190e+02  7.800000e+02
      vertex  -9.233527e+02  9.149190e+02  8.144457e+02
    endloop
  endfacet
  facet normal -2.163925e-02  1.363022e-01  9.904310e-01
    outer loop
      vertex  -9.233527e+02  9.149190e+02  8.144457e+02
      vertex  -2.499938e+03  9.149190e+02  7.800000e+02
      vertex  -9.432433e+02  8.942794e+02  8.168516e+02
    endloop
  endfacet
  facet normal -2.366632e-02  0.000000e+00  9.997199e-01
    outer loop
      vertex  -2.499938e+03  9.149190e+02  7.800000e+02
      vertex  -2.499938e+03  8.942794e+02  7.800000e+02
      vertex  -9.432433e+02  8.942794e+02  8.168516e+02
    endloop
  endfacet
  facet normal -2.365502e-02  3.089648e-02  9.992427e-01
    outer loop
      vertex  -9.432433e+02  8.942794e+02  8.168516e+02
      vertex  -2.499938e+03  8.942794e+02  7.800000e+02
      vertex  -9.585457e+02  8.777629e+02  8.170000e+02
    endloop
  endfacet
  facet normal -2.399736e-02  0.000000e+00  9.997120e-01
    outer loop
      vertex  -2.499938e+03  8.942794e+02  7.800000e+02
      vertex  -2.499938e+03  8.777629e+02  7.800000e+02
      vertex  -9.585457e+02  8.777629e+02  8.170000e+02
    endloop
  endfacet
  facet normal -2.398950e-02  2.558135e-02  9.993849e-01
    outer loop
      vertex  -9.585457e+02  8.777629e+02  8.170000e+02
      vertex  -2.499938e+03  8.777629e+02  7.800000e+02
      vertex  -9.788674e+02  8.552697e+02  8.170880e+02
    endloop
  endfacet
  facet normal -2.437555e-02  0.000000e+00  9.997029e-01
    outer loop
      vertex  -2.499938e+03  8.777629e+02  7.800000e+02
      vertex  -2.499938e+03  8.552697e+02  7.800000e+02
      vertex  -9.788674e+02  8.552697e+02  8.170880e+02
    endloop
  endfacet
  facet normal -2.435211e-02  4.383913e-02  9.987417e-01
    outer loop
      vertex  -9.788674e+02  8.552697e+02  8.170880e+02
      vertex  -2.499938e+03  8.552697e+02  7.800000e+02
      vertex  -9.888979e+02  8.436909e+02  8.173516e+02
    endloop
  endfacet
  facet normal -2.471160e-02  0.000000e+00  9.996946e-01
    outer loop
      vertex  -2.499938e+03  8.552697e+02  7.800000e+02
      vertex  -2.499938e+03  8.436909e+02  7.800000e+02
      vertex  -9.888979e+02  8.436909e+02  8.173516e+02
    endloop
  endfacet
  facet normal -2.448349e-02  1.355594e-01  9.904667e-01
    outer loop
      vertex  -9.888979e+02  8.436909e+02  8.173516e+02
      vertex  -2.499938e+03  8.436909e+02  7.800000e+02
      vertex  -1.005308e+03  8.240024e+02  8.196406e+02
    endloop
  endfacet
  facet normal -2.651271e-02  0.000000e+00  9.996485e-01
    outer loop
      vertex  -2.499938e+03  8.436909e+02  7.800000e+02
      vertex  -2.499938e+03  8.240024e+02  7.800000e+02
      vertex  -1.005308e+03  8.240024e+02  8.196406e+02
    endloop
  endfacet
  facet normal -2.600534e-02  1.946980e-01  9.805185e-01
    outer loop
      vertex  -1.005308e+03  8.240024e+02  8.196406e+02
      vertex  -2.499938e+03  8.240024e+02  7.800000e+02
      vertex  -1.023448e+03  8.014419e+02  8.236393e+02
    endloop
  endfacet
  facet normal -2.954319e-02  0.000000e+00  9.995635e-01
    outer loop
      vertex  -2.499938e+03  8.240024e+02  7.800000e+02
      vertex  -2.499938e+03  8.014419e+02  7.800000e+02
      vertex  -1.023448e+03  8.014419e+02  8.236393e+02
    endloop
  endfacet
  facet normal -2.919531e-02  1.530110e-01  9.877931e-01
    outer loop
      vertex  -1.023448e+03  8.014419e+02  8.236393e+02
      vertex  -2.499938e+03  8.014419e+02  7.800000e+02
      vertex  -1.038510e+03  7.818661e+02  8.262264e+02
    endloop
  endfacet
  facet normal -3.161519e-02  0.000000e+00  9.995001e-01
    outer loop
      vertex  -2.499938e+03  8.014419e+02  7.800000e+02
      vertex  -2.499938e+03  7.818661e+02  7.800000e+02
      vertex  -1.038510e+03  7.818661e+02  8.262264e+02
    endloop
  endfacet
  facet normal -3.161100e-02  1.628732e-02  9.993675e-01
    outer loop
      vertex  -1.038510e+03  7.818661e+02  8.262264e+02
      vertex  -2.499938e+03  7.818661e+02  7.800000e+02
      vertex  -1.054524e+03  7.601251e+02  8.260742e+02
    endloop
  endfacet
  facet normal -3.185996e-02  0.000000e+00  9.994923e-01
    outer loop
      vertex  -2.499938e+03  7.818661e+02  7.800000e+02
      vertex  -2.499938e+03  7.601251e+02  7.800000e+02
      vertex  -1.054524e+03  7.601251e+02  8.260742e+02
    endloop
  endfacet
  facet normal -3.181409e-02 -5.363780e-02  9.980536e-01
    outer loop
      vertex  -1.054524e+03  7.601251e+02  8.260742e+02
      vertex  -2.499938e+03  7.601251e+02  7.800000e+02
      vertex  -1.070676e+03  7.371199e+02  8.243230e+02
    endloop
  endfacet
  facet normal -3.099621e-02  0.000000e+00  9.995195e-01
    outer loop
      vertex  -2.499938e+03  7.601251e+02  7.800000e+02
      vertex  -2.499938e+03  7.371199e+02  7.800000e+02
      vertex  -1.070676e+03  7.371199e+02  8.243230e+02
    endloop
  endfacet
  facet normal -3.099621e-02  1.229873e-04  9.995195e-01
    outer loop
      vertex  -1.070676e+03  7.371199e+02  8.243230e+02
      vertex  -2.499938e+03  7.371199e+02  7.800000e+02
      vertex  -1.081154e+03  7.215914e+02  8.240000e+02
    endloop
  endfacet
  facet normal -3.099756e-02  0.000000e+00  9.995195e-01
    outer loop
      vertex  -2.499938e+03  7.371199e+02  7.800000e+02
      vertex  -2.499938e+03  7.215914e+02  7.800000e+02
      vertex  -1.081154e+03  7.215914e+02  8.240000e+02
    endloop
  endfacet
  facet normal -3.096914e-02  4.280656e-02  9.986033e-01
    outer loop
      vertex  -1.081154e+03  7.215914e+02  8.240000e+02
      vertex  -2.499938e+03  7.215914e+02  7.800000e+02
      vertex  -1.089257e+03  7.092705e+02  8.242769e+02
    endloop
  endfacet
  facet normal -3.137141e-02  0.000000e+00  9.995078e-01
    outer loop
      vertex  -2.499938e+03  7.215914e+02  7.800000e+02
      vertex  -2.499938e+03  7.092705e+02  7.800000e+02
      vertex  -1.089257e+03  7.092705e+02  8.242769e+02
    endloop
  endfacet
  facet normal -3.126319e-02  8.298723e-02  9.960601e-01
    outer loop
      vertex  -1.089257e+03  7.092705e+02  8.242769e+02
      vertex  -2.499938e+03  7.092705e+02  7.800000e+02
      vertex  -1.104216e+03  6.859843e+02  8.257474e+02
    endloop
  endfacet
  facet normal -3.275929e-02  0.000000e+00  9.994633e-01
    outer loop
      vertex  -2.499938e+03  7.092705e+02  7.800000e+02
      vertex  -2.499938e+03  6.859843e+02  7.800000e+02
      vertex  -1.104216e+03  6.859843e+02  8.257474e+02
    endloop
  endfacet
  facet normal -3.252067e-02  1.204787e-01  9.921831e-01
    outer loop
      vertex  -1.104216e+03  6.859843e+02  8.257474e+02
      vertex  -2.499938e+03  6.859843e+02  7.800000e+02
      vertex  -1.115522e+03  6.674062e+02  8.276328e+02
    endloop
  endfacet
  facet normal -3.438603e-02  0.000000e+00  9.994086e-01
    outer loop
      vertex  -2.499938e+03  6.859843e+02  7.800000e+02
      vertex  -2.499938e+03  6.674062e+02  7.800000e+02
      vertex  -1.115522e+03  6.674062e+02  8.276328e+02
    endloop
  endfacet
  facet normal -3.433187e-02  5.610516e-02  9.978344e-01
    outer loop
      vertex  -1.115522e+03  6.674062e+02  8.276328e+02
      vertex  -2.499938e+03  6.674062e+02  7.800000e+02
      vertex  -1.128199e+03  6.457001e+02  8.284171e+02
    endloop
  endfacet
  facet normal -3.527414e-02  0.000000e+00  9.993777e-01
    outer loop
      vertex  -2.499938e+03  6.674062e+02  7.800000e+02
      vertex  -2.499938e+03  6.457001e+02  7.800000e+02
      vertex  -1.128199e+03  6.457001e+02  8.284171e+02
    endloop
  endfacet
  facet normal -3.513522e-02 -8.866122e-02  9.954420e-01
    outer loop
      vertex  -1.128199e+03  6.457001e+02  8.284171e+02
      vertex  -2.499938e+03  6.457001e+02  7.800000e+02
      vertex  -1.140652e+03  6.235092e+02  8.260010e+02
    endloop
  endfacet
  facet normal -3.382269e-02  0.000000e+00  9.994279e-01
    outer loop
      vertex  -2.499938e+03  6.457001e+02  7.800000e+02
      vertex  -2.499938e+03  6.235092e+02  7.800000e+02
      vertex  -1.140652e+03  6.235092e+02  8.260010e+02
    endloop
  endfacet
  facet normal -3.330377e-02 -1.744960e-01  9.840945e-01
    outer loop
      vertex  -1.140652e+03  6.235092e+02  8.260010e+02
      vertex  -2.499938e+03  6.235092e+02  7.800000e+02
      vertex  -1.149288e+03  6.073952e+02  8.228515e+02
    endloop
  endfacet
  facet normal -3.171061e-02  0.000000e+00  9.994971e-01
    outer loop
      vertex  -2.499938e+03  6.235092e+02  7.800000e+02
      vertex  -2.499938e+03  6.073952e+02  7.800000e+02
      vertex  -1.149288e+03  6.073952e+02  8.228515e+02
    endloop
  endfacet
  facet normal -3.112145e-02 -1.918687e-01  9.809271e-01
    outer loop
      vertex  -1.149288e+03  6.073952e+02  8.228515e+02
      vertex  -2.499938e+03  6.073952e+02  7.800000e+02
      vertex  -1.157589e+03  5.914618e+02  8.194716e+02
    endloop
  endfacet
  facet normal -2.939214e-02  0.000000e+00  9.995680e-01
    outer loop
      vertex  -2.499938e+03  6.073952e+02  7.800000e+02
      vertex  -2.499938e+03  5.914618e+02  7.800000e+02
      vertex  -1.157589e+03  5.914618e+02  8.194716e+02
    endloop
  endfacet
  facet normal -2.879189e-02 -2.010645e-01  9.791548e-01
    outer loop
      vertex  -1.157589e+03  5.914618e+02  8.194716e+02
      vertex  -2.499938e+03  5.914618e+02  7.800000e+02
      vertex  -1.168323e+03  5.700055e+02  8.147500e+02
    endloop
  endfacet
  facet normal -2.608724e-02  0.000000e+00  9.996597e-01
    outer loop
      vertex  -2.499938e+03  5.914618e+02  7.800000e+02
      vertex  -2.499938e+03  5.700055e+02  7.800000e+02
      vertex  -1.168323e+03  5.700055e+02  8.147500e+02
    endloop
  endfacet
  facet normal -2.569114e-02 -1.735989e-01  9.844813e-01
    outer loop
      vertex  -1.168323e+03  5.700055e+02  8.147500e+02
      vertex  -2.499938e+03  5.700055e+02  7.800000e+02
      vertex  -1.178394e+03  5.488119e+02  8.107500e+02
    endloop
  endfacet
  facet normal -2.326194e-02  0.000000e+00  9.997294e-01
    outer loop
      vertex  -2.499938e+03  5.700055e+02  7.800000e+02
      vertex  -2.499938e+03  5.488119e+02  7.800000e+02
      vertex  -1.178394e+03  5.488119e+02  8.107500e+02
    endloop
  endfacet
  facet normal -2.314791e-02 -9.889292e-02  9.948288e-01
    outer loop
      vertex  -1.178394e+03  5.488119e+02  8.107500e+02
      vertex  -2.499938e+03  5.488119e+02  7.800000e+02
      vertex  -1.186742e+03  5.303119e+02  8.087167e+02
    endloop
  endfacet
  facet normal -2.186258e-02  0.000000e+00  9.997610e-01
    outer loop
      vertex  -2.499938e+03  5.488119e+02  7.800000e+02
      vertex  -2.499938e+03  5.303119e+02  7.800000e+02
      vertex  -1.186742e+03  5.303119e+02  8.087167e+02
    endloop
  endfacet
  facet normal -2.186014e-02 -1.495740e-02  9.996492e-01
    outer loop
      vertex  -1.186742e+03  5.303119e+02  8.087167e+02
      vertex  -2.499938e+03  5.303119e+02  7.800000e+02
      vertex  -1.199213e+03  5.006370e+02  8.080000e+02
    endloop
  endfacet
  facet normal -2.152147e-02  0.000000e+00  9.997684e-01
    outer loop
      vertex  -2.499938e+03  5.303119e+02  7.800000e+02
      vertex  -2.499938e+03  5.006370e+02  7.800000e+02
      vertex  -1.199213e+03  5.006370e+02  8.080000e+02
    endloop
  endfacet
  facet normal -2.152063e-02  8.832569e-03  9.997294e-01
    outer loop
      vertex  -1.199213e+03  5.006370e+02  8.080000e+02
      vertex  -2.499938e+03  5.006370e+02  7.800000e+02
      vertex  -1.205196e+03  4.860590e+02  8.080000e+02
    endloop
  endfacet
  facet normal -2.162087e-02  0.000000e+00  9.997662e-01
    outer loop
      vertex  -2.499938e+03  5.006370e+02  7.800000e+02
      vertex  -2.499938e+03  4.860590e+02  7.800000e+02
      vertex  -1.205196e+03  4.860590e+02  8.080000e+02
    endloop
  endfacet
  facet normal -2.161128e-02  2.978221e-02  9.993228e-01
    outer loop
      vertex  -1.205196e+03  4.860590e+02  8.080000e+02
      vertex  -2.499938e+03  4.860590e+02  7.800000e+02
      vertex  -1.212388e+03  4.682573e+02  8.083750e+02
    endloop
  endfacet
  facet normal -2.203262e-02  0.000000e+00  9.997572e-01
    outer loop
      vertex  -2.499938e+03  4.860590e+02  7.800000e+02
      vertex  -2.499938e+03  4.682573e+02  7.800000e+02
      vertex  -1.212388e+03  4.682573e+02  8.083750e+02
    endloop
  endfacet
  facet normal -2.197017e-02  7.524165e-02  9.969233e-01
    outer loop
      vertex  -1.212388e+03  4.682573e+02  8.083750e+02
      vertex  -2.499938e+03  4.682573e+02  7.800000e+02
      vertex  -1.221399e+03  4.448119e+02  8.099459e+02
    endloop
  endfacet
  facet normal -2.341557e-02  0.000000e+00  9.997258e-01
    outer loop
      vertex  -2.499938e+03  4.682573e+02  7.800000e+02
      vertex  -2.499938e+03  4.448119e+02  7.800000e+02
      vertex  -1.221399e+03  4.448119e+02  8.099459e+02
    endloop
  endfacet
  facet normal -2.319136e-02  1.380536e-01  9.901532e-01
    outer loop
      vertex  -1.221399e+03  4.448119e+02  8.099459e+02
      vertex  -2.499938e+03  4.448119e+02  7.800000e+02
      vertex  -1.228589e+03  4.246833e+02  8.125840e+02
    endloop
  endfacet
  facet normal -2.562104e-02  0.000000e+00  9.996717e-01
    outer loop
      vertex  -2.499938e+03  4.448119e+02  7.800000e+02
      vertex  -2.499938e+03  4.246833e+02  7.800000e+02
      vertex  -1.228589e+03  4.246833e+02  8.125840e+02
    endloop
  endfacet
  facet normal -2.534194e-02  1.472031e-01  9.887816e-01
    outer loop
      vertex  -1.228589e+03  4.246833e+02  8.125840e+02
      vertex  -2.499938e+03  4.246833e+02  7.800000e+02
      vertex  -1.235983e+03  4.026744e+02  8.156710e+02
    endloop
  endfacet
  facet normal -2.821052e-02  0.000000e+00  9.996020e-01
    outer loop
      vertex  -2.499938e+03  4.246833e+02  7.800000e+02
      vertex  -2.499938e+03  4.026744e+02  7.800000e+02
      vertex  -1.235983e+03  4.026744e+02  8.156710e+02
    endloop
  endfacet
  facet normal -2.805058e-02  1.063340e-01  9.939348e-01
    outer loop
      vertex  -1.235983e+03  4.026744e+02  8.156710e+02
      vertex  -2.499938e+03  4.026744e+02  7.800000e+02
      vertex  -1.245623e+03  3.717422e+02  8.187082e+02
    endloop
  endfacet
  facet normal -3.084533e-02  0.000000e+00  9.995242e-01
    outer loop
      vertex  -2.499938e+03  4.026744e+02  7.800000e+02
      vertex  -2.499938e+03  3.717422e+02  7.800000e+02
      vertex  -1.245623e+03  3.717422e+02  8.187082e+02
    endloop
  endfacet
  facet normal -3.063075e-02  1.177473e-01  9.925711e-01
    outer loop
      vertex  -1.245623e+03  3.717422e+02  8.187082e+02
      vertex  -2.499938e+03  3.717422e+02  7.800000e+02
      vertex  -1.251815e+03  3.505486e+02  8.210312e+02
    endloop
  endfacet
  facet normal -3.285662e-02  0.000000e+00  9.994601e-01
    outer loop
      vertex  -2.499938e+03  3.717422e+02  7.800000e+02
      vertex  -2.499938e+03  3.505486e+02  7.800000e+02
      vertex  -1.251815e+03  3.505486e+02  8.210312e+02
    endloop
  endfacet
  facet normal -3.246159e-02  1.545990e-01  9.874439e-01
    outer loop
      vertex  -1.251815e+03  3.505486e+02  8.210312e+02
      vertex  -2.499938e+03  3.505486e+02  7.800000e+02
      vertex  -1.257328e+03  3.299705e+02  8.240718e+02
    endloop
  endfacet
  facet normal -3.544486e-02  0.000000e+00  9.993716e-01
    outer loop
      vertex  -2.499938e+03  3.505486e+02  7.800000e+02
      vertex  -2.499938e+03  3.299705e+02  7.800000e+02
      vertex  -1.257328e+03  3.299705e+02  8.240718e+02
    endloop
  endfacet
  facet normal -3.522728e-02  1.106296e-01  9.932372e-01
    outer loop
      vertex  -1.257328e+03  3.299705e+02  8.240718e+02
      vertex  -2.499938e+03  3.299705e+02  7.800000e+02
      vertex  -1.264690e+03  3.006597e+02  8.270754e+02
    endloop
  endfacet
  facet normal -3.808246e-02  0.000000e+00  9.992746e-01
    outer loop
      vertex  -2.499938e+03  3.299705e+02  7.800000e+02
      vertex  -2.499938e+03  3.006597e+02  7.800000e+02
      vertex  -1.264690e+03  3.006597e+02  8.270754e+02
    endloop
  endfacet
  facet normal -3.793824e-02  8.694866e-02  9.954901e-01
    outer loop
      vertex  -1.264690e+03  3.006597e+02  8.270754e+02
      vertex  -2.499938e+03  3.006597e+02  7.800000e+02
      vertex  -1.271711e+03  2.691653e+02  8.295587e+02
    endloop
  endfacet
  facet normal -4.031695e-02  0.000000e+00  9.991869e-01
    outer loop
      vertex  -2.499938e+03  3.006597e+02  7.800000e+02
      vertex  -2.499938e+03  2.691653e+02  7.800000e+02
      vertex  -1.271711e+03  2.691653e+02  8.295587e+02
    endloop
  endfacet
  facet normal -4.019512e-02  7.768212e-02  9.961676e-01
    outer loop
      vertex  -1.271711e+03  2.691653e+02  8.295587e+02
      vertex  -2.499938e+03  2.691653e+02  7.800000e+02
      vertex  -1.276872e+03  2.435029e+02  8.313516e+02
    endloop
  endfacet
  facet normal -4.194900e-02  0.000000e+00  9.991198e-01
    outer loop
      vertex  -2.499938e+03  2.691653e+02  7.800000e+02
      vertex  -2.499938e+03  2.435029e+02  7.800000e+02
      vertex  -1.276872e+03  2.435029e+02  8.313516e+02
    endloop
  endfacet
  facet normal -4.189810e-02  4.924925e-02  9.979073e-01
    outer loop
      vertex  -1.276872e+03  2.435029e+02  8.313516e+02
      vertex  -2.499938e+03  2.435029e+02  7.800000e+02
      vertex  -1.281910e+03  2.152106e+02  8.325364e+02
    endloop
  endfacet
  facet normal -4.309225e-02  0.000000e+00  9.990711e-01
    outer loop
      vertex  -2.499938e+03  2.435029e+02  7.800000e+02
      vertex  -2.499938e+03  2.152106e+02  7.800000e+02
      vertex  -1.281910e+03  2.152106e+02  8.325364e+02
    endloop
  endfacet
  facet normal -4.305506e-02 -4.153701e-02  9.982089e-01
    outer loop
      vertex  -1.281910e+03  2.152106e+02  8.325364e+02
      vertex  -2.499938e+03  2.152106e+02  7.800000e+02
      vertex  -1.285038e+03  1.965505e+02  8.316250e+02
    endloop
  endfacet
  facet normal -4.245488e-02  0.000000e+00  9.990984e-01
    outer loop
      vertex  -2.499938e+03  2.152106e+02  7.800000e+02
      vertex  -2.499938e+03  1.965505e+02  7.800000e+02
      vertex  -1.285038e+03  1.965505e+02  8.316250e+02
    endloop
  endfacet
  facet normal -4.123233e-02 -2.382510e-01  9.703280e-01
    outer loop
      vertex  -1.285038e+03  1.965505e+02  8.316250e+02
      vertex  -2.499938e+03  1.965505e+02  7.800000e+02
      vertex  -1.287105e+03  1.823993e+02  8.280625e+02
    endloop
  endfacet
  facet normal -3.959721e-02  0.000000e+00  9.992157e-01
    outer loop
      vertex  -2.499938e+03  1.965505e+02  7.800000e+02
      vertex  -2.499938e+03  1.823993e+02  7.800000e+02
      vertex  -1.287105e+03  1.823993e+02  8.280625e+02
    endloop
  endfacet
  facet normal -3.839707e-02 -2.443340e-01  9.689306e-01
    outer loop
      vertex  -1.287105e+03  1.823993e+02  8.280625e+02
      vertex  -2.499938e+03  1.823993e+02  7.800000e+02
      vertex  -1.290336e+03  1.573489e+02  8.216176e+02
    endloop
  endfacet
  facet normal -3.438563e-02  0.000000e+00  9.994087e-01
    outer loop
      vertex  -2.499938e+03  1.823993e+02  7.800000e+02
      vertex  -2.499938e+03  1.573489e+02  7.800000e+02
      vertex  -1.290336e+03  1.573489e+02  8.216176e+02
    endloop
  endfacet
  facet normal -3.306411e-02 -2.745685e-01  9.609989e-01
    outer loop
      vertex  -1.290336e+03  1.573489e+02  8.216176e+02
      vertex  -2.499938e+03  1.573489e+02  7.800000e+02
      vertex  -1.293673e+03  1.276660e+02  8.130220e+02
    endloop
  endfacet
  facet normal -2.736514e-02  0.000000e+00  9.996255e-01
    outer loop
      vertex  -2.499938e+03  1.573489e+02  7.800000e+02
      vertex  -2.499938e+03  1.276660e+02  7.800000e+02
      vertex  -1.293673e+03  1.276660e+02  8.130220e+02
    endloop
  endfacet
  facet normal -2.655269e-02 -2.418619e-01  9.699473e-01
    outer loop
      vertex  -1.293673e+03  1.276660e+02  8.130220e+02
      vertex  -2.499938e+03  1.276660e+02  7.800000e+02
      vertex  -1.295604e+03  1.062681e+02  8.076334e+02
    endloop
  endfacet
  facet normal -2.293895e-02  0.000000e+00  9.997368e-01
    outer loop
      vertex  -2.499938e+03  1.276660e+02  7.800000e+02
      vertex  -2.499938e+03  1.062681e+02  7.800000e+02
      vertex  -1.295604e+03  1.062681e+02  8.076334e+02
    endloop
  endfacet
  facet normal -2.269331e-02 -1.459505e-01  9.890316e-01
    outer loop
      vertex  -1.295604e+03  1.062681e+02  8.076334e+02
      vertex  -2.499938e+03  1.062681e+02  7.800000e+02
      vertex  -1.297360e+03  8.235769e+01  8.040647e+02
    endloop
  endfacet
  facet normal -2.000692e-02  0.000000e+00  9.997998e-01
    outer loop
      vertex  -2.499938e+03  1.062681e+02  7.800000e+02
      vertex  -2.499938e+03  8.235769e+01  7.800000e+02
      vertex  -1.297360e+03  8.235769e+01  8.040647e+02
    endloop
  endfacet
  facet normal -1.995025e-02  7.521275e-02  9.969679e-01
    outer loop
      vertex  -1.297360e+03  8.235769e+01  8.040647e+02
      vertex  -2.499938e+03  8.235769e+01  7.800000e+02
      vertex  -1.298612e+03  5.828201e+01  8.058560e+02
    endloop
  endfacet
  facet normal -2.151786e-02  0.000000e+00  9.997684e-01
    outer loop
      vertex  -2.499938e+03  8.235769e+01  7.800000e+02
      vertex  -2.499938e+03  5.828201e+01  7.800000e+02
      vertex  -1.298612e+03  5.828201e+01  8.058560e+02
    endloop
  endfacet
  facet normal -2.097209e-02  2.237945e-01  9.744107e-01
    outer loop
      vertex  -1.298612e+03  5.828201e+01  8.058560e+02
      vertex  -2.499938e+03  5.828201e+01  7.800000e+02
      vertex  -1.299542e+03  3.211606e+01  8.118455e+02
    endloop
  endfacet
  facet normal -2.651984e-02  0.000000e+00  9.996483e-01
    outer loop
      vertex  -2.499938e+03  5.828201e+01  7.800000e+02
      vertex  -2.499938e+03  3.211606e+01  7.800000e+02
      vertex  -1.299542e+03  3.211606e+01  8.118455e+02
    endloop
  endfacet
  facet normal -2.531170e-02  2.983894e-01  9.541085e-01
    outer loop
      vertex  -1.299542e+03  3.211606e+01  8.118455e+02
      vertex  -2.499938e+03  3.211606e+01  7.800000e+02
      vertex  -1.299938e+03  4.808394e+00  8.203752e+02
    endloop
  endfacet
  facet normal -3.362701e-02  0.000000e+00  9.994345e-01
    outer loop
      vertex  -2.499938e+03  3.211606e+01  7.800000e+02
      vertex  -2.499938e+03  4.808394e+00  7.800000e+02
      vertex  -1.299938e+03  4.808394e+00  8.203752e+02
    endloop
  endfacet
  facet normal -3.204796e-02  3.028373e-01  9.525033e-01
    outer loop
      vertex  -1.299938e+03  4.808394e+00  8.203752e+02
      vertex  -2.499938e+03  4.808394e+00  7.800000e+02
      vertex  -1.299906e+03 -1.032405e+01  8.251875e+02
    endloop
  endfacet
  facet normal -3.762858e-02  0.000000e+00  9.992918e-01
    outer loop
      vertex  -2.499938e+03  4.808394e+00  7.800000e+02
      vertex  -2.499938e+03 -1.032405e+01  7.800000e+02
      vertex  -1.299906e+03 -1.032405e+01  8.251875e+02
    endloop
  endfacet
  facet normal -3.546398e-02  3.342783e-01  9.418069e-01
    outer loop
      vertex  -1.299906e+03 -1.032405e+01  8.251875e+02
      vertex  -2.499938e+03 -1.032405e+01  7.800000e+02
      vertex  -1.299625e+03 -2.956499e+01  8.320273e+02
    endloop
  endfacet
  facet normal -4.330414e-02  0.000000e+00  9.990619e-01
    outer loop
      vertex  -2.499938e+03 -1.032405e+01  7.800000e+02
      vertex  -2.499938e+03 -2.956499e+01  7.800000e+02
      vertex  -1.299625e+03 -2.956499e+01  8.320273e+02
    endloop
  endfacet
  facet normal -3.981449e-02  3.932879e-01  9.185529e-01
    outer loop
      vertex  -1.299625e+03 -2.956499e+01  8.320273e+02
      vertex  -2.499938e+03 -2.956499e+01  7.800000e+02
      vertex  -1.299047e+03 -4.752063e+01  8.397403e+02
    endloop
  endfacet
  facet normal -4.968518e-02  0.000000e+00  9.987649e-01
    outer loop
      vertex  -2.499938e+03 -2.956499e+01  7.800000e+02
      vertex  -2.499938e+03 -4.752063e+01  7.800000e+02
      vertex  -1.299047e+03 -4.752063e+01  8.397403e+02
    endloop
  endfacet
  facet normal -4.809106e-02  2.512757e-01  9.667201e-01
    outer loop
      vertex  -1.299047e+03 -4.752063e+01  8.397403e+02
      vertex  -2.499938e+03 -4.752063e+01  7.800000e+02
      vertex  -1.297658e+03 -7.627503e+01  8.472834e+02
    endloop
  endfacet
  facet normal -5.587573e-02  0.000000e+00  9.984377e-01
    outer loop
      vertex  -2.499938e+03 -4.752063e+01  7.800000e+02
      vertex  -2.499938e+03 -7.627503e+01  7.800000e+02
      vertex  -1.297658e+03 -7.627503e+01  8.472834e+02
    endloop
  endfacet
  facet normal -5.585695e-02  2.592199e-02  9.981022e-01
    outer loop
      vertex  -1.297658e+03 -7.627503e+01  8.472834e+02
      vertex  -2.499938e+03 -7.627503e+01  7.800000e+02
      vertex  -1.295720e+03 -1.048044e+02  8.481328e+02
    endloop
  endfacet
  facet normal -5.648811e-02  0.000000e+00  9.984033e-01
    outer loop
      vertex  -2.499938e+03 -7.627503e+01  7.800000e+02
      vertex  -2.499938e+03 -1.048044e+02  7.800000e+02
      vertex  -1.295720e+03 -1.048044e+02  8.481328e+02
    endloop
  endfacet
  facet normal -5.531403e-02 -2.028224e-01  9.776520e-01
    outer loop
      vertex  -1.295720e+03 -1.048044e+02  8.481328e+02
      vertex  -2.499938e+03 -1.048044e+02  7.800000e+02
      vertex  -1.294138e+03 -1.224254e+02  8.445667e+02
    endloop
  endfacet
  facet normal -5.347013e-02  0.000000e+00  9.985694e-01
    outer loop
      vertex  -2.499938e+03 -1.048044e+02  7.800000e+02
      vertex  -2.499938e+03 -1.224254e+02  7.800000e+02
      vertex  -1.294138e+03 -1.224254e+02  8.445667e+02
    endloop
  endfacet
  facet normal -5.130091e-02 -2.819434e-01  9.580585e-01
    outer loop
      vertex  -1.294138e+03 -1.224254e+02  8.445667e+02
      vertex  -2.499938e+03 -1.224254e+02  7.800000e+02
      vertex  -1.291964e+03 -1.437236e+02  8.384153e+02
    endloop
  endfacet
  facet normal -4.830163e-02  0.000000e+00  9.988328e-01
    outer loop
      vertex  -2.499938e+03 -1.224254e+02  7.800000e+02
      vertex  -2.499938e+03 -1.437236e+02  7.800000e+02
      vertex  -1.291964e+03 -1.437236e+02  8.384153e+02
    endloop
  endfacet
  facet normal -4.555140e-02 -3.326184e-01  9.419608e-01
    outer loop
      vertex  -1.291964e+03 -1.437236e+02  8.384153e+02
      vertex  -2.499938e+03 -1.437236e+02  7.800000e+02
      vertex  -1.289079e+03 -1.675395e+02  8.301451e+02
    endloop
  endfacet
  facet normal -4.137739e-02  0.000000e+00  9.991436e-01
    outer loop
      vertex  -2.499938e+03 -1.437236e+02  7.800000e+02
      vertex  -2.499938e+03 -1.675395e+02  7.800000e+02
      vertex  -1.289079e+03 -1.675395e+02  8.301451e+02
    endloop
  endfacet
  facet normal -3.876190e-02 -3.498934e-01  9.359872e-01
    outer loop
      vertex  -1.289079e+03 -1.675395e+02  8.301451e+02
      vertex  -2.499938e+03 -1.675395e+02  7.800000e+02
      vertex  -1.286642e+03 -1.852893e+02  8.236108e+02
    endloop
  endfacet
  facet normal -3.592085e-02  0.000000e+00  9.993547e-01
    outer loop
      vertex  -2.499938e+03 -1.675395e+02  7.800000e+02
      vertex  -2.499938e+03 -1.852893e+02  7.800000e+02
      vertex  -1.286642e+03 -1.852893e+02  8.236108e+02
    endloop
  endfacet
  facet normal -3.351381e-02 -3.599008e-01  9.323884e-01
    outer loop
      vertex  -1.286642e+03 -1.852893e+02  8.236108e+02
      vertex  -2.499938e+03 -1.852893e+02  7.800000e+02
      vertex  -1.283158e+03 -2.083116e+02  8.148494e+02
    endloop
  endfacet
  facet normal -2.862895e-02  0.000000e+00  9.995901e-01
    outer loop
      vertex  -2.499938e+03 -1.852893e+02  7.800000e+02
      vertex  -2.499938e+03 -2.083116e+02  7.800000e+02
      vertex  -1.283158e+03 -2.083116e+02  8.148494e+02
    endloop
  endfacet
  facet normal -2.724192e-02 -3.074891e-01  9.511616e-01
    outer loop
      vertex  -1.283158e+03 -2.083116e+02  8.148494e+02
      vertex  -2.499938e+03 -2.083116e+02  7.800000e+02
      vertex  -1.277775e+03 -2.388452e+02  8.051328e+02
    endloop
  endfacet
  facet normal -2.055981e-02  0.000000e+00  9.997886e-01
    outer loop
      vertex  -2.499938e+03 -2.083116e+02  7.800000e+02
      vertex  -2.499938e+03 -2.388452e+02  7.800000e+02
      vertex  -1.277775e+03 -2.388452e+02  8.051328e+02
    endloop
  endfacet
  facet normal -1.971831e-02 -2.831669e-01  9.588679e-01
    outer loop
      vertex  -1.277775e+03 -2.388452e+02  8.051328e+02
      vertex  -2.499938e+03 -2.388452e+02  7.800000e+02
      vertex  -1.273356e+03 -2.613261e+02  7.985847e+02
    endloop
  endfacet
  facet normal -1.514988e-02  0.000000e+00  9.998853e-01
    outer loop
      vertex  -2.499938e+03 -2.388452e+02  7.800000e+02
      vertex  -2.499938e+03 -2.613261e+02  7.800000e+02
      vertex  -1.273356e+03 -2.613261e+02  7.985847e+02
    endloop
  endfacet
  facet normal -1.477719e-02 -2.204442e-01  9.752876e-01
    outer loop
      vertex  -1.273356e+03 -2.613261e+02  7.985847e+02
      vertex  -2.499938e+03 -2.613261e+02  7.800000e+02
      vertex  -1.268841e+03 -2.823941e+02  7.938911e+02
    endloop
  endfacet
  facet normal -1.128281e-02  0.000000e+00  9.999363e-01
    outer loop
      vertex  -2.499938e+03 -2.613261e+02  7.800000e+02
      vertex  -2.499938e+03 -2.823941e+02  7.800000e+02
      vertex  -1.268841e+03 -2.823941e+02  7.938911e+02
    endloop
  endfacet
  facet normal -1.128017e-02 -2.161618e-02  9.997027e-01
    outer loop
      vertex  -1.268841e+03 -2.823941e+02  7.938911e+02
      vertex  -2.499938e+03 -2.823941e+02  7.800000e+02
      vertex  -1.262683e+03 -3.083931e+02  7.933984e+02
    endloop
  endfacet
  facet normal -1.082853e-02  0.000000e+00  9.999413e-01
    outer loop
      vertex  -2.499938e+03 -2.823941e+02  7.800000e+02
      vertex  -2.499938e+03 -3.083931e+02  7.800000e+02
      vertex  -1.262683e+03 -3.083931e+02  7.933984e+02
    endloop
  endfacet
  facet normal -1.078953e-02  8.479360e-02  9.963401e-01
    outer loop
      vertex  -1.262683e+03 -3.083931e+02  7.933984e+02
      vertex  -2.499938e+03 -3.083931e+02  7.800000e+02
      vertex  -1.256469e+03 -3.334544e+02  7.955986e+02
    endloop
  endfacet
  facet normal -1.254341e-02  0.000000e+00  9.999213e-01
    outer loop
      vertex  -2.499938e+03 -3.083931e+02  7.800000e+02
      vertex  -2.499938e+03 -3.334544e+02  7.800000e+02
      vertex  -1.256469e+03 -3.334544e+02  7.955986e+02
    endloop
  endfacet
  facet normal -1.219146e-02  2.352246e-01  9.718646e-01
    outer loop
      vertex  -1.256469e+03 -3.334544e+02  7.955986e+02
      vertex  -2.499938e+03 -3.334544e+02  7.800000e+02
      vertex  -1.248973e+03 -3.602986e+02  8.021898e+02
    endloop
  endfacet
  facet normal -1.773537e-02  0.000000e+00  9.998427e-01
    outer loop
      vertex  -2.499938e+03 -3.334544e+02  7.800000e+02
      vertex  -2.499938e+03 -3.602986e+02  7.800000e+02
      vertex  -1.248973e+03 -3.602986e+02  8.021898e+02
    endloop
  endfacet
  facet normal -1.742548e-02  1.861205e-01  9.823724e-01
    outer loop
      vertex  -1.248973e+03 -3.602986e+02  8.021898e+02
      vertex  -2.499938e+03 -3.602986e+02  7.800000e+02
      vertex  -1.241494e+03 -3.851754e+02  8.070356e+02
    endloop
  endfacet
  facet normal -2.147843e-02  0.000000e+00  9.997693e-01
    outer loop
      vertex  -2.499938e+03 -3.602986e+02  7.800000e+02
      vertex  -2.499938e+03 -3.851754e+02  7.800000e+02
      vertex  -1.241494e+03 -3.851754e+02  8.070356e+02
    endloop
  endfacet
  facet normal -2.142937e-02  6.754985e-02  9.974858e-01
    outer loop
      vertex  -1.241494e+03 -3.851754e+02  8.070356e+02
      vertex  -2.499938e+03 -3.851754e+02  7.800000e+02
      vertex  -1.234179e+03 -4.080546e+02  8.087422e+02
    endloop
  endfacet
  facet normal -2.270161e-02  0.000000e+00  9.997423e-01
    outer loop
      vertex  -2.499938e+03 -3.851754e+02  7.800000e+02
      vertex  -2.499938e+03 -4.080546e+02  7.800000e+02
      vertex  -1.234179e+03 -4.080546e+02  8.087422e+02
    endloop
  endfacet
  facet normal -2.269755e-02 -1.889985e-02  9.995637e-01
    outer loop
      vertex  -1.234179e+03 -4.080546e+02  8.087422e+02
      vertex  -2.499938e+03 -4.080546e+02  7.800000e+02
      vertex  -1.227922e+03 -4.267244e+02  8.085312e+02
    endloop
  endfacet
  facet normal -2.242430e-02  0.000000e+00  9.997485e-01
    outer loop
      vertex  -2.499938e+03 -4.080546e+02  7.800000e+02
      vertex  -2.499938e+03 -4.267244e+02  7.800000e+02
      vertex  -1.227922e+03 -4.267244e+02  8.085312e+02
    endloop
  endfacet
  facet normal -2.224625e-02 -1.257648e-01  9.918106e-01
    outer loop
      vertex  -1.227922e+03 -4.267244e+02  8.085312e+02
      vertex  -2.499938e+03 -4.267244e+02  7.800000e+02
      vertex  -1.221665e+03 -4.442472e+02  8.064496e+02
    endloop
  endfacet
  facet normal -2.068727e-02  0.000000e+00  9.997860e-01
    outer loop
      vertex  -2.499938e+03 -4.267244e+02  7.800000e+02
      vertex  -2.499938e+03 -4.442472e+02  7.800000e+02
      vertex  -1.221665e+03 -4.442472e+02  8.064496e+02
    endloop
  endfacet
  facet normal -2.060537e-02 -8.889557e-02  9.958278e-01
    outer loop
      vertex  -1.221665e+03 -4.442472e+02  8.064496e+02
      vertex  -2.499938e+03 -4.442472e+02  7.800000e+02
      vertex  -1.210413e+03 -4.739399e+02  8.040319e+02
    endloop
  endfacet
  facet normal -1.863297e-02  0.000000e+00  9.998264e-01
    outer loop
      vertex  -2.499938e+03 -4.442472e+02  7.800000e+02
      vertex  -2.499938e+03 -4.739399e+02  7.800000e+02
      vertex  -1.210413e+03 -4.739399e+02  8.040319e+02
    endloop
  endfacet
  facet normal -1.862928e-02  1.991558e-02  9.996281e-01
    outer loop
      vertex  -1.210413e+03 -4.739399e+02  8.040319e+02
      vertex  -2.499938e+03 -4.739399e+02  7.800000e+02
      vertex  -1.199566e+03 -5.006817e+02  8.047668e+02
    endloop
  endfacet
  facet normal -1.904246e-02  0.000000e+00  9.998187e-01
    outer loop
      vertex  -2.499938e+03 -4.739399e+02  7.800000e+02
      vertex  -2.499938e+03 -5.006817e+02  7.800000e+02
      vertex  -1.199566e+03 -5.006817e+02  8.047668e+02
    endloop
  endfacet
  facet normal -1.892675e-02  1.100720e-01  9.937434e-01
    outer loop
      vertex  -1.199566e+03 -5.006817e+02  8.047668e+02
      vertex  -2.499938e+03 -5.006817e+02  7.800000e+02
      vertex  -1.186957e+03 -5.299517e+02  8.082490e+02
    endloop
  endfacet
  facet normal -2.151019e-02  0.000000e+00  9.997686e-01
    outer loop
      vertex  -2.499938e+03 -5.006817e+02  7.800000e+02
      vertex  -2.499938e+03 -5.299517e+02  7.800000e+02
      vertex  -1.186957e+03 -5.299517e+02  8.082490e+02
    endloop
  endfacet
  facet normal -2.096060e-02  2.246074e-01  9.742239e-01
    outer loop
      vertex  -1.186957e+03 -5.299517e+02  8.082490e+02
      vertex  -2.499938e+03 -5.299517e+02  7.800000e+02
      vertex  -1.179649e+03 -5.461798e+02  8.121476e+02
    endloop
  endfacet
  facet normal -2.434173e-02  0.000000e+00  9.997037e-01
    outer loop
      vertex  -2.499938e+03 -5.299517e+02  7.800000e+02
      vertex  -2.499938e+03 -5.461798e+02  7.800000e+02
      vertex  -1.179649e+03 -5.461798e+02  8.121476e+02
    endloop
  endfacet
  facet normal -2.369085e-02  2.297039e-01  9.729722e-01
    outer loop
      vertex  -1.179649e+03 -5.461798e+02  8.121476e+02
      vertex  -2.499938e+03 -5.461798e+02  7.800000e+02
      vertex  -1.172559e+03 -5.612460e+02  8.158772e+02
    endloop
  endfacet
  facet normal -2.701873e-02  0.000000e+00  9.996349e-01
    outer loop
      vertex  -2.499938e+03 -5.461798e+02  7.800000e+02
      vertex  -2.499938e+03 -5.612460e+02  7.800000e+02
      vertex  -1.172559e+03 -5.612460e+02  8.158772e+02
    endloop
  endfacet
  facet normal -2.648367e-02  1.980247e-01  9.798392e-01
    outer loop
      vertex  -1.172559e+03 -5.612460e+02  8.158772e+02
      vertex  -2.499938e+03 -5.612460e+02  7.800000e+02
      vertex  -1.160523e+03 -5.856409e+02  8.211327e+02
    endloop
  endfacet
  facet normal -3.069497e-02  0.000000e+00  9.995288e-01
    outer loop
      vertex  -2.499938e+03 -5.612460e+02  7.800000e+02
      vertex  -2.499938e+03 -5.856409e+02  7.800000e+02
      vertex  -1.160523e+03 -5.856409e+02  8.211327e+02
    endloop
  endfacet
  facet normal -3.042920e-02  1.313069e-01  9.908746e-01
    outer loop
      vertex  -1.160523e+03 -5.856409e+02  8.211327e+02
      vertex  -2.499938e+03 -5.856409e+02  7.800000e+02
      vertex  -1.145333e+03 -6.146924e+02  8.254490e+02
    endloop
  endfacet
  facet normal -3.353257e-02  0.000000e+00  9.994376e-01
    outer loop
      vertex  -2.499938e+03 -5.856409e+02  7.800000e+02
      vertex  -2.499938e+03 -6.146924e+02  7.800000e+02
      vertex  -1.145333e+03 -6.146924e+02  8.254490e+02
    endloop
  endfacet
  facet normal -3.345442e-02  6.823635e-02  9.971081e-01
    outer loop
      vertex  -1.145333e+03 -6.146924e+02  8.254490e+02
      vertex  -2.499938e+03 -6.146924e+02  7.800000e+02
      vertex  -1.134377e+03 -6.347471e+02  8.271890e+02
    endloop
  endfacet
  facet normal -3.453586e-02  0.000000e+00  9.994035e-01
    outer loop
      vertex  -2.499938e+03 -6.146924e+02  7.800000e+02
      vertex  -2.499938e+03 -6.347471e+02  7.800000e+02
      vertex  -1.134377e+03 -6.347471e+02  8.271890e+02
    endloop
  endfacet
  facet normal -3.451532e-02  3.448259e-02  9.988091e-01
    outer loop
      vertex  -1.134377e+03 -6.347471e+02  8.271890e+02
      vertex  -2.499938e+03 -6.347471e+02  7.800000e+02
      vertex  -1.121230e+03 -6.575959e+02  8.284321e+02
    endloop
  endfacet
  facet normal -3.510696e-02  0.000000e+00  9.993836e-01
    outer loop
      vertex  -2.499938e+03 -6.347471e+02  7.800000e+02
      vertex  -2.499938e+03 -6.575959e+02  7.800000e+02
      vertex  -1.121230e+03 -6.575959e+02  8.284321e+02
    endloop
  endfacet
  facet normal -3.507161e-02  4.486738e-02  9.983771e-01
    outer loop
      vertex  -1.121230e+03 -6.575959e+02  8.284321e+02
      vertex  -2.499938e+03 -6.575959e+02  7.800000e+02
      vertex  -1.105644e+03 -6.836191e+02  8.301491e+02
    endloop
  endfacet
  facet normal -3.594415e-02  0.000000e+00  9.993538e-01
    outer loop
      vertex  -2.499938e+03 -6.575959e+02  7.800000e+02
      vertex  -2.499938e+03 -6.836191e+02  7.800000e+02
      vertex  -1.105644e+03 -6.836191e+02  8.301491e+02
    endloop
  endfacet
  facet normal -3.528584e-02  1.905097e-01  9.810510e-01
    outer loop
      vertex  -1.105644e+03 -6.836191e+02  8.301491e+02
      vertex  -2.499938e+03 -6.836191e+02  7.800000e+02
      vertex  -1.096252e+03 -6.985621e+02  8.333887e+02
    endloop
  endfacet
  facet normal -3.800715e-02  0.000000e+00  9.992775e-01
    outer loop
      vertex  -2.499938e+03 -6.836191e+02  7.800000e+02
      vertex  -2.499938e+03 -6.985621e+02  7.800000e+02
      vertex  -1.096252e+03 -6.985621e+02  8.333887e+02
    endloop
  endfacet
  facet normal -3.682246e-02  2.477276e-01  9.681297e-01
    outer loop
      vertex  -1.096252e+03 -6.985621e+02  8.333887e+02
      vertex  -2.499938e+03 -6.985621e+02  7.800000e+02
      vertex  -1.079134e+03 -7.247399e+02  8.407382e+02
    endloop
  endfacet
  facet normal -4.271018e-02  0.000000e+00  9.990875e-01
    outer loop
      vertex  -2.499938e+03 -6.985621e+02  7.800000e+02
      vertex  -2.499938e+03 -7.247399e+02  7.800000e+02
      vertex  -1.079134e+03 -7.247399e+02  8.407382e+02
    endloop
  endfacet
  facet normal -4.247164e-02  1.055423e-01  9.935074e-01
    outer loop
      vertex  -1.079134e+03 -7.247399e+02  8.407382e+02
      vertex  -2.499938e+03 -7.247399e+02  7.800000e+02
      vertex  -1.063563e+03 -7.472993e+02  8.438004e+02
    endloop
  endfacet
  facet normal -4.437389e-02  0.000000e+00  9.990150e-01
    outer loop
      vertex  -2.499938e+03 -7.247399e+02  7.800000e+02
      vertex  -2.499938e+03 -7.472993e+02  7.800000e+02
      vertex  -1.063563e+03 -7.472993e+02  8.438004e+02
    endloop
  endfacet
  facet normal -4.430461e-02 -5.585930e-02  9.974552e-01
    outer loop
      vertex  -1.063563e+03 -7.472993e+02  8.438004e+02
      vertex  -2.499938e+03 -7.472993e+02  7.800000e+02
      vertex  -1.047321e+03 -7.700341e+02  8.432487e+02
    endloop
  endfacet
  facet normal -4.349995e-02  0.000000e+00  9.990534e-01
    outer loop
      vertex  -2.499938e+03 -7.472993e+02  7.800000e+02
      vertex  -2.499938e+03 -7.700341e+02  7.800000e+02
      vertex  -1.047321e+03 -7.700341e+02  8.432487e+02
    endloop
  endfacet
  facet normal -4.254290e-02 -2.086110e-01  9.770730e-01
    outer loop
      vertex  -1.047321e+03 -7.700341e+02  8.432487e+02
      vertex  -2.499938e+03 -7.700341e+02  7.800000e+02
      vertex  -1.031433e+03 -7.912382e+02  8.394132e+02
    endloop
  endfacet
  facet normal -4.042522e-02  0.000000e+00  9.991826e-01
    outer loop
      vertex  -2.499938e+03 -7.700341e+02  7.800000e+02
      vertex  -2.499938e+03 -7.912382e+02  7.800000e+02
      vertex  -1.031433e+03 -7.912382e+02  8.394132e+02
    endloop
  endfacet
  facet normal -3.786514e-02 -3.502097e-01  9.359057e-01
    outer loop
      vertex  -1.031433e+03 -7.912382e+02  8.394132e+02
      vertex  -2.499938e+03 -7.912382e+02  7.800000e+02
      vertex  -1.019870e+03 -8.060779e+02  8.343281e+02
    endloop
  endfacet
  facet normal -3.668180e-02  0.000000e+00  9.993270e-01
    outer loop
      vertex  -2.499938e+03 -7.912382e+02  7.800000e+02
      vertex  -2.499938e+03 -8.060779e+02  7.800000e+02
      vertex  -1.019870e+03 -8.060779e+02  8.343281e+02
    endloop
  endfacet
  facet normal -3.183303e-02 -4.968866e-01  8.672314e-01
    outer loop
      vertex  -1.019870e+03 -8.060779e+02  8.343281e+02
      vertex  -2.499938e+03 -8.060779e+02  7.800000e+02
      vertex  -1.005985e+03 -8.233180e+02  8.249600e+02
    endloop
  endfacet
  facet normal -3.008100e-02  0.000000e+00  9.995475e-01
    outer loop
      vertex  -2.499938e+03 -8.060779e+02  7.800000e+02
      vertex  -2.499938e+03 -8.233180e+02  7.800000e+02
      vertex  -1.005985e+03 -8.233180e+02  8.249600e+02
    endloop
  endfacet
  facet normal -2.548033e-02 -5.315017e-01  8.466739e-01
    outer loop
      vertex  -1.005985e+03 -8.233180e+02  8.249600e+02
      vertex  -2.499938e+03 -8.233180e+02  7.800000e+02
      vertex  -9.943680e+02 -8.373528e+02  8.164991e+02
    endloop
  endfacet
  facet normal -2.423562e-02  0.000000e+00  9.997063e-01
    outer loop
      vertex  -2.499938e+03 -8.233180e+02  7.800000e+02
      vertex  -2.499938e+03 -8.373528e+02  7.800000e+02
      vertex  -9.943680e+02 -8.373528e+02  8.164991e+02
    endloop
  endfacet
  facet normal -2.072843e-02 -5.181534e-01  8.550365e-01
    outer loop
      vertex  -9.943680e+02 -8.373528e+02  8.164991e+02
      vertex  -2.499938e+03 -8.373528e+02  7.800000e+02
      vertex  -9.763250e+02 -8.583009e+02  8.042420e+02
    endloop
  endfacet
  facet normal -1.590885e-02  0.000000e+00  9.998735e-01
    outer loop
      vertex  -2.499938e+03 -8.373528e+02  7.800000e+02
      vertex  -2.499938e+03 -8.583009e+02  7.800000e+02
      vertex  -9.763250e+02 -8.583009e+02  8.042420e+02
    endloop
  endfacet
  facet normal -1.472467e-02 -3.785899e-01  9.254474e-01
    outer loop
      vertex  -9.763250e+02 -8.583009e+02  8.042420e+02
      vertex  -2.499938e+03 -8.583009e+02  7.800000e+02
      vertex  -9.563933e+02 -8.817697e+02  7.949583e+02
    endloop
  endfacet
  facet normal -9.690428e-03  0.000000e+00  9.999530e-01
    outer loop
      vertex  -2.499938e+03 -8.583009e+02  7.800000e+02
      vertex  -2.499938e+03 -8.817697e+02  7.800000e+02
      vertex  -9.563933e+02 -8.817697e+02  7.949583e+02
    endloop
  endfacet
  facet normal -9.519539e-03 -1.869721e-01  9.823191e-01
    outer loop
      vertex  -9.563933e+02 -8.817697e+02  7.949583e+02
      vertex  -2.499938e+03 -8.817697e+02  7.800000e+02
      vertex  -9.370558e+02 -9.051584e+02  7.906940e+02
    endloop
  endfacet
  facet normal -6.842305e-03  0.000000e+00  9.999766e-01
    outer loop
      vertex  -2.499938e+03 -8.817697e+02  7.800000e+02
      vertex  -2.499938e+03 -9.051584e+02  7.800000e+02
      vertex  -9.370558e+02 -9.051584e+02  7.906940e+02
    endloop
  endfacet
  facet normal -6.842305e-03 -2.728131e-04  9.999766e-01
    outer loop
      vertex  -9.370558e+02 -9.051584e+02  7.906940e+02
      vertex  -2.499938e+03 -9.051584e+02  7.800000e+02
      vertex  -9.153821e+02 -9.265833e+02  7.908364e+02
    endloop
  endfacet
  facet normal -6.838617e-03  0.000000e+00  9.999766e-01
    outer loop
      vertex  -2.499938e+03 -9.051584e+02  7.800000e+02
      vertex  -2.499938e+03 -9.265833e+02  7.800000e+02
      vertex  -9.153821e+02 -9.265833e+02  7.908364e+02
    endloop
  endfacet
  facet normal -6.805496e-03  9.830026e-02  9.951335e-01
    outer loop
      vertex  -9.153821e+02 -9.265833e+02  7.908364e+02
      vertex  -2.499938e+03 -9.265833e+02  7.800000e+02
      vertex  -9.030172e+02 -9.371902e+02  7.919688e+02
    endloop
  endfacet
  facet normal -7.494681e-03  0.000000e+00  9.999719e-01
    outer loop
      vertex  -2.499938e+03 -9.265833e+02  7.800000e+02
      vertex  -2.499938e+03 -9.371902e+02  7.800000e+02
      vertex  -9.030172e+02 -9.371902e+02  7.919688e+02
    endloop
  endfacet
  facet normal -7.449619e-03  1.094943e-01  9.939595e-01
    outer loop
      vertex  -9.030172e+02 -9.371902e+02  7.919688e+02
      vertex  -2.499938e+03 -9.371902e+02  7.800000e+02
      vertex  -8.889085e+02 -9.492618e+02  7.934043e+02
    endloop
  endfacet
  facet normal -8.320041e-03  0.000000e+00  9.999654e-01
    outer loop
      vertex  -2.499938e+03 -9.371902e+02  7.800000e+02
      vertex  -2.499938e+03 -9.492618e+02  7.800000e+02
      vertex  -8.889085e+02 -9.492618e+02  7.934043e+02
    endloop
  endfacet
  facet normal -8.270414e-03  1.090593e-01  9.940009e-01
    outer loop
      vertex  -8.889085e+02 -9.492618e+02  7.934043e+02
      vertex  -2.499938e+03 -9.492618e+02  7.800000e+02
      vertex  -8.657575e+02 -9.697134e+02  7.958408e+02
    endloop
  endfacet
  facet normal -9.692977e-03  0.000000e+00  9.999530e-01
    outer loop
      vertex  -2.499938e+03 -9.492618e+02  7.800000e+02
      vertex  -2.499938e+03 -9.697134e+02  7.800000e+02
      vertex  -8.657575e+02 -9.697134e+02  7.958408e+02
    endloop
  endfacet
  facet normal -9.662145e-03  7.969736e-02  9.967723e-01
    outer loop
      vertex  -8.657575e+02 -9.697134e+02  7.958408e+02
      vertex  -2.499938e+03 -9.697134e+02  7.800000e+02
      vertex  -8.439503e+02 -9.887178e+02  7.975717e+02
    endloop
  endfacet
  facet normal -1.061042e-02  0.000000e+00  9.999437e-01
    outer loop
      vertex  -2.499938e+03 -9.697134e+02  7.800000e+02
      vertex  -2.499938e+03 -9.887178e+02  7.800000e+02
      vertex  -8.439503e+02 -9.887178e+02  7.975717e+02
    endloop
  endfacet
  facet normal -1.058787e-02 -6.516854e-02  9.978181e-01
    outer loop
      vertex  -8.439503e+02 -9.887178e+02  7.975717e+02
      vertex  -2.499938e+03 -9.887178e+02  7.800000e+02
      vertex  -8.203727e+02 -1.008406e+03  7.965361e+02
    endloop
  endfacet
  facet normal -9.844969e-03  0.000000e+00  9.999515e-01
    outer loop
      vertex  -2.499938e+03 -9.887178e+02  7.800000e+02
      vertex  -2.499938e+03 -1.008406e+03  7.800000e+02
      vertex  -8.203727e+02 -1.008406e+03  7.965361e+02
    endloop
  endfacet
  facet normal -9.838521e-03  3.618645e-02  9.992966e-01
    outer loop
      vertex  -8.203727e+02 -1.008406e+03  7.965361e+02
      vertex  -2.499938e+03 -1.008406e+03  7.800000e+02
      vertex  -8.001342e+02 -1.024452e+03  7.973164e+02
    endloop
  endfacet
  facet normal -1.018677e-02  0.000000e+00  9.999481e-01
    outer loop
      vertex  -2.499938e+03 -1.008406e+03  7.800000e+02
      vertex  -2.499938e+03 -1.024452e+03  7.800000e+02
      vertex  -8.001342e+02 -1.024452e+03  7.973164e+02
    endloop
  endfacet
  facet normal -9.820396e-03  2.657765e-01  9.639847e-01
    outer loop
      vertex  -8.001342e+02 -1.024452e+03  7.973164e+02
      vertex  -2.499938e+03 -1.024452e+03  7.800000e+02
      vertex  -7.760139e+02 -1.042880e+03  8.026427e+02
    endloop
  endfacet
  facet normal -1.313326e-02  0.000000e+00  9.999138e-01
    outer loop
      vertex  -2.499938e+03 -1.024452e+03  7.800000e+02
      vertex  -2.499938e+03 -1.042880e+03  7.800000e+02
      vertex  -7.760139e+02 -1.042880e+03  8.026427e+02
    endloop
  endfacet
  facet normal -1.181239e-02  4.370746e-01  8.993477e-01
    outer loop
      vertex  -7.760139e+02 -1.042880e+03  8.026427e+02
      vertex  -2.499938e+03 -1.042880e+03  7.800000e+02
      vertex  -7.608422e+02 -1.054024e+03  8.082578e+02
    endloop
  endfacet
  facet normal -1.624642e-02  0.000000e+00  9.998680e-01
    outer loop
      vertex  -2.499938e+03 -1.042880e+03  7.800000e+02
      vertex  -2.499938e+03 -1.054024e+03  7.800000e+02
      vertex  -7.608422e+02 -1.054024e+03  8.082578e+02
    endloop
  endfacet
  facet normal -1.373416e-02  5.341887e-01  8.452537e-01
    outer loop
      vertex  -7.608422e+02 -1.054024e+03  8.082578e+02
      vertex  -2.499938e+03 -1.054024e+03  7.800000e+02
      vertex  -7.475632e+02 -1.063478e+03  8.144487e+02
    endloop
  endfacet
  facet normal -1.965448e-02  0.000000e+00  9.998068e-01
    outer loop
      vertex  -2.499938e+03 -1.054024e+03  7.800000e+02
      vertex  -2.499938e+03 -1.063478e+03  7.800000e+02
      vertex  -7.475632e+02 -1.063478e+03  8.144487e+02
    endloop
  endfacet
  facet normal -1.549982e-02  6.148867e-01  7.884631e-01
    outer loop
      vertex  -7.475632e+02 -1.063478e+03  8.144487e+02
      vertex  -2.499938e+03 -1.063478e+03  7.800000e+02
      vertex  -7.284594e+02 -1.076667e+03  8.251093e+02
    endloop
  endfacet
  facet normal -2.545596e-02  0.000000e+00  9.996759e-01
    outer loop
      vertex  -2.499938e+03 -1.063478e+03  7.800000e+02
      vertex  -2.499938e+03 -1.076667e+03  7.800000e+02
      vertex  -7.284594e+02 -1.076667e+03  8.251093e+02
    endloop
  endfacet
  facet normal -1.907323e-02  6.622716e-01  7.490211e-01
    outer loop
      vertex  -7.284594e+02 -1.076667e+03  8.251093e+02
      vertex  -2.499938e+03 -1.076667e+03  7.800000e+02
      vertex  -7.104276e+02 -1.088664e+03  8.361765e+02
    endloop
  endfacet
  facet normal -3.137665e-02  0.000000e+00  9.995076e-01
    outer loop
      vertex  -2.499938e+03 -1.076667e+03  7.800000e+02
      vertex  -2.499938e+03 -1.088664e+03  7.800000e+02
      vertex  -7.104276e+02 -1.088664e+03  8.361765e+02
    endloop
  endfacet
  facet normal -2.632469e-02  5.441471e-01  8.385767e-01
    outer loop
      vertex  -7.104276e+02 -1.088664e+03  8.361765e+02
      vertex  -2.499938e+03 -1.088664e+03  7.800000e+02
      vertex  -6.888330e+02 -1.102451e+03  8.458008e+02
    endloop
  endfacet
  facet normal -3.630788e-02  0.000000e+00  9.993407e-01
    outer loop
      vertex  -2.499938e+03 -1.088664e+03  7.800000e+02
      vertex  -2.499938e+03 -1.102451e+03  7.800000e+02
      vertex  -6.888330e+02 -1.102451e+03  8.458008e+02
    endloop
  endfacet
  facet normal -3.434461e-02  3.243792e-01  9.453034e-01
    outer loop
      vertex  -6.888330e+02 -1.102451e+03  8.458008e+02
      vertex  -2.499938e+03 -1.102451e+03  7.800000e+02
      vertex  -6.689009e+02 -1.114616e+03  8.506993e+02
    endloop
  endfacet
  facet normal -3.858285e-02  0.000000e+00  9.992554e-01
    outer loop
      vertex  -2.499938e+03 -1.102451e+03  7.800000e+02
      vertex  -2.499938e+03 -1.114616e+03  7.800000e+02
      vertex  -6.689009e+02 -1.114616e+03  8.506993e+02
    endloop
  endfacet
  facet normal -3.857437e-02  2.096844e-02  9.990357e-01
    outer loop
      vertex  -6.689009e+02 -1.114616e+03  8.506993e+02
      vertex  -2.499938e+03 -1.114616e+03  7.800000e+02
      vertex  -6.429431e+02 -1.129760e+03  8.520194e+02
    endloop
  endfacet
  facet normal -3.875363e-02  0.000000e+00  9.992488e-01
    outer loop
      vertex  -2.499938e+03 -1.114616e+03  7.800000e+02
      vertex  -2.499938e+03 -1.129760e+03  7.800000e+02
      vertex  -6.429431e+02 -1.129760e+03  8.520194e+02
    endloop
  endfacet
  facet normal -3.677341e-02 -3.155705e-01  9.481893e-01
    outer loop
      vertex  -6.429431e+02 -1.129760e+03  8.520194e+02
      vertex  -2.499938e+03 -1.129760e+03  7.800000e+02
      vertex  -6.178373e+02 -1.143706e+03  8.483517e+02
    endloop
  endfacet
  facet normal -3.629277e-02  0.000000e+00  9.993412e-01
    outer loop
      vertex  -2.499938e+03 -1.129760e+03  7.800000e+02
      vertex  -2.499938e+03 -1.143706e+03  7.800000e+02
      vertex  -6.178373e+02 -1.143706e+03  8.483517e+02
    endloop
  endfacet
  facet normal -3.078216e-02 -5.297362e-01  8.476037e-01
    outer loop
      vertex  -6.178373e+02 -1.143706e+03  8.483517e+02
      vertex  -2.499938e+03 -1.143706e+03  7.800000e+02
      vertex  -6.021403e+02 -1.152001e+03  8.437374e+02
    endloop
  endfacet
  facet normal -3.356601e-02  0.000000e+00  9.994365e-01
    outer loop
      vertex  -2.499938e+03 -1.143706e+03  7.800000e+02
      vertex  -2.499938e+03 -1.152001e+03  7.800000e+02
      vertex  -6.021403e+02 -1.152001e+03  8.437374e+02
    endloop
  endfacet
  facet normal -2.672249e-02 -6.051422e-01  7.956688e-01
    outer loop
      vertex  -6.021403e+02 -1.152001e+03  8.437374e+02
      vertex  -2.499938e+03 -1.152001e+03  7.800000e+02
      vertex  -5.809918e+02 -1.162903e+03  8.361562e+02
    endloop
  endfacet
  facet normal -2.925158e-02  0.000000e+00  9.995721e-01
    outer loop
      vertex  -2.499938e+03 -1.152001e+03  7.800000e+02
      vertex  -2.499938e+03 -1.162903e+03  7.800000e+02
      vertex  -5.809918e+02 -1.162903e+03  8.361562e+02
    endloop
  endfacet
  facet normal -2.233894e-02 -6.455914e-01  7.633562e-01
    outer loop
      vertex  -5.809918e+02 -1.162903e+03  8.361562e+02
      vertex  -2.499938e+03 -1.162903e+03  7.800000e+02
      vertex  -5.576520e+02 -1.174241e+03  8.272509e+02
    endloop
  endfacet
  facet normal -2.432028e-02  0.000000e+00  9.997042e-01
    outer loop
      vertex  -2.499938e+03 -1.162903e+03  7.800000e+02
      vertex  -2.499938e+03 -1.174241e+03  7.800000e+02
      vertex  -5.576520e+02 -1.174241e+03  8.272509e+02
    endloop
  endfacet
  facet normal -1.936633e-02 -6.048967e-01  7.960684e-01
    outer loop
      vertex  -5.576520e+02 -1.174241e+03  8.272509e+02
      vertex  -2.499938e+03 -1.174241e+03  7.800000e+02
      vertex  -5.302556e+02 -1.186861e+03  8.183281e+02
    endloop
  endfacet
  facet normal -1.945535e-02  0.000000e+00  9.998108e-01
    outer loop
      vertex  -2.499938e+03 -1.174241e+03  7.800000e+02
      vertex  -2.499938e+03 -1.186861e+03  7.800000e+02
      vertex  -5.302556e+02 -1.186861e+03  8.183281e+02
    endloop
  endfacet
  facet normal -1.812924e-02 -3.628749e-01  9.316615e-01
    outer loop
      vertex  -5.302556e+02 -1.186861e+03  8.183281e+02
      vertex  -2.499938e+03 -1.186861e+03  7.800000e+02
      vertex  -5.048784e+02 -1.197877e+03  8.145312e+02
    endloop
  endfacet
  facet normal -1.730579e-02  0.000000e+00  9.998503e-01
    outer loop
      vertex  -2.499938e+03 -1.186861e+03  7.800000e+02
      vertex  -2.499938e+03 -1.197877e+03  7.800000e+02
      vertex  -5.048784e+02 -1.197877e+03  8.145312e+02
    endloop
  endfacet
  facet normal -1.710211e-02 -1.529705e-01  9.880828e-01
    outer loop
      vertex  -5.048784e+02 -1.197877e+03  8.145312e+02
      vertex  -2.499938e+03 -1.197877e+03  7.800000e+02
      vertex  -4.857325e+02 -1.205792e+03  8.136372e+02
    endloop
  endfacet
  facet normal -1.669766e-02  0.000000e+00  9.998606e-01
    outer loop
      vertex  -2.499938e+03 -1.197877e+03  7.800000e+02
      vertex  -2.499938e+03 -1.205792e+03  7.800000e+02
      vertex  -4.857325e+02 -1.205792e+03  8.136372e+02
    endloop
  endfacet
  facet normal -1.581319e-02 -3.211446e-01  9.468982e-01
    outer loop
      vertex  -4.857325e+02 -1.205792e+03  8.136372e+02
      vertex  -2.499938e+03 -1.205792e+03  7.800000e+02
      vertex  -4.671562e+02 -1.213045e+03  8.114876e+02
    endloop
  endfacet
  facet normal -1.548805e-02  0.000000e+00  9.998801e-01
    outer loop
      vertex  -2.499938e+03 -1.205792e+03  7.800000e+02
      vertex  -2.499938e+03 -1.213045e+03  7.800000e+02
      vertex  -4.671562e+02 -1.213045e+03  8.114876e+02
    endloop
  endfacet
  facet normal -1.327653e-02 -5.149653e-01  8.571082e-01
    outer loop
      vertex  -4.671562e+02 -1.213045e+03  8.114876e+02
      vertex  -2.499938e+03 -1.213045e+03  7.800000e+02
      vertex  -4.400480e+02 -1.223211e+03  8.057994e+02
    endloop
  endfacet
  facet normal -1.252365e-02  0.000000e+00  9.999216e-01
    outer loop
      vertex  -2.499938e+03 -1.213045e+03  7.800000e+02
      vertex  -2.499938e+03 -1.223211e+03  7.800000e+02
      vertex  -4.400480e+02 -1.223211e+03  8.057994e+02
    endloop
  endfacet
  facet normal -9.264421e-03 -6.728777e-01  7.396957e-01
    outer loop
      vertex  -4.400480e+02 -1.223211e+03  8.057994e+02
      vertex  -2.499938e+03 -1.223211e+03  7.800000e+02
      vertex  -4.225859e+02 -1.229363e+03  8.004219e+02
    endloop
  endfacet
  facet normal -9.830277e-03  0.000000e+00  9.999517e-01
    outer loop
      vertex  -2.499938e+03 -1.223211e+03  7.800000e+02
      vertex  -2.499938e+03 -1.229363e+03  7.800000e+02
      vertex  -4.225859e+02 -1.229363e+03  8.004219e+02
    endloop
  endfacet
  facet normal -6.654229e-03 -7.360643e-01  6.768789e-01
    outer loop
      vertex  -4.225859e+02 -1.229363e+03  8.004219e+02
      vertex  -2.499938e+03 -1.229363e+03  7.800000e+02
      vertex  -4.020637e+02 -1.236201e+03  7.931875e+02
    endloop
  endfacet
  facet normal -6.286000e-03  0.000000e+00  9.999803e-01
    outer loop
      vertex  -2.499938e+03 -1.229363e+03  7.800000e+02
      vertex  -2.499938e+03 -1.236201e+03  7.800000e+02
      vertex  -4.020637e+02 -1.236201e+03  7.931875e+02
    endloop
  endfacet
  facet normal -4.334137e-03 -7.242948e-01  6.894768e-01
    outer loop
      vertex  -4.020637e+02 -1.236201e+03  7.931875e+02
      vertex  -2.499938e+03 -1.236201e+03  7.800000e+02
      vertex  -3.820500e+02 -1.242543e+03  7.866510e+02
    endloop
  endfacet
  facet normal -3.140377e-03  0.000000e+00  9.999951e-01
    outer loop
      vertex  -2.499938e+03 -1.236201e+03  7.800000e+02
      vertex  -2.499938e+03 -1.242543e+03  7.800000e+02
      vertex  -3.820500e+02 -1.242543e+03  7.866510e+02
    endloop
  endfacet
  facet normal -2.349654e-03 -6.634648e-01  7.482038e-01
    outer loop
      vertex  -3.820500e+02 -1.242543e+03  7.866510e+02
      vertex  -2.499938e+03 -1.242543e+03  7.800000e+02
      vertex  -3.614848e+02 -1.248672e+03  7.812812e+02
    endloop
  endfacet
  facet normal -5.991479e-04  0.000000e+00  9.999998e-01
    outer loop
      vertex  -2.499938e+03 -1.242543e+03  7.800000e+02
      vertex  -2.499938e+03 -1.248672e+03  7.800000e+02
      vertex  -3.614848e+02 -1.248672e+03  7.812812e+02
    endloop
  endfacet
  facet normal -4.742366e-04 -6.111453e-01  7.915183e-01
    outer loop
      vertex  -3.614848e+02 -1.248672e+03  7.812812e+02
      vertex  -2.499938e+03 -1.248672e+03  7.800000e+02
      vertex  -3.376208e+02 -1.255327e+03  7.761568e+02
    endloop
  endfacet
  facet normal  1.777350e-03  0.000000e+00  9.999985e-01
    outer loop
      vertex  -2.499938e+03 -1.248672e+03  7.800000e+02
      vertex  -2.499938e+03 -1.255327e+03  7.800000e+02
      vertex  -3.376208e+02 -1.255327e+03  7.761568e+02
    endloop
  endfacet
  facet normal  1.626367e-03 -4.033368e-01  9.150501e-01
    outer loop
      vertex  -3.376208e+02 -1.255327e+03  7.761568e+02
      vertex  -2.499938e+03 -1.255327e+03  7.800000e+02
      vertex  -3.083830e+02 -1.262800e+03  7.728110e+02
    endloop
  endfacet
  facet normal  3.280313e-03  0.000000e+00  9.999946e-01
    outer loop
      vertex  -2.499938e+03 -1.255327e+03  7.800000e+02
      vertex  -2.499938e+03 -1.262800e+03  7.800000e+02
      vertex  -3.083830e+02 -1.262800e+03  7.728110e+02
    endloop
  endfacet
  facet normal  3.175546e-03 -2.507118e-01  9.680566e-01
    outer loop
      vertex  -3.083830e+02 -1.262800e+03  7.728110e+02
      vertex  -2.499938e+03 -1.262800e+03  7.800000e+02
      vertex  -2.868447e+02 -1.267891e+03  7.714218e+02
    endloop
  endfacet
  facet normal  3.876077e-03  0.000000e+00  9.999925e-01
    outer loop
      vertex  -2.499938e+03 -1.262800e+03  7.800000e+02
      vertex  -2.499938e+03 -1.267891e+03  7.800000e+02
      vertex  -2.868447e+02 -1.267891e+03  7.714218e+02
    endloop
  endfacet
  facet normal  3.876077e-03  0.000000e+00  9.999925e-01
    outer loop
      vertex  -2.868447e+02 -1.267891e+03  7.714218e+02
      vertex  -2.499938e+03 -1.267891e+03  7.800000e+02
      vertex  -2.499938e+03 -1.272153e+03  7.800000e+02
    endloop
  endfacet
  facet normal  4.002465e-03 -7.065384e-02  9.974928e-01
    outer loop
      vertex  -2.868447e+02 -1.267891e+03  7.714218e+02
      vertex  -2.499938e+03 -1.272153e+03  7.800000e+02
      vertex  -2.669704e+02 -1.272153e+03  7.710402e+02
    endloop
  endfacet
  facet normal  3.959133e-03  1.625418e-01  9.866937e-01
    outer loop
      vertex  -2.669704e+02 -1.272153e+03  7.710402e+02
      vertex  -2.499938e+03 -1.272153e+03  7.800000e+02
      vertex  -2.361373e+02 -1.278290e+03  7.719273e+02
    endloop
  endfacet
  facet normal  3.565968e-03  0.000000e+00  9.999936e-01
    outer loop
      vertex  -2.499938e+03 -1.272153e+03  7.800000e+02
      vertex  -2.499938e+03 -1.278290e+03  7.800000e+02
      vertex  -2.361373e+02 -1.278290e+03  7.719273e+02
    endloop
  endfacet
  facet normal  3.292228e-03  3.842347e-01  9.232296e-01
    outer loop
      vertex  -2.361373e+02 -1.278290e+03  7.719273e+02
      vertex  -2.499938e+03 -1.278290e+03  7.800000e+02
      vertex  -2.154821e+02 -1.281911e+03  7.733606e+02
    endloop
  endfacet
  facet normal  2.906327e-03  0.000000e+00  9.999958e-01
    outer loop
      vertex  -2.499938e+03 -1.278290e+03  7.800000e+02
      vertex  -2.499938e+03 -1.281911e+03  7.800000e+02
      vertex  -2.154821e+02 -1.281911e+03  7.733606e+02
    endloop
  endfacet
  facet normal  2.480583e-03  5.210745e-01  8.535076e-01
    outer loop
      vertex  -2.154821e+02 -1.281911e+03  7.733606e+02
      vertex  -2.499938e+03 -1.281911e+03  7.800000e+02
      vertex  -1.872105e+02 -1.286341e+03  7.759831e+02
    endloop
  endfacet
  facet normal  1.736867e-03  0.000000e+00  9.999985e-01
    outer loop
      vertex  -2.499938e+03 -1.281911e+03  7.800000e+02
      vertex  -2.499938e+03 -1.286341e+03  7.800000e+02
      vertex  -1.872105e+02 -1.286341e+03  7.759831e+02
    endloop
  endfacet
  facet normal  1.482380e-03  5.211272e-01  8.534778e-01
    outer loop
      vertex  -1.872105e+02 -1.286341e+03  7.759831e+02
      vertex  -2.499938e+03 -1.286341e+03  7.800000e+02
      vertex  -1.658534e+02 -1.289299e+03  7.777521e+02
    endloop
  endfacet
  facet normal  9.630595e-04  0.000000e+00  9.999995e-01
    outer loop
      vertex  -2.499938e+03 -1.286341e+03  7.800000e+02
      vertex  -2.499938e+03 -1.289299e+03  7.800000e+02
      vertex  -1.658534e+02 -1.289299e+03  7.777521e+02
    endloop
  endfacet
  facet normal  9.630595e-04  0.000000e+00  9.999995e-01
    outer loop
      vertex  -1.658534e+02 -1.289299e+03  7.777521e+02
      vertex  -2.499938e+03 -1.289299e+03  7.800000e+02
      vertex  -2.499938e+03 -1.292600e+03  7.800000e+02
    endloop
  endfacet
  facet normal  9.630595e-04  0.000000e+00  9.999995e-01
    outer loop
      vertex  -1.658534e+02 -1.289299e+03  7.777521e+02
      vertex  -2.499938e+03 -1.292600e+03  7.800000e+02
      vertex  -2.499938e+03 -1.294904e+03  7.800000e+02
    endloop
  endfacet
  facet normal  3.546517e-04  2.414709e-01  9.704080e-01
    outer loop
      vertex  -1.376372e+02 -1.292600e+03  7.785634e+02
      vertex  -1.658534e+02 -1.289299e+03  7.777521e+02
      vertex  -2.499938e+03 -1.294904e+03  7.800000e+02
    endloop
  endfacet
  facet normal  7.040170e-04 -1.015107e-01  9.948342e-01
    outer loop
      vertex  -1.376372e+02 -1.292600e+03  7.785634e+02
      vertex  -2.499938e+03 -1.294904e+03  7.800000e+02
      vertex  -1.144989e+02 -1.294904e+03  7.783119e+02
    endloop
  endfacet
  facet normal  4.580901e-04 -7.622189e-01  6.473192e-01
    outer loop
      vertex  -1.144989e+02 -1.294904e+03  7.783119e+02
      vertex  -2.499938e+03 -1.294904e+03  7.800000e+02
      vertex  -8.275910e+01 -1.297291e+03  7.754791e+02
    endloop
  endfacet
  facet normal  1.870332e-03  0.000000e+00  9.999983e-01
    outer loop
      vertex  -2.499938e+03 -1.294904e+03  7.800000e+02
      vertex  -2.499938e+03 -1.297291e+03  7.800000e+02
      vertex  -8.275910e+01 -1.297291e+03  7.754791e+02
    endloop
  endfacet
  facet normal  8.490476e-04 -8.910243e-01  4.539548e-01
    outer loop
      vertex  -8.275910e+01 -1.297291e+03  7.754791e+02
      vertex  -2.499938e+03 -1.297291e+03  7.800000e+02
      vertex  -6.293434e+01 -1.298365e+03  7.733340e+02
    endloop
  endfacet
  facet normal  2.735322e-03  0.000000e+00  9.999962e-01
    outer loop
      vertex  -2.499938e+03 -1.297291e+03  7.800000e+02
      vertex  -2.499938e+03 -1.298365e+03  7.800000e+02
      vertex  -6.293434e+01 -1.298365e+03  7.733340e+02
    endloop
  endfacet
  facet normal  1.557769e-03 -8.219905e-01  5.694990e-01
    outer loop
      vertex  -6.293434e+01 -1.298365e+03  7.733340e+02
      vertex  -2.499938e+03 -1.298365e+03  7.800000e+02
      vertex  -4.218269e+01 -1.299226e+03  7.720345e+02
    endloop
  endfacet
  facet normal  3.240929e-03  0.000000e+00  9.999948e-01
    outer loop
      vertex  -2.499938e+03 -1.298365e+03  7.800000e+02
      vertex  -2.499938e+03 -1.299226e+03  7.800000e+02
      vertex  -4.218269e+01 -1.299226e+03  7.720345e+02
    endloop
  endfacet
  facet normal  1.184690e-03  9.307955e-01  3.655384e-01
    outer loop
      vertex  -4.218269e+01 -1.299226e+03  7.720345e+02
      vertex  -2.499938e+03 -1.299226e+03  7.800000e+02
      vertex  -1.016420e+01 -1.299917e+03  7.736910e+02
    endloop
  endfacet
  facet normal  2.533941e-03  0.000000e+00  9.999968e-01
    outer loop
      vertex  -2.499938e+03 -1.299226e+03  7.800000e+02
      vertex  -2.499938e+03 -1.299917e+03  7.800000e+02
      vertex  -1.016420e+01 -1.299917e+03  7.736910e+02
    endloop
  endfacet
endsolid vcg
