solid STL generated by MeshLab
  facet normal -1.051215e-04 -9.959580e-01  8.982012e-02
    outer loop
      vertex   1.388821e+01 -1.299863e+03  7.770905e+02
      vertex   2.499924e+03 -1.299863e+03  7.800000e+02
      vertex   3.302383e+01 -1.299546e+03  7.806213e+02
    endloop
  endfacet
  facet normal  2.518451e-04 -0.000000e+00  9.999999e-01
    outer loop
      vertex   2.499924e+03 -1.299863e+03  7.800000e+02
      vertex   2.499924e+03 -1.299546e+03  7.800000e+02
      vertex   3.302383e+01 -1.299546e+03  7.806213e+02
    endloop
  endfacet
  facet normal  3.290417e-05 -9.914283e-01  1.306524e-01
    outer loop
      vertex   3.302383e+01 -1.299546e+03  7.806213e+02
      vertex   2.499924e+03 -1.299546e+03  7.800000e+02
      vertex   5.420657e+01 -1.298813e+03  7.861840e+02
    endloop
  endfacet
  facet normal  2.528477e-03 -0.000000e+00  9.999968e-01
    outer loop
      vertex   2.499924e+03 -1.299546e+03  7.800000e+02
      vertex   2.499924e+03 -1.298813e+03  7.800000e+02
      vertex   5.420657e+01 -1.298813e+03  7.861840e+02
    endloop
  endfacet
  facet normal  4.527015e-04 -9.838416e-01  1.790406e-01
    outer loop
      vertex   5.420657e+01 -1.298813e+03  7.861840e+02
      vertex   2.499924e+03 -1.298813e+03  7.800000e+02
      vertex   7.547087e+01 -1.297696e+03  7.922645e+02
    endloop
  endfacet
  facet normal  5.058612e-03 -0.000000e+00  9.999872e-01
    outer loop
      vertex   2.499924e+03 -1.298813e+03  7.800000e+02
      vertex   2.499924e+03 -1.297696e+03  7.800000e+02
      vertex   7.547087e+01 -1.297696e+03  7.922645e+02
    endloop
  endfacet
  facet normal  1.248612e-03 -9.690591e-01  2.468258e-01
    outer loop
      vertex   7.547087e+01 -1.297696e+03  7.922645e+02
      vertex   2.499924e+03 -1.297696e+03  7.800000e+02
      vertex   1.013250e+02 -1.295967e+03  7.989229e+02
    endloop
  endfacet
  facet normal  7.888906e-03 -0.000000e+00  9.999689e-01
    outer loop
      vertex   2.499924e+03 -1.297696e+03  7.800000e+02
      vertex   2.499924e+03 -1.295967e+03  7.800000e+02
      vertex   1.013250e+02 -1.295967e+03  7.989229e+02
    endloop
  endfacet
  facet normal  5.661195e-03 -6.964403e-01  7.175924e-01
    outer loop
      vertex   1.013250e+02 -1.295967e+03  7.989229e+02
      vertex   2.499924e+03 -1.295967e+03  7.800000e+02
      vertex   1.327116e+02 -1.293093e+03  8.014648e+02
    endloop
  endfacet
  facet normal  9.067187e-03 -0.000000e+00  9.999589e-01
    outer loop
      vertex   2.499924e+03 -1.295967e+03  7.800000e+02
      vertex   2.499924e+03 -1.293093e+03  7.800000e+02
      vertex   1.327116e+02 -1.293093e+03  8.014648e+02
    endloop
  endfacet
  facet normal  8.075099e-03  4.548174e-01  8.905481e-01
    outer loop
      vertex   1.327116e+02 -1.293093e+03  8.014648e+02
      vertex   2.499924e+03 -1.293093e+03  7.800000e+02
      vertex   1.580877e+02 -1.290228e+03  7.997715e+02
    endloop
  endfacet
  facet normal  8.442425e-03 -0.000000e+00  9.999644e-01
    outer loop
      vertex   2.499924e+03 -1.293093e+03  7.800000e+02
      vertex   2.499924e+03 -1.290228e+03  7.800000e+02
      vertex   1.580877e+02 -1.290228e+03  7.997715e+02
    endloop
  endfacet
  facet normal  6.579130e-03  6.266586e-01  7.792662e-01
    outer loop
      vertex   1.580877e+02 -1.290228e+03  7.997715e+02
      vertex   2.499924e+03 -1.290228e+03  7.800000e+02
      vertex   1.835512e+02 -1.286922e+03  7.968985e+02
    endloop
  endfacet
  facet normal  7.295046e-03 -0.000000e+00  9.999734e-01
    outer loop
      vertex   2.499924e+03 -1.290228e+03  7.800000e+02
      vertex   2.499924e+03 -1.286922e+03  7.800000e+02
      vertex   1.835512e+02 -1.286922e+03  7.968985e+02
    endloop
  endfacet
  facet normal  4.424622e-03  7.950650e-01  6.065080e-01
    outer loop
      vertex   1.835512e+02 -1.286922e+03  7.968985e+02
      vertex   2.499924e+03 -1.286922e+03  7.800000e+02
      vertex   2.029332e+02 -1.283984e+03  7.929059e+02
    endloop
  endfacet
  facet normal  5.618515e-03 -0.000000e+00  9.999842e-01
    outer loop
      vertex   2.499924e+03 -1.286922e+03  7.800000e+02
      vertex   2.499924e+03 -1.283984e+03  7.800000e+02
      vertex   2.029332e+02 -1.283984e+03  7.929059e+02
    endloop
  endfacet
  facet normal  2.809989e-03  8.659502e-01  5.001222e-01
    outer loop
      vertex   2.029332e+02 -1.283984e+03  7.929059e+02
      vertex   2.499924e+03 -1.283984e+03  7.800000e+02
      vertex   2.270393e+02 -1.279926e+03  7.857437e+02
    endloop
  endfacet
  facet normal  2.527050e-03 -0.000000e+00  9.999968e-01
    outer loop
      vertex   2.499924e+03 -1.283984e+03  7.800000e+02
      vertex   2.499924e+03 -1.279926e+03  7.800000e+02
      vertex   2.270393e+02 -1.279926e+03  7.857437e+02
    endloop
  endfacet
  facet normal  1.205513e-03  8.788796e-01  4.770421e-01
    outer loop
      vertex   2.270393e+02 -1.279926e+03  7.857437e+02
      vertex   2.499924e+03 -1.279926e+03  7.800000e+02
      vertex   2.459818e+02 -1.276470e+03  7.793281e+02
    endloop
  endfacet
  facet normal -2.980888e-04  0.000000e+00  9.999999e-01
    outer loop
      vertex   2.499924e+03 -1.279926e+03  7.800000e+02
      vertex   2.499924e+03 -1.276470e+03  7.800000e+02
      vertex   2.459818e+02 -1.276470e+03  7.793281e+02
    endloop
  endfacet
  facet normal -1.751270e-04  8.092244e-01  5.874996e-01
    outer loop
      vertex   2.459818e+02 -1.276470e+03  7.793281e+02
      vertex   2.499924e+03 -1.276470e+03  7.800000e+02
      vertex   2.685891e+02 -1.271896e+03  7.730352e+02
    endloop
  endfacet
  facet normal -3.121364e-03  0.000000e+00  9.999951e-01
    outer loop
      vertex   2.499924e+03 -1.276470e+03  7.800000e+02
      vertex   2.499924e+03 -1.271896e+03  7.800000e+02
      vertex   2.685891e+02 -1.271896e+03  7.730352e+02
    endloop
  endfacet
  facet normal -2.809518e-03  4.356977e-01  9.000887e-01
    outer loop
      vertex   2.685891e+02 -1.271896e+03  7.730352e+02
      vertex   2.499924e+03 -1.271896e+03  7.800000e+02
      vertex   2.917978e+02 -1.266711e+03  7.705977e+02
    endloop
  endfacet
  facet normal -4.663166e-03  0.000000e+00  9.999892e-01
    outer loop
      vertex   2.499924e+03 -1.271896e+03  7.800000e+02
      vertex   2.499924e+03 -1.266711e+03  7.800000e+02
      vertex   3.060590e+02 -1.263376e+03  7.697695e+02
    endloop
  endfacet
  facet normal -3.518075e-03  2.551143e-01  9.669045e-01
    outer loop
      vertex   2.917978e+02 -1.266711e+03  7.705977e+02
      vertex   2.499924e+03 -1.271896e+03  7.800000e+02
      vertex   3.060590e+02 -1.263376e+03  7.697695e+02
    endloop
  endfacet
  facet normal -4.663166e-03  0.000000e+00  9.999892e-01
    outer loop
      vertex   2.499924e+03 -1.266711e+03  7.800000e+02
      vertex   2.499924e+03 -1.263376e+03  7.800000e+02
      vertex   3.060590e+02 -1.263376e+03  7.697695e+02
    endloop
  endfacet
  facet normal -4.570759e-03  1.980903e-01  9.801731e-01
    outer loop
      vertex   3.060590e+02 -1.263376e+03  7.697695e+02
      vertex   2.499924e+03 -1.263376e+03  7.800000e+02
      vertex   3.302606e+02 -1.257245e+03  7.686434e+02
    endloop
  endfacet
  facet normal -5.234180e-03  0.000000e+00  9.999863e-01
    outer loop
      vertex   2.499924e+03 -1.263376e+03  7.800000e+02
      vertex   2.499924e+03 -1.257245e+03  7.800000e+02
      vertex   3.302606e+02 -1.257245e+03  7.686434e+02
    endloop
  endfacet
  facet normal -5.135503e-03  1.932611e-01  9.811339e-01
    outer loop
      vertex   3.302606e+02 -1.257245e+03  7.686434e+02
      vertex   2.499924e+03 -1.257245e+03  7.800000e+02
      vertex   3.522889e+02 -1.251267e+03  7.675811e+02
    endloop
  endfacet
  facet normal -5.782517e-03  0.000000e+00  9.999833e-01
    outer loop
      vertex   2.499924e+03 -1.257245e+03  7.800000e+02
      vertex   2.499924e+03 -1.251267e+03  7.800000e+02
      vertex   3.522889e+02 -1.251267e+03  7.675811e+02
    endloop
  endfacet
  facet normal -5.679586e-03  1.878398e-01  9.821833e-01
    outer loop
      vertex   3.522889e+02 -1.251267e+03  7.675811e+02
      vertex   2.499924e+03 -1.251267e+03  7.800000e+02
      vertex   3.755049e+02 -1.244488e+03  7.664189e+02
    endloop
  endfacet
  facet normal -6.392701e-03  0.000000e+00  9.999796e-01
    outer loop
      vertex   2.499924e+03 -1.251267e+03  7.800000e+02
      vertex   2.499924e+03 -1.244488e+03  7.800000e+02
      vertex   3.755049e+02 -1.244488e+03  7.664189e+02
    endloop
  endfacet
  facet normal -6.377139e-03  6.973223e-02  9.975454e-01
    outer loop
      vertex   3.755049e+02 -1.244488e+03  7.664189e+02
      vertex   2.499924e+03 -1.244488e+03  7.800000e+02
      vertex   3.995878e+02 -1.236963e+03  7.660469e+02
    endloop
  endfacet
  facet normal -6.643134e-03  0.000000e+00  9.999779e-01
    outer loop
      vertex   2.499924e+03 -1.244488e+03  7.800000e+02
      vertex   2.499924e+03 -1.236963e+03  7.800000e+02
      vertex   3.995878e+02 -1.236963e+03  7.660469e+02
    endloop
  endfacet
  facet normal -6.615562e-03 -9.101422e-02  9.958276e-01
    outer loop
      vertex   3.995878e+02 -1.236963e+03  7.660469e+02
      vertex   2.499924e+03 -1.236963e+03  7.800000e+02
      vertex   4.285177e+02 -1.227236e+03  7.671281e+02
    endloop
  endfacet
  facet normal -6.213990e-03  0.000000e+00  9.999807e-01
    outer loop
      vertex   2.499924e+03 -1.236963e+03  7.800000e+02
      vertex   2.499924e+03 -1.227236e+03  7.800000e+02
      vertex   4.285177e+02 -1.227236e+03  7.671281e+02
    endloop
  endfacet
  facet normal -5.984575e-03 -2.692118e-01  9.630624e-01
    outer loop
      vertex   4.285177e+02 -1.227236e+03  7.671281e+02
      vertex   2.499924e+03 -1.227236e+03  7.800000e+02
      vertex   4.536505e+02 -1.218234e+03  7.698008e+02
    endloop
  endfacet
  facet normal -4.984227e-03  0.000000e+00  9.999876e-01
    outer loop
      vertex   2.499924e+03 -1.227236e+03  7.800000e+02
      vertex   2.499924e+03 -1.218234e+03  7.800000e+02
      vertex   4.536505e+02 -1.218234e+03  7.698008e+02
    endloop
  endfacet
  facet normal -4.791560e-03 -2.753473e-01  9.613329e-01
    outer loop
      vertex   4.536505e+02 -1.218234e+03  7.698008e+02
      vertex   2.499924e+03 -1.218234e+03  7.800000e+02
      vertex   4.729308e+02 -1.210863e+03  7.720081e+02
    endloop
  endfacet
  facet normal -3.942727e-03  0.000000e+00  9.999923e-01
    outer loop
      vertex   2.499924e+03 -1.218234e+03  7.800000e+02
      vertex   2.499924e+03 -1.210863e+03  7.800000e+02
      vertex   4.729308e+02 -1.210863e+03  7.720081e+02
    endloop
  endfacet
  facet normal -3.791729e-03 -2.740966e-01  9.616947e-01
    outer loop
      vertex   4.729308e+02 -1.210863e+03  7.720081e+02
      vertex   2.499924e+03 -1.210863e+03  7.800000e+02
      vertex   4.957518e+02 -1.201679e+03  7.747155e+02
    endloop
  endfacet
  facet normal -2.636763e-03  0.000000e+00  9.999965e-01
    outer loop
      vertex   2.499924e+03 -1.210863e+03  7.800000e+02
      vertex   2.499924e+03 -1.201679e+03  7.800000e+02
      vertex   4.957518e+02 -1.201679e+03  7.747155e+02
    endloop
  endfacet
  facet normal -2.577311e-03 -2.111543e-01  9.774494e-01
    outer loop
      vertex   4.957518e+02 -1.201679e+03  7.747155e+02
      vertex   2.499924e+03 -1.201679e+03  7.800000e+02
      vertex   5.184143e+02 -1.192095e+03  7.768457e+02
    endloop
  endfacet
  facet normal -1.591863e-03  0.000000e+00  9.999987e-01
    outer loop
      vertex   2.499924e+03 -1.201679e+03  7.800000e+02
      vertex   2.499924e+03 -1.192095e+03  7.800000e+02
      vertex   5.184143e+02 -1.192095e+03  7.768457e+02
    endloop
  endfacet
  facet normal -1.580794e-03 -1.177227e-01  9.930453e-01
    outer loop
      vertex   5.184143e+02 -1.192095e+03  7.768457e+02
      vertex   2.499924e+03 -1.192095e+03  7.800000e+02
      vertex   5.461912e+02 -1.179553e+03  7.783767e+02
    endloop
  endfacet
  facet normal -8.308660e-04  0.000000e+00  9.999996e-01
    outer loop
      vertex   2.499924e+03 -1.192095e+03  7.800000e+02
      vertex   2.499924e+03 -1.179553e+03  7.800000e+02
      vertex   5.461912e+02 -1.179553e+03  7.783767e+02
    endloop
  endfacet
  facet normal -8.274460e-04 -9.063928e-02  9.958835e-01
    outer loop
      vertex   5.461912e+02 -1.179553e+03  7.783767e+02
      vertex   2.499924e+03 -1.179553e+03  7.800000e+02
      vertex   5.679794e+02 -1.169213e+03  7.793359e+02
    endloop
  endfacet
  facet normal -3.437274e-04  0.000000e+00  9.999999e-01
    outer loop
      vertex   2.499924e+03 -1.179553e+03  7.800000e+02
      vertex   2.499924e+03 -1.169213e+03  7.800000e+02
      vertex   5.679794e+02 -1.169213e+03  7.793359e+02
    endloop
  endfacet
  facet normal -3.429477e-04 -6.731775e-02  9.977315e-01
    outer loop
      vertex   5.679794e+02 -1.169213e+03  7.793359e+02
      vertex   2.499924e+03 -1.169213e+03  7.800000e+02
      vertex   5.902537e+02 -1.158008e+03  7.800996e+02
    endloop
  endfacet
  facet normal  5.216050e-05 -0.000000e+00  1.000000e+00
    outer loop
      vertex   2.499924e+03 -1.169213e+03  7.800000e+02
      vertex   2.499924e+03 -1.158008e+03  7.800000e+02
      vertex   5.902537e+02 -1.158008e+03  7.800996e+02
    endloop
  endfacet
  facet normal  5.211508e-05 -4.172081e-02  9.991293e-01
    outer loop
      vertex   5.902537e+02 -1.158008e+03  7.800996e+02
      vertex   2.499924e+03 -1.158008e+03  7.800000e+02
      vertex   6.164078e+02 -1.144001e+03  7.806831e+02
    endloop
  endfacet
  facet normal  3.626755e-04 -0.000000e+00  9.999999e-01
    outer loop
      vertex   2.499924e+03 -1.158008e+03  7.800000e+02
      vertex   2.499924e+03 -1.144001e+03  7.800000e+02
      vertex   6.164078e+02 -1.144001e+03  7.806831e+02
    endloop
  endfacet
  facet normal  3.625617e-04  2.505883e-02  9.996859e-01
    outer loop
      vertex   6.164078e+02 -1.144001e+03  7.806831e+02
      vertex   2.499924e+03 -1.144001e+03  7.800000e+02
      vertex   6.328336e+02 -1.135220e+03  7.804570e+02
    endloop
  endfacet
  facet normal  2.447826e-04 -0.000000e+00  9.999999e-01
    outer loop
      vertex   2.499924e+03 -1.144001e+03  7.800000e+02
      vertex   2.499924e+03 -1.135220e+03  7.800000e+02
      vertex   6.328336e+02 -1.135220e+03  7.804570e+02
    endloop
  endfacet
  facet normal  2.403902e-04  1.885898e-01  9.820559e-01
    outer loop
      vertex   6.328336e+02 -1.135220e+03  7.804570e+02
      vertex   2.499924e+03 -1.135220e+03  7.800000e+02
      vertex   6.492202e+02 -1.126133e+03  7.787080e+02
    endloop
  endfacet
  facet normal -6.981083e-04  0.000000e+00  9.999998e-01
    outer loop
      vertex   2.499924e+03 -1.135220e+03  7.800000e+02
      vertex   2.499924e+03 -1.126133e+03  7.800000e+02
      vertex   6.492202e+02 -1.126133e+03  7.787080e+02
    endloop
  endfacet
  facet normal -5.796631e-04  5.572660e-01  8.303338e-01
    outer loop
      vertex   6.492202e+02 -1.126133e+03  7.787080e+02
      vertex   2.499924e+03 -1.126133e+03  7.800000e+02
      vertex   6.733383e+02 -1.111833e+03  7.691277e+02
    endloop
  endfacet
  facet normal -5.952121e-03  0.000000e+00  9.999823e-01
    outer loop
      vertex   2.499924e+03 -1.126133e+03  7.800000e+02
      vertex   2.499924e+03 -1.111833e+03  7.800000e+02
      vertex   6.733383e+02 -1.111833e+03  7.691277e+02
    endloop
  endfacet
  facet normal -5.407875e-03  4.177483e-01  9.085467e-01
    outer loop
      vertex   6.733383e+02 -1.111833e+03  7.691277e+02
      vertex   2.499924e+03 -1.111833e+03  7.800000e+02
      vertex   6.960219e+02 -1.097886e+03  7.628496e+02
    endloop
  endfacet
  facet normal -9.506953e-03  0.000000e+00  9.999548e-01
    outer loop
      vertex   2.499924e+03 -1.111833e+03  7.800000e+02
      vertex   2.499924e+03 -1.097886e+03  7.800000e+02
      vertex   6.960219e+02 -1.097886e+03  7.628496e+02
    endloop
  endfacet
  facet normal -9.341142e-03  1.859513e-01  9.825146e-01
    outer loop
      vertex   6.960219e+02 -1.097886e+03  7.628496e+02
      vertex   2.499924e+03 -1.097886e+03  7.800000e+02
      vertex   7.179177e+02 -1.083709e+03  7.603746e+02
    endloop
  endfacet
  facet normal -1.101240e-02  0.000000e+00  9.999394e-01
    outer loop
      vertex   2.499924e+03 -1.097886e+03  7.800000e+02
      vertex   2.499924e+03 -1.083709e+03  7.800000e+02
      vertex   7.179177e+02 -1.083709e+03  7.603746e+02
    endloop
  endfacet
  facet normal -1.047550e-02  3.084347e-01  9.511878e-01
    outer loop
      vertex   7.179177e+02 -1.083709e+03  7.603746e+02
      vertex   2.499924e+03 -1.083709e+03  7.800000e+02
      vertex   7.374438e+02 -1.070506e+03  7.563086e+02
    endloop
  endfacet
  facet normal -1.344087e-02  0.000000e+00  9.999096e-01
    outer loop
      vertex   2.499924e+03 -1.083709e+03  7.800000e+02
      vertex   2.499924e+03 -1.070506e+03  7.800000e+02
      vertex   7.374438e+02 -1.070506e+03  7.563086e+02
    endloop
  endfacet
  facet normal -1.342465e-02 -4.910140e-02  9.987036e-01
    outer loop
      vertex   7.374438e+02 -1.070506e+03  7.563086e+02
      vertex   2.499924e+03 -1.070506e+03  7.800000e+02
      vertex   7.614149e+02 -1.053526e+03  7.574656e+02
    endloop
  endfacet
  facet normal -1.296080e-02  0.000000e+00  9.999160e-01
    outer loop
      vertex   2.499924e+03 -1.070506e+03  7.800000e+02
      vertex   2.499924e+03 -1.053526e+03  7.800000e+02
      vertex   7.614149e+02 -1.053526e+03  7.574656e+02
    endloop
  endfacet
  facet normal -1.246714e-02 -2.733614e-01  9.618306e-01
    outer loop
      vertex   7.614149e+02 -1.053526e+03  7.574656e+02
      vertex   2.499924e+03 -1.053526e+03  7.800000e+02
      vertex   7.838792e+02 -1.036984e+03  7.624583e+02
    endloop
  endfacet
  facet normal -1.022163e-02  0.000000e+00  9.999478e-01
    outer loop
      vertex   2.499924e+03 -1.053526e+03  7.800000e+02
      vertex   2.499924e+03 -1.036984e+03  7.800000e+02
      vertex   7.838792e+02 -1.036984e+03  7.624583e+02
    endloop
  endfacet
  facet normal -9.305241e-03 -4.138426e-01  9.103009e-01
    outer loop
      vertex   7.838792e+02 -1.036984e+03  7.624583e+02
      vertex   2.499924e+03 -1.036984e+03  7.800000e+02
      vertex   8.046539e+02 -1.020914e+03  7.699766e+02
    endloop
  endfacet
  facet normal -5.912486e-03  0.000000e+00  9.999825e-01
    outer loop
      vertex   2.499924e+03 -1.036984e+03  7.800000e+02
      vertex   2.499924e+03 -1.020914e+03  7.800000e+02
      vertex   8.046539e+02 -1.020914e+03  7.699766e+02
    endloop
  endfacet
  facet normal -5.728445e-03 -2.475606e-01  9.688555e-01
    outer loop
      vertex   8.046539e+02 -1.020914e+03  7.699766e+02
      vertex   2.499924e+03 -1.020914e+03  7.800000e+02
      vertex   8.271098e+02 -1.002790e+03  7.747402e+02
    endloop
  endfacet
  facet normal -3.144282e-03  0.000000e+00  9.999951e-01
    outer loop
      vertex   2.499924e+03 -1.020914e+03  7.800000e+02
      vertex   2.499924e+03 -1.002790e+03  7.800000e+02
      vertex   8.271098e+02 -1.002790e+03  7.747402e+02
    endloop
  endfacet
  facet normal -3.137175e-03 -6.719842e-02  9.977347e-01
    outer loop
      vertex   8.271098e+02 -1.002790e+03  7.747402e+02
      vertex   2.499924e+03 -1.002790e+03  7.800000e+02
      vertex   8.389974e+02 -9.929917e+02  7.754375e+02
    endloop
  endfacet
  facet normal -2.746950e-03  0.000000e+00  9.999962e-01
    outer loop
      vertex   2.499924e+03 -1.002790e+03  7.800000e+02
      vertex   2.499924e+03 -9.929917e+02  7.800000e+02
      vertex   8.389974e+02 -9.929917e+02  7.754375e+02
    endloop
  endfacet
  facet normal -2.746771e-03 -1.139710e-02  9.999313e-01
    outer loop
      vertex   8.389974e+02 -9.929917e+02  7.754375e+02
      vertex   2.499924e+03 -9.929917e+02  7.800000e+02
      vertex   8.531744e+02 -9.808148e+02  7.756152e+02
    endloop
  endfacet
  facet normal -2.662669e-03  0.000000e+00  9.999965e-01
    outer loop
      vertex   2.499924e+03 -9.929917e+02  7.800000e+02
      vertex   2.499924e+03 -9.808148e+02  7.800000e+02
      vertex   8.531744e+02 -9.808148e+02  7.756152e+02
    endloop
  endfacet
  facet normal -2.538868e-03 -3.013770e-01  9.535017e-01
    outer loop
      vertex   8.531744e+02 -9.808148e+02  7.756152e+02
      vertex   2.499924e+03 -9.808148e+02  7.800000e+02
      vertex   8.714095e+02 -9.646071e+02  7.807866e+02
    endloop
  endfacet
  facet normal  4.830297e-04 -0.000000e+00  9.999999e-01
    outer loop
      vertex   2.499924e+03 -9.808148e+02  7.800000e+02
      vertex   2.499924e+03 -9.646071e+02  7.800000e+02
      vertex   8.714095e+02 -9.646071e+02  7.807866e+02
    endloop
  endfacet
  facet normal  4.514845e-04 -3.554558e-01  9.346930e-01
    outer loop
      vertex   8.714095e+02 -9.646071e+02  7.807866e+02
      vertex   2.499924e+03 -9.646071e+02  7.800000e+02
      vertex   8.886071e+02 -9.488138e+02  7.867844e+02
    endloop
  endfacet
  facet normal  4.210408e-03 -0.000000e+00  9.999911e-01
    outer loop
      vertex   2.499924e+03 -9.646071e+02  7.800000e+02
      vertex   2.499924e+03 -9.488138e+02  7.800000e+02
      vertex   8.886071e+02 -9.488138e+02  7.867844e+02
    endloop
  endfacet
  facet normal  4.096429e-03 -2.311033e-01  9.729206e-01
    outer loop
      vertex   8.886071e+02 -9.488138e+02  7.867844e+02
      vertex   2.499924e+03 -9.488138e+02  7.800000e+02
      vertex   9.030499e+02 -9.350861e+02  7.899844e+02
    endloop
  endfacet
  facet normal  6.252327e-03 -0.000000e+00  9.999804e-01
    outer loop
      vertex   2.499924e+03 -9.488138e+02  7.800000e+02
      vertex   2.499924e+03 -9.350861e+02  7.800000e+02
      vertex   9.030499e+02 -9.350861e+02  7.899844e+02
    endloop
  endfacet
  facet normal  6.240593e-03 -6.123469e-02  9.981039e-01
    outer loop
      vertex   9.030499e+02 -9.350861e+02  7.899844e+02
      vertex   2.499924e+03 -9.350861e+02  7.800000e+02
      vertex   9.172347e+02 -9.211601e+02  7.907501e+02
    endloop
  endfacet
  facet normal  6.792117e-03 -0.000000e+00  9.999769e-01
    outer loop
      vertex   2.499924e+03 -9.350861e+02  7.800000e+02
      vertex   2.499924e+03 -9.211601e+02  7.800000e+02
      vertex   9.172347e+02 -9.211601e+02  7.907501e+02
    endloop
  endfacet
  facet normal  6.780031e-03  5.963119e-02  9.981974e-01
    outer loop
      vertex   9.172347e+02 -9.211601e+02  7.907501e+02
      vertex   2.499924e+03 -9.211601e+02  7.800000e+02
      vertex   9.344443e+02 -9.036259e+02  7.895857e+02
    endloop
  endfacet
  facet normal  6.123051e-03 -0.000000e+00  9.999812e-01
    outer loop
      vertex   2.499924e+03 -9.211601e+02  7.800000e+02
      vertex   2.499924e+03 -9.036259e+02  7.800000e+02
      vertex   9.344443e+02 -9.036259e+02  7.895857e+02
    endloop
  endfacet
  facet normal  6.083532e-03  1.134300e-01  9.935274e-01
    outer loop
      vertex   9.344443e+02 -9.036259e+02  7.895857e+02
      vertex   2.499924e+03 -9.036259e+02  7.800000e+02
      vertex   9.534614e+02 -8.835717e+02  7.871797e+02
    endloop
  endfacet
  facet normal  4.642601e-03 -0.000000e+00  9.999892e-01
    outer loop
      vertex   2.499924e+03 -9.036259e+02  7.800000e+02
      vertex   2.499924e+03 -8.835717e+02  7.800000e+02
      vertex   9.534614e+02 -8.835717e+02  7.871797e+02
    endloop
  endfacet
  facet normal  4.611234e-03  1.160467e-01  9.932331e-01
    outer loop
      vertex   9.534614e+02 -8.835717e+02  7.871797e+02
      vertex   2.499924e+03 -8.835717e+02  7.800000e+02
      vertex   9.744833e+02 -8.603581e+02  7.843699e+02
    endloop
  endfacet
  facet normal  2.864650e-03 -0.000000e+00  9.999959e-01
    outer loop
      vertex   2.499924e+03 -8.835717e+02  7.800000e+02
      vertex   2.499924e+03 -8.603581e+02  7.800000e+02
      vertex   9.744833e+02 -8.603581e+02  7.843699e+02
    endloop
  endfacet
  facet normal  2.864503e-03  1.015833e-02  9.999443e-01
    outer loop
      vertex   9.744833e+02 -8.603581e+02  7.843699e+02
      vertex   2.499924e+03 -8.603581e+02  7.800000e+02
      vertex   9.921453e+02 -8.396962e+02  7.841094e+02
    endloop
  endfacet
  facet normal  2.725439e-03 -0.000000e+00  9.999963e-01
    outer loop
      vertex   2.499924e+03 -8.603581e+02  7.800000e+02
      vertex   2.499924e+03 -8.396962e+02  7.800000e+02
      vertex   9.921453e+02 -8.396962e+02  7.841094e+02
    endloop
  endfacet
  facet normal  2.718813e-03 -6.968852e-02  9.975651e-01
    outer loop
      vertex   9.921453e+02 -8.396962e+02  7.841094e+02
      vertex   2.499924e+03 -8.396962e+02  7.800000e+02
      vertex   1.007615e+03 -8.211993e+02  7.853594e+02
    endloop
  endfacet
  facet normal  3.591307e-03 -0.000000e+00  9.999936e-01
    outer loop
      vertex   2.499924e+03 -8.396962e+02  7.800000e+02
      vertex   2.499924e+03 -8.211993e+02  7.800000e+02
      vertex   1.007615e+03 -8.211993e+02  7.853594e+02
    endloop
  endfacet
  facet normal  3.526715e-03 -1.888067e-01  9.820079e-01
    outer loop
      vertex   1.007615e+03 -8.211993e+02  7.853594e+02
      vertex   2.499924e+03 -8.211993e+02  7.800000e+02
      vertex   1.024255e+03 -8.004399e+02  7.892910e+02
    endloop
  endfacet
  facet normal  6.295971e-03 -0.000000e+00  9.999802e-01
    outer loop
      vertex   2.499924e+03 -8.211993e+02  7.800000e+02
      vertex   2.499924e+03 -8.004399e+02  7.800000e+02
      vertex   1.024255e+03 -8.004399e+02  7.892910e+02
    endloop
  endfacet
  facet normal  6.205508e-03 -1.689086e-01  9.856122e-01
    outer loop
      vertex   1.024255e+03 -8.004399e+02  7.892910e+02
      vertex   2.499924e+03 -8.004399e+02  7.800000e+02
      vertex   1.041163e+03 -7.782531e+02  7.929868e+02
    endloop
  endfacet
  facet normal  8.902237e-03 -0.000000e+00  9.999604e-01
    outer loop
      vertex   2.499924e+03 -8.004399e+02  7.800000e+02
      vertex   2.499924e+03 -7.782531e+02  7.800000e+02
      vertex   1.041163e+03 -7.782531e+02  7.929868e+02
    endloop
  endfacet
  facet normal  8.876082e-03 -7.659914e-02  9.970224e-01
    outer loop
      vertex   1.041163e+03 -7.782531e+02  7.929868e+02
      vertex   2.499924e+03 -7.782531e+02  7.800000e+02
      vertex   1.059902e+03 -7.524836e+02  7.947997e+02
    endloop
  endfacet
  facet normal  1.027690e-02 -0.000000e+00  9.999472e-01
    outer loop
      vertex   2.499924e+03 -7.782531e+02  7.800000e+02
      vertex   2.499924e+03 -7.524836e+02  7.800000e+02
      vertex   1.059902e+03 -7.524836e+02  7.947997e+02
    endloop
  endfacet
  facet normal  1.027560e-02  1.589970e-02  9.998208e-01
    outer loop
      vertex   1.059902e+03 -7.524836e+02  7.947997e+02
      vertex   2.499924e+03 -7.524836e+02  7.800000e+02
      vertex   1.076876e+03 -7.280702e+02  7.942371e+02
    endloop
  endfacet
  facet normal  1.000412e-02 -0.000000e+00  9.999499e-01
    outer loop
      vertex   2.499924e+03 -7.524836e+02  7.800000e+02
      vertex   2.499924e+03 -7.280702e+02  7.800000e+02
      vertex   1.076876e+03 -7.280702e+02  7.942371e+02
    endloop
  endfacet
  facet normal  9.985215e-03  6.144709e-02  9.980604e-01
    outer loop
      vertex   1.076876e+03 -7.280702e+02  7.942371e+02
      vertex   2.499924e+03 -7.280702e+02  7.800000e+02
      vertex   1.091706e+03 -7.055818e+02  7.927042e+02
    endloop
  endfacet
  facet normal  9.021075e-03 -0.000000e+00  9.999593e-01
    outer loop
      vertex   2.499924e+03 -7.280702e+02  7.800000e+02
      vertex   2.499924e+03 -7.055818e+02  7.800000e+02
      vertex   1.091706e+03 -7.055818e+02  7.927042e+02
    endloop
  endfacet
  facet normal  8.970249e-03  1.060038e-01  9.943253e-01
    outer loop
      vertex   1.091706e+03 -7.055818e+02  7.927042e+02
      vertex   2.499924e+03 -7.055818e+02  7.800000e+02
      vertex   1.105637e+03 -6.837399e+02  7.902499e+02
    endloop
  endfacet
  facet normal  7.351182e-03 -0.000000e+00  9.999730e-01
    outer loop
      vertex   2.499924e+03 -7.055818e+02  7.800000e+02
      vertex   2.499924e+03 -6.837399e+02  7.800000e+02
      vertex   1.105637e+03 -6.837399e+02  7.902499e+02
    endloop
  endfacet
  facet normal  7.328495e-03  7.850394e-02  9.968868e-01
    outer loop
      vertex   1.105637e+03 -6.837399e+02  7.902499e+02
      vertex   2.499924e+03 -6.837399e+02  7.800000e+02
      vertex   1.114129e+03 -6.695530e+02  7.890703e+02
    endloop
  endfacet
  facet normal  6.545061e-03 -0.000000e+00  9.999786e-01
    outer loop
      vertex   2.499924e+03 -6.837399e+02  7.800000e+02
      vertex   2.499924e+03 -6.695530e+02  7.800000e+02
      vertex   1.114129e+03 -6.695530e+02  7.890703e+02
    endloop
  endfacet
  facet normal  6.541772e-03  3.170002e-02  9.994760e-01
    outer loop
      vertex   1.114129e+03 -6.695530e+02  7.890703e+02
      vertex   2.499924e+03 -6.695530e+02  7.800000e+02
      vertex   1.129400e+03 -6.436251e+02  7.881480e+02
    endloop
  endfacet
  facet normal  5.945073e-03 -0.000000e+00  9.999824e-01
    outer loop
      vertex   2.499924e+03 -6.695530e+02  7.800000e+02
      vertex   2.499924e+03 -6.436251e+02  7.800000e+02
      vertex   1.129400e+03 -6.436251e+02  7.881480e+02
    endloop
  endfacet
  facet normal  5.938723e-03 -4.620634e-02  9.989142e-01
    outer loop
      vertex   1.129400e+03 -6.436251e+02  7.881480e+02
      vertex   2.499924e+03 -6.436251e+02  7.800000e+02
      vertex   1.141620e+03 -6.216697e+02  7.890909e+02
    endloop
  endfacet
  facet normal  6.692713e-03 -0.000000e+00  9.999776e-01
    outer loop
      vertex   2.499924e+03 -6.436251e+02  7.800000e+02
      vertex   2.499924e+03 -6.216697e+02  7.800000e+02
      vertex   1.141620e+03 -6.216697e+02  7.890909e+02
    endloop
  endfacet
  facet normal  6.661864e-03  9.590274e-02  9.953684e-01
    outer loop
      vertex   1.141620e+03 -6.216697e+02  7.890909e+02
      vertex   2.499924e+03 -6.216697e+02  7.800000e+02
      vertex   1.155324e+03 -5.957500e+02  7.865019e+02
    endloop
  endfacet
  facet normal  4.835500e-03 -0.000000e+00  9.999883e-01
    outer loop
      vertex   2.499924e+03 -6.216697e+02  7.800000e+02
      vertex   2.499924e+03 -5.957500e+02  7.800000e+02
      vertex   1.155324e+03 -5.957500e+02  7.865019e+02
    endloop
  endfacet
  facet normal  4.716314e-03  2.206551e-01  9.753405e-01
    outer loop
      vertex   1.155324e+03 -5.957500e+02  7.865019e+02
      vertex   2.499924e+03 -5.957500e+02  7.800000e+02
      vertex   1.165158e+03 -5.763229e+02  7.820593e+02
    endloop
  endfacet
  facet normal  1.542788e-03 -0.000000e+00  9.999988e-01
    outer loop
      vertex   2.499924e+03 -5.957500e+02  7.800000e+02
      vertex   2.499924e+03 -5.763229e+02  7.800000e+02
      vertex   1.165158e+03 -5.763229e+02  7.820593e+02
    endloop
  endfacet
  facet normal  1.479505e-03  2.834709e-01  9.589797e-01
    outer loop
      vertex   1.165158e+03 -5.763229e+02  7.820593e+02
      vertex   2.499924e+03 -5.763229e+02  7.800000e+02
      vertex   1.173293e+03 -5.596666e+02  7.771232e+02
    endloop
  endfacet
  facet normal -2.168519e-03  0.000000e+00  9.999977e-01
    outer loop
      vertex   2.499924e+03 -5.763229e+02  7.800000e+02
      vertex   2.499924e+03 -5.596666e+02  7.800000e+02
      vertex   1.173293e+03 -5.596666e+02  7.771232e+02
    endloop
  endfacet
  facet normal -2.094190e-03  2.595728e-01  9.657213e-01
    outer loop
      vertex   1.173293e+03 -5.596666e+02  7.771232e+02
      vertex   2.499924e+03 -5.596666e+02  7.800000e+02
      vertex   1.185921e+03 -5.322803e+02  7.697895e+02
    endloop
  endfacet
  facet normal -7.770304e-03  0.000000e+00  9.999698e-01
    outer loop
      vertex   2.499924e+03 -5.596666e+02  7.800000e+02
      vertex   2.499924e+03 -5.322803e+02  7.800000e+02
      vertex   1.185921e+03 -5.322803e+02  7.697895e+02
    endloop
  endfacet
  facet normal -7.756883e-03  5.874891e-02  9.982427e-01
    outer loop
      vertex   1.185921e+03 -5.322803e+02  7.697895e+02
      vertex   2.499924e+03 -5.322803e+02  7.800000e+02
      vertex   1.198355e+03 -5.035550e+02  7.681956e+02
    endloop
  endfacet
  facet normal -9.069021e-03  0.000000e+00  9.999589e-01
    outer loop
      vertex   2.499924e+03 -5.322803e+02  7.800000e+02
      vertex   2.499924e+03 -5.035550e+02  7.800000e+02
      vertex   1.198355e+03 -5.035550e+02  7.681956e+02
    endloop
  endfacet
  facet normal -9.021526e-03 -1.022086e-01  9.947221e-01
    outer loop
      vertex   1.198355e+03 -5.035550e+02  7.681956e+02
      vertex   2.499924e+03 -5.035550e+02  7.800000e+02
      vertex   1.207462e+03 -4.815613e+02  7.705380e+02
    endloop
  endfacet
  facet normal -7.320694e-03  0.000000e+00  9.999732e-01
    outer loop
      vertex   2.499924e+03 -5.035550e+02  7.800000e+02
      vertex   2.499924e+03 -4.815613e+02  7.800000e+02
      vertex   1.207462e+03 -4.815613e+02  7.705380e+02
    endloop
  endfacet
  facet normal -7.188834e-03 -1.889428e-01  9.819618e-01
    outer loop
      vertex   1.207462e+03 -4.815613e+02  7.705380e+02
      vertex   2.499924e+03 -4.815613e+02  7.800000e+02
      vertex   1.215575e+03 -4.607918e+02  7.745938e+02
    endloop
  endfacet
  facet normal -4.209293e-03  0.000000e+00  9.999911e-01
    outer loop
      vertex   2.499924e+03 -4.815613e+02  7.800000e+02
      vertex   2.499924e+03 -4.607918e+02  7.800000e+02
      vertex   1.215575e+03 -4.607918e+02  7.745938e+02
    endloop
  endfacet
  facet normal -4.145270e-03 -1.737482e-01  9.847814e-01
    outer loop
      vertex   1.215575e+03 -4.607918e+02  7.745938e+02
      vertex   2.499924e+03 -4.607918e+02  7.800000e+02
      vertex   1.225943e+03 -4.319633e+02  7.797237e+02
    endloop
  endfacet
  facet normal -2.168839e-04  0.000000e+00  1.000000e+00
    outer loop
      vertex   2.499924e+03 -4.607918e+02  7.800000e+02
      vertex   2.499924e+03 -4.319633e+02  7.800000e+02
      vertex   1.225943e+03 -4.319633e+02  7.797237e+02
    endloop
  endfacet
  facet normal -2.162947e-04 -7.366549e-02  9.972830e-01
    outer loop
      vertex   1.225943e+03 -4.319633e+02  7.797237e+02
      vertex   2.499924e+03 -4.319633e+02  7.800000e+02
      vertex   1.233906e+03 -4.082572e+02  7.814765e+02
    endloop
  endfacet
  facet normal  1.166256e-03 -0.000000e+00  9.999993e-01
    outer loop
      vertex   2.499924e+03 -4.319633e+02  7.800000e+02
      vertex   2.499924e+03 -4.082572e+02  7.800000e+02
      vertex   1.233906e+03 -4.082572e+02  7.814765e+02
    endloop
  endfacet
  facet normal  1.159307e-03  1.089964e-01  9.940414e-01
    outer loop
      vertex   1.233906e+03 -4.082572e+02  7.814765e+02
      vertex   2.499924e+03 -4.082572e+02  7.800000e+02
      vertex   1.243009e+03 -3.804960e+02  7.784219e+02
    endloop
  endfacet
  facet normal -1.255553e-03  0.000000e+00  9.999992e-01
    outer loop
      vertex   2.499924e+03 -4.082572e+02  7.800000e+02
      vertex   2.499924e+03 -3.804960e+02  7.800000e+02
      vertex   1.243009e+03 -3.804960e+02  7.784219e+02
    endloop
  endfacet
  facet normal -1.240000e-03  1.569109e-01  9.876120e-01
    outer loop
      vertex   1.243009e+03 -3.804960e+02  7.784219e+02
      vertex   2.499924e+03 -3.804960e+02  7.800000e+02
      vertex   1.247330e+03 -3.660911e+02  7.761387e+02
    endloop
  endfacet
  facet normal -3.082650e-03  0.000000e+00  9.999952e-01
    outer loop
      vertex   2.499924e+03 -3.804960e+02  7.800000e+02
      vertex   2.499924e+03 -3.660911e+02  7.800000e+02
      vertex   1.247330e+03 -3.660911e+02  7.761387e+02
    endloop
  endfacet
  facet normal -3.080443e-03  3.784169e-02  9.992790e-01
    outer loop
      vertex   1.247330e+03 -3.660911e+02  7.761387e+02
      vertex   2.499924e+03 -3.660911e+02  7.800000e+02
      vertex   1.255615e+03 -3.363070e+02  7.750363e+02
    endloop
  endfacet
  facet normal -3.989075e-03  0.000000e+00  9.999921e-01
    outer loop
      vertex   2.499924e+03 -3.660911e+02  7.800000e+02
      vertex   2.499924e+03 -3.363070e+02  7.800000e+02
      vertex   1.255615e+03 -3.363070e+02  7.750363e+02
    endloop
  endfacet
  facet normal -3.967354e-03 -1.042151e-01  9.945469e-01
    outer loop
      vertex   1.255615e+03 -3.363070e+02  7.750363e+02
      vertex   2.499924e+03 -3.363070e+02  7.800000e+02
      vertex   1.261308e+03 -3.143910e+02  7.773555e+02
    endloop
  endfacet
  facet normal -2.135014e-03  0.000000e+00  9.999977e-01
    outer loop
      vertex   2.499924e+03 -3.363070e+02  7.800000e+02
      vertex   2.499924e+03 -3.143910e+02  7.800000e+02
      vertex   1.261308e+03 -3.143910e+02  7.773555e+02
    endloop
  endfacet
  facet normal -2.106709e-03 -1.622940e-01  9.867402e-01
    outer loop
      vertex   1.261308e+03 -3.143910e+02  7.773555e+02
      vertex   2.499924e+03 -3.143910e+02  7.800000e+02
      vertex   1.267517e+03 -2.884192e+02  7.816405e+02
    endloop
  endfacet
  facet normal  1.331136e-03 -0.000000e+00  9.999991e-01
    outer loop
      vertex   2.499924e+03 -3.143910e+02  7.800000e+02
      vertex   2.499924e+03 -2.884192e+02  7.800000e+02
      vertex   1.267517e+03 -2.884192e+02  7.816405e+02
    endloop
  endfacet
  facet normal  1.311414e-03 -1.715015e-01  9.851830e-01
    outer loop
      vertex   1.267517e+03 -2.884192e+02  7.816405e+02
      vertex   2.499924e+03 -2.884192e+02  7.800000e+02
      vertex   1.272484e+03 -2.655124e+02  7.856215e+02
    endloop
  endfacet
  facet normal  4.579827e-03 -0.000000e+00  9.999895e-01
    outer loop
      vertex   2.499924e+03 -2.884192e+02  7.800000e+02
      vertex   2.499924e+03 -2.655124e+02  7.800000e+02
      vertex   1.272484e+03 -2.655124e+02  7.856215e+02
    endloop
  endfacet
  facet normal  4.480295e-03 -2.073475e-01  9.782571e-01
    outer loop
      vertex   1.272484e+03 -2.655124e+02  7.856215e+02
      vertex   2.499924e+03 -2.655124e+02  7.800000e+02
      vertex   1.277263e+03 -2.417476e+02  7.906367e+02
    endloop
  endfacet
  facet normal  8.699316e-03 -0.000000e+00  9.999622e-01
    outer loop
      vertex   2.499924e+03 -2.655124e+02  7.800000e+02
      vertex   2.499924e+03 -2.417476e+02  7.800000e+02
      vertex   1.277263e+03 -2.417476e+02  7.906367e+02
    endloop
  endfacet
  facet normal  8.486048e-03 -2.200679e-01  9.754477e-01
    outer loop
      vertex   1.277263e+03 -2.417476e+02  7.906367e+02
      vertex   2.499924e+03 -2.417476e+02  7.800000e+02
      vertex   1.282604e+03 -2.110989e+02  7.975048e+02
    endloop
  endfacet
  facet normal  1.437832e-02 -0.000000e+00  9.998966e-01
    outer loop
      vertex   2.499924e+03 -2.417476e+02  7.800000e+02
      vertex   2.499924e+03 -2.110989e+02  7.800000e+02
      vertex   1.282604e+03 -2.110989e+02  7.975048e+02
    endloop
  endfacet
  facet normal  1.430802e-02 -9.876280e-02  9.950081e-01
    outer loop
      vertex   1.282604e+03 -2.110989e+02  7.975048e+02
      vertex   2.499924e+03 -2.110989e+02  7.800000e+02
      vertex   1.287516e+03 -1.789327e+02  8.006270e+02
    endloop
  endfacet
  facet normal  1.701075e-02 -0.000000e+00  9.998553e-01
    outer loop
      vertex   2.499924e+03 -2.110989e+02  7.800000e+02
      vertex   2.499924e+03 -1.789327e+02  7.800000e+02
      vertex   1.287516e+03 -1.789327e+02  8.006270e+02
    endloop
  endfacet
  facet normal  1.699809e-02  3.857290e-02  9.991112e-01
    outer loop
      vertex   1.287516e+03 -1.789327e+02  8.006270e+02
      vertex   2.499924e+03 -1.789327e+02  7.800000e+02
      vertex   1.291316e+03 -1.494945e+02  7.994258e+02
    endloop
  endfacet
  facet normal  1.607077e-02 -0.000000e+00  9.998708e-01
    outer loop
      vertex   2.499924e+03 -1.789327e+02  7.800000e+02
      vertex   2.499924e+03 -1.494945e+02  7.800000e+02
      vertex   1.291316e+03 -1.494945e+02  7.994258e+02
    endloop
  endfacet
  facet normal  1.585256e-02  1.642333e-01  9.862942e-01
    outer loop
      vertex   1.291316e+03 -1.494945e+02  7.994258e+02
      vertex   2.499924e+03 -1.494945e+02  7.800000e+02
      vertex   1.293663e+03 -1.278340e+02  7.957812e+02
    endloop
  endfacet
  facet normal  1.308165e-02 -0.000000e+00  9.999144e-01
    outer loop
      vertex   2.499924e+03 -1.494945e+02  7.800000e+02
      vertex   2.499924e+03 -1.278340e+02  7.800000e+02
      vertex   1.293663e+03 -1.278340e+02  7.957812e+02
    endloop
  endfacet
  facet normal  1.292886e-02  1.523940e-01  9.882352e-01
    outer loop
      vertex   1.293663e+03 -1.278340e+02  7.957812e+02
      vertex   2.499924e+03 -1.278340e+02  7.800000e+02
      vertex   1.295945e+03 -1.016695e+02  7.917166e+02
    endloop
  endfacet
  facet normal  9.731113e-03 -0.000000e+00  9.999527e-01
    outer loop
      vertex   2.499924e+03 -1.278340e+02  7.800000e+02
      vertex   2.499924e+03 -1.016695e+02  7.800000e+02
      vertex   1.295945e+03 -1.016695e+02  7.917166e+02
    endloop
  endfacet
  facet normal  9.598869e-03  1.643010e-01  9.863635e-01
    outer loop
      vertex   1.295945e+03 -1.016695e+02  7.917166e+02
      vertex   2.499924e+03 -1.016695e+02  7.800000e+02
      vertex   1.297069e+03 -8.594842e+01  7.890870e+02
    endloop
  endfacet
  facet normal  7.554289e-03 -0.000000e+00  9.999714e-01
    outer loop
      vertex   2.499924e+03 -1.016695e+02  7.800000e+02
      vertex   2.499924e+03 -8.594842e+01  7.800000e+02
      vertex   1.297069e+03 -8.594842e+01  7.890870e+02
    endloop
  endfacet
  facet normal  7.479169e-03  1.406744e-01  9.900277e-01
    outer loop
      vertex   1.297069e+03 -8.594842e+01  7.890870e+02
      vertex   2.499924e+03 -8.594842e+01  7.800000e+02
      vertex   1.298112e+03 -6.816341e+01  7.865520e+02
    endloop
  endfacet
  facet normal  5.451687e-03 -0.000000e+00  9.999852e-01
    outer loop
      vertex   2.499924e+03 -8.594842e+01  7.800000e+02
      vertex   2.499924e+03 -6.816341e+01  7.800000e+02
      vertex   1.298112e+03 -6.816341e+01  7.865520e+02
    endloop
  endfacet
  facet normal  5.429436e-03  9.025891e-02  9.959036e-01
    outer loop
      vertex   1.298112e+03 -6.816341e+01  7.865520e+02
      vertex   2.499924e+03 -6.816341e+01  7.800000e+02
      vertex   1.299329e+03 -3.786928e+01  7.837998e+02
    endloop
  endfacet
  facet normal  3.164918e-03 -0.000000e+00  9.999950e-01
    outer loop
      vertex   2.499924e+03 -6.816341e+01  7.800000e+02
      vertex   2.499924e+03 -3.786928e+01  7.800000e+02
      vertex   1.299329e+03 -3.786928e+01  7.837998e+02
    endloop
  endfacet
  facet normal  3.159591e-03  5.799572e-02  9.983118e-01
    outer loop
      vertex   1.299329e+03 -3.786928e+01  7.837998e+02
      vertex   2.499924e+03 -3.786928e+01  7.800000e+02
      vertex   1.299841e+03 -1.525397e+01  7.824844e+02
    endloop
  endfacet
  facet normal  2.070165e-03 -0.000000e+00  9.999979e-01
    outer loop
      vertex   2.499924e+03 -3.786928e+01  7.800000e+02
      vertex   2.499924e+03 -1.525397e+01  7.800000e+02
      vertex   1.299841e+03 -1.525397e+01  7.824844e+02
    endloop
  endfacet
  facet normal  2.064623e-03  7.311694e-02  9.973212e-01
    outer loop
      vertex   1.299841e+03 -1.525397e+01  7.824844e+02
      vertex   2.499924e+03 -1.525397e+01  7.800000e+02
      vertex   1.299924e+03  6.242797e+00  7.809082e+02
    endloop
  endfacet
  facet normal  7.568357e-04 -0.000000e+00  9.999997e-01
    outer loop
      vertex   2.499924e+03 -1.525397e+01  7.800000e+02
      vertex   2.499924e+03  6.242797e+00  7.800000e+02
      vertex   1.299924e+03  6.242797e+00  7.809082e+02
    endloop
  endfacet
  facet normal  7.566893e-04  1.966720e-02  9.998063e-01
    outer loop
      vertex   1.299924e+03  6.242797e+00  7.809082e+02
      vertex   2.499924e+03  6.242797e+00  7.800000e+02
      vertex   1.299686e+03  2.174114e+01  7.806035e+02
    endloop
  endfacet
  facet normal  5.028296e-04 -0.000000e+00  9.999999e-01
    outer loop
      vertex   2.499924e+03  6.242797e+00  7.800000e+02
      vertex   2.499924e+03  2.174114e+01  7.800000e+02
      vertex   1.299686e+03  2.174114e+01  7.806035e+02
    endloop
  endfacet
  facet normal  5.025297e-04 -3.453268e-02  9.994034e-01
    outer loop
      vertex   1.299686e+03  2.174114e+01  7.806035e+02
      vertex   2.499924e+03  2.174114e+01  7.800000e+02
      vertex   1.298986e+03  4.903254e+01  7.815469e+02
    endloop
  endfacet
  facet normal  1.288055e-03 -0.000000e+00  9.999992e-01
    outer loop
      vertex   2.499924e+03  2.174114e+01  7.800000e+02
      vertex   2.499924e+03  4.903254e+01  7.800000e+02
      vertex   1.298986e+03  4.903254e+01  7.815469e+02
    endloop
  endfacet
  facet normal  1.282890e-03 -8.945554e-02  9.959900e-01
    outer loop
      vertex   1.298986e+03  4.903254e+01  7.815469e+02
      vertex   2.499924e+03  4.903254e+01  7.800000e+02
      vertex   1.297343e+03  8.160950e+01  7.844749e+02
    endloop
  endfacet
  facet normal  3.721066e-03 -0.000000e+00  9.999931e-01
    outer loop
      vertex   2.499924e+03  4.903254e+01  7.800000e+02
      vertex   2.499924e+03  8.160950e+01  7.800000e+02
      vertex   1.297343e+03  8.160950e+01  7.844749e+02
    endloop
  endfacet
  facet normal  3.710177e-03 -7.644700e-02  9.970667e-01
    outer loop
      vertex   1.297343e+03  8.160950e+01  7.844749e+02
      vertex   2.499924e+03  8.160950e+01  7.800000e+02
      vertex   1.295496e+03  1.064898e+02  7.863894e+02
    endloop
  endfacet
  facet normal  5.304853e-03 -0.000000e+00  9.999859e-01
    outer loop
      vertex   2.499924e+03  8.160950e+01  7.800000e+02
      vertex   2.499924e+03  1.064898e+02  7.800000e+02
      vertex   1.295496e+03  1.064898e+02  7.863894e+02
    endloop
  endfacet
  facet normal  5.301448e-03 -3.582738e-02  9.993439e-01
    outer loop
      vertex   1.295496e+03  1.064898e+02  7.863894e+02
      vertex   2.499924e+03  1.064898e+02  7.800000e+02
      vertex   1.292605e+03  1.364834e+02  7.874800e+02
    endloop
  endfacet
  facet normal  6.195458e-03 -0.000000e+00  9.999808e-01
    outer loop
      vertex   2.499924e+03  1.064898e+02  7.800000e+02
      vertex   2.499924e+03  1.364834e+02  7.800000e+02
      vertex   1.292605e+03  1.364834e+02  7.874800e+02
    endloop
  endfacet
  facet normal  6.194112e-03 -2.084701e-02  9.997635e-01
    outer loop
      vertex   1.292605e+03  1.364834e+02  7.874800e+02
      vertex   2.499924e+03  1.364834e+02  7.800000e+02
      vertex   1.291135e+03  1.503074e+02  7.877774e+02
    endloop
  endfacet
  facet normal  6.433911e-03 -0.000000e+00  9.999793e-01
    outer loop
      vertex   2.499924e+03  1.364834e+02  7.800000e+02
      vertex   2.499924e+03  1.503074e+02  7.800000e+02
      vertex   1.291135e+03  1.503074e+02  7.877774e+02
    endloop
  endfacet
  facet normal  6.415597e-03 -7.539910e-02  9.971328e-01
    outer loop
      vertex   1.291135e+03  1.503074e+02  7.877774e+02
      vertex   2.499924e+03  1.503074e+02  7.800000e+02
      vertex   1.287967e+03  1.747607e+02  7.896469e+02
    endloop
  endfacet
  facet normal  7.959474e-03 -0.000000e+00  9.999683e-01
    outer loop
      vertex   2.499924e+03  1.503074e+02  7.800000e+02
      vertex   2.499924e+03  1.747607e+02  7.800000e+02
      vertex   1.287967e+03  1.747607e+02  7.896469e+02
    endloop
  endfacet
  facet normal  7.788311e-03 -2.062669e-01  9.784648e-01
    outer loop
      vertex   1.287967e+03  1.747607e+02  7.896469e+02
      vertex   2.499924e+03  1.747607e+02  7.800000e+02
      vertex   1.285483e+03  1.933110e+02  7.935771e+02
    endloop
  endfacet
  facet normal  1.117905e-02 -0.000000e+00  9.999375e-01
    outer loop
      vertex   2.499924e+03  1.747607e+02  7.800000e+02
      vertex   2.499924e+03  1.933110e+02  7.800000e+02
      vertex   1.285483e+03  1.933110e+02  7.935771e+02
    endloop
  endfacet
  facet normal  1.072485e-02 -2.821493e-01  9.593105e-01
    outer loop
      vertex   1.285483e+03  1.933110e+02  7.935771e+02
      vertex   2.499924e+03  1.933110e+02  7.800000e+02
      vertex   1.283035e+03  2.086786e+02  7.981244e+02
    endloop
  endfacet
  facet normal  1.489238e-02 -0.000000e+00  9.998891e-01
    outer loop
      vertex   2.499924e+03  1.933110e+02  7.800000e+02
      vertex   2.499924e+03  2.086786e+02  7.800000e+02
      vertex   1.283035e+03  2.086786e+02  7.981244e+02
    endloop
  endfacet
  facet normal  1.436496e-02 -2.637736e-01  9.644777e-01
    outer loop
      vertex   1.283035e+03  2.086786e+02  7.981244e+02
      vertex   2.499924e+03  2.086786e+02  7.800000e+02
      vertex   1.278809e+03  2.331389e+02  8.048770e+02
    endloop
  endfacet
  facet normal  2.036809e-02 -0.000000e+00  9.997926e-01
    outer loop
      vertex   2.499924e+03  2.086786e+02  7.800000e+02
      vertex   2.499924e+03  2.331389e+02  7.800000e+02
      vertex   1.278809e+03  2.331389e+02  8.048770e+02
    endloop
  endfacet
  facet normal  2.003084e-02 -1.812214e-01  9.832383e-01
    outer loop
      vertex   1.278809e+03  2.331389e+02  8.048770e+02
      vertex   2.499924e+03  2.331389e+02  7.800000e+02
      vertex   1.274937e+03  2.535683e+02  8.087212e+02
    endloop
  endfacet
  facet normal  2.343967e-02 -0.000000e+00  9.997253e-01
    outer loop
      vertex   2.499924e+03  2.331389e+02  7.800000e+02
      vertex   2.499924e+03  2.535683e+02  7.800000e+02
      vertex   1.274937e+03  2.535683e+02  8.087212e+02
    endloop
  endfacet
  facet normal  2.335990e-02 -8.243019e-02  9.963230e-01
    outer loop
      vertex   1.274937e+03  2.535683e+02  8.087212e+02
      vertex   2.499924e+03  2.535683e+02  7.800000e+02
      vertex   1.270306e+03  2.760226e+02  8.106875e+02
    endloop
  endfacet
  facet normal  2.494917e-02 -0.000000e+00  9.996887e-01
    outer loop
      vertex   2.499924e+03  2.535683e+02  7.800000e+02
      vertex   2.499924e+03  2.760226e+02  7.800000e+02
      vertex   1.270306e+03  2.760226e+02  8.106875e+02
    endloop
  endfacet
  facet normal  2.494874e-02  5.881151e-03  9.996715e-01
    outer loop
      vertex   1.270306e+03  2.760226e+02  8.106875e+02
      vertex   2.499924e+03  2.760226e+02  7.800000e+02
      vertex   1.266892e+03  2.910052e+02  8.106846e+02
    endloop
  endfacet
  facet normal  2.487775e-02 -0.000000e+00  9.996905e-01
    outer loop
      vertex   2.499924e+03  2.760226e+02  7.800000e+02
      vertex   2.499924e+03  2.910052e+02  7.800000e+02
      vertex   1.266892e+03  2.910052e+02  8.106846e+02
    endloop
  endfacet
  facet normal  2.484282e-02  5.297307e-02  9.982869e-01
    outer loop
      vertex   1.266892e+03  2.910052e+02  8.106846e+02
      vertex   2.499924e+03  2.910052e+02  7.800000e+02
      vertex   1.261341e+03  3.142607e+02  8.095887e+02
    endloop
  endfacet
  facet normal  2.388231e-02 -0.000000e+00  9.997148e-01
    outer loop
      vertex   2.499924e+03  2.910052e+02  7.800000e+02
      vertex   2.499924e+03  3.142607e+02  7.800000e+02
      vertex   1.261341e+03  3.142607e+02  8.095887e+02
    endloop
  endfacet
  facet normal  2.373615e-02  1.104658e-01  9.935964e-01
    outer loop
      vertex   1.261341e+03  3.142607e+02  8.095887e+02
      vertex   2.499924e+03  3.142607e+02  7.800000e+02
      vertex   1.254326e+03  3.413930e+02  8.067397e+02
    endloop
  endfacet
  facet normal  2.146245e-02 -0.000000e+00  9.997696e-01
    outer loop
      vertex   2.499924e+03  3.142607e+02  7.800000e+02
      vertex   2.499924e+03  3.413930e+02  7.800000e+02
      vertex   1.254326e+03  3.413930e+02  8.067397e+02
    endloop
  endfacet
  facet normal  2.117476e-02  1.631853e-01  9.863682e-01
    outer loop
      vertex   1.254326e+03  3.413930e+02  8.067397e+02
      vertex   2.499924e+03  3.413930e+02  7.800000e+02
      vertex   1.245269e+03  3.728563e+02  8.017289e+02
    endloop
  endfacet
  facet normal  1.731600e-02 -0.000000e+00  9.998501e-01
    outer loop
      vertex   2.499924e+03  3.413930e+02  7.800000e+02
      vertex   2.499924e+03  3.728563e+02  7.800000e+02
      vertex   1.245269e+03  3.728563e+02  8.017289e+02
    endloop
  endfacet
  facet normal  1.670119e-02  2.641030e-01  9.643499e-01
    outer loop
      vertex   1.245269e+03  3.728563e+02  8.017289e+02
      vertex   2.499924e+03  3.728563e+02  7.800000e+02
      vertex   1.237258e+03  3.988457e+02  7.947500e+02
    endloop
  endfacet
  facet normal  1.168083e-02 -0.000000e+00  9.999318e-01
    outer loop
      vertex   2.499924e+03  3.728563e+02  7.800000e+02
      vertex   2.499924e+03  3.988457e+02  7.800000e+02
      vertex   1.237258e+03  3.988457e+02  7.947500e+02
    endloop
  endfacet
  facet normal  1.125385e-02  2.679033e-01  9.633801e-01
    outer loop
      vertex   1.237258e+03  3.988457e+02  7.947500e+02
      vertex   2.499924e+03  3.988457e+02  7.800000e+02
      vertex   1.227227e+03  4.288037e+02  7.865363e+02
    endloop
  endfacet
  facet normal  5.135683e-03 -0.000000e+00  9.999868e-01
    outer loop
      vertex   2.499924e+03  3.988457e+02  7.800000e+02
      vertex   2.499924e+03  4.288037e+02  7.800000e+02
      vertex   1.227227e+03  4.288037e+02  7.865363e+02
    endloop
  endfacet
  facet normal  5.063928e-03  1.665783e-01  9.860152e-01
    outer loop
      vertex   1.227227e+03  4.288037e+02  7.865363e+02
      vertex   2.499924e+03  4.288037e+02  7.800000e+02
      vertex   1.221509e+03  4.445939e+02  7.838980e+02
    endloop
  endfacet
  facet normal  3.049080e-03 -0.000000e+00  9.999954e-01
    outer loop
      vertex   2.499924e+03  4.288037e+02  7.800000e+02
      vertex   2.499924e+03  4.445939e+02  7.800000e+02
      vertex   1.221509e+03  4.445939e+02  7.838980e+02
    endloop
  endfacet
  facet normal  3.021999e-03  1.329824e-01  9.911138e-01
    outer loop
      vertex   1.221509e+03  4.445939e+02  7.838980e+02
      vertex   2.499924e+03  4.445939e+02  7.800000e+02
      vertex   1.215635e+03  4.604371e+02  7.817902e+02
    endloop
  endfacet
  facet normal  1.393892e-03 -0.000000e+00  9.999990e-01
    outer loop
      vertex   2.499924e+03  4.445939e+02  7.800000e+02
      vertex   2.499924e+03  4.604371e+02  7.800000e+02
      vertex   1.215635e+03  4.604371e+02  7.817902e+02
    endloop
  endfacet
  facet normal  1.390454e-03  7.018357e-02  9.975331e-01
    outer loop
      vertex   1.215635e+03  4.604371e+02  7.817902e+02
      vertex   2.499924e+03  4.604371e+02  7.800000e+02
      vertex   1.205154e+03  4.870898e+02  7.799296e+02
    endloop
  endfacet
  facet normal -5.439927e-05  0.000000e+00  1.000000e+00
    outer loop
      vertex   2.499924e+03  4.604371e+02  7.800000e+02
      vertex   2.499924e+03  4.870898e+02  7.800000e+02
      vertex   1.205154e+03  4.870898e+02  7.799296e+02
    endloop
  endfacet
  facet normal -5.437168e-05  3.184515e-02  9.994928e-01
    outer loop
      vertex   1.205154e+03  4.870898e+02  7.799296e+02
      vertex   2.499924e+03  4.870898e+02  7.800000e+02
      vertex   1.194241e+03  5.129420e+02  7.791053e+02
    endloop
  endfacet
  facet normal -6.852459e-04  0.000000e+00  9.999998e-01
    outer loop
      vertex   2.499924e+03  4.870898e+02  7.800000e+02
      vertex   2.499924e+03  5.129420e+02  7.800000e+02
      vertex   1.194241e+03  5.129420e+02  7.791053e+02
    endloop
  endfacet
  facet normal -6.852321e-04 -6.345920e-03  9.999796e-01
    outer loop
      vertex   1.194241e+03  5.129420e+02  7.791053e+02
      vertex   2.499924e+03  5.129420e+02  7.800000e+02
      vertex   1.185479e+03  5.329891e+02  7.792265e+02
    endloop
  endfacet
  facet normal -5.884599e-04  0.000000e+00  9.999998e-01
    outer loop
      vertex   2.499924e+03  5.129420e+02  7.800000e+02
      vertex   2.499924e+03  5.329891e+02  7.800000e+02
      vertex   1.185479e+03  5.329891e+02  7.792265e+02
    endloop
  endfacet
  facet normal -5.866832e-04 -7.764815e-02  9.969807e-01
    outer loop
      vertex   1.185479e+03  5.329891e+02  7.792265e+02
      vertex   2.499924e+03  5.329891e+02  7.800000e+02
      vertex   1.176340e+03  5.531406e+02  7.807906e+02
    endloop
  endfacet
  facet normal  5.973087e-04 -0.000000e+00  9.999998e-01
    outer loop
      vertex   2.499924e+03  5.329891e+02  7.800000e+02
      vertex   2.499924e+03  5.531406e+02  7.800000e+02
      vertex   1.176340e+03  5.531406e+02  7.807906e+02
    endloop
  endfacet
  facet normal  5.877666e-04 -1.780321e-01  9.840245e-01
    outer loop
      vertex   1.176340e+03  5.531406e+02  7.807906e+02
      vertex   2.499924e+03  5.531406e+02  7.800000e+02
      vertex   1.165052e+03  5.765566e+02  7.850338e+02
    endloop
  endfacet
  facet normal  3.770981e-03 -0.000000e+00  9.999929e-01
    outer loop
      vertex   2.499924e+03  5.531406e+02  7.800000e+02
      vertex   2.499924e+03  5.765566e+02  7.800000e+02
      vertex   1.165052e+03  5.765566e+02  7.850338e+02
    endloop
  endfacet
  facet normal  3.683991e-03 -2.135517e-01  9.769248e-01
    outer loop
      vertex   1.165052e+03  5.765566e+02  7.850338e+02
      vertex   2.499924e+03  5.765566e+02  7.800000e+02
      vertex   1.157955e+03  5.906803e+02  7.881479e+02
    endloop
  endfacet
  facet normal  6.071526e-03 -0.000000e+00  9.999816e-01
    outer loop
      vertex   2.499924e+03  5.765566e+02  7.800000e+02
      vertex   2.499924e+03  5.906803e+02  7.800000e+02
      vertex   1.157955e+03  5.906803e+02  7.881479e+02
    endloop
  endfacet
  facet normal  5.839737e-03 -2.736698e-01  9.618059e-01
    outer loop
      vertex   1.157955e+03  5.906803e+02  7.881479e+02
      vertex   2.499924e+03  5.906803e+02  7.800000e+02
      vertex   1.148996e+03  6.079283e+02  7.931100e+02
    endloop
  endfacet
  facet normal  9.704014e-03 -0.000000e+00  9.999529e-01
    outer loop
      vertex   2.499924e+03  5.906803e+02  7.800000e+02
      vertex   2.499924e+03  6.079283e+02  7.800000e+02
      vertex   1.148996e+03  6.079283e+02  7.931100e+02
    endloop
  endfacet
  facet normal  9.066932e-03 -3.563603e-01  9.343047e-01
    outer loop
      vertex   1.148996e+03  6.079283e+02  7.931100e+02
      vertex   2.499924e+03  6.079283e+02  7.800000e+02
      vertex   1.134332e+03  6.348773e+02  8.035312e+02
    endloop
  endfacet
  facet normal  1.722893e-02 -0.000000e+00  9.998516e-01
    outer loop
      vertex   2.499924e+03  6.079283e+02  7.800000e+02
      vertex   2.499924e+03  6.348773e+02  7.800000e+02
      vertex   1.134332e+03  6.348773e+02  8.035312e+02
    endloop
  endfacet
  facet normal  1.584428e-02 -3.927813e-01  9.194954e-01
    outer loop
      vertex   1.134332e+03  6.348773e+02  8.035312e+02
      vertex   2.499924e+03  6.348773e+02  7.800000e+02
      vertex   1.127483e+03  6.471108e+02  8.088750e+02
    endloop
  endfacet
  facet normal  2.103450e-02 -0.000000e+00  9.997787e-01
    outer loop
      vertex   2.499924e+03  6.348773e+02  7.800000e+02
      vertex   2.499924e+03  6.471108e+02  7.800000e+02
      vertex   1.127483e+03  6.471108e+02  8.088750e+02
    endloop
  endfacet
  facet normal  2.002794e-02 -3.056399e-01  9.519365e-01
    outer loop
      vertex   1.127483e+03  6.471108e+02  8.088750e+02
      vertex   2.499924e+03  6.471108e+02  7.800000e+02
      vertex   1.122783e+03  6.551732e+02  8.115625e+02
    endloop
  endfacet
  facet normal  2.291283e-02 -0.000000e+00  9.997374e-01
    outer loop
      vertex   2.499924e+03  6.471108e+02  7.800000e+02
      vertex   2.499924e+03  6.551732e+02  7.800000e+02
      vertex   1.122783e+03  6.551732e+02  8.115625e+02
    endloop
  endfacet
  facet normal  2.184240e-02 -3.020799e-01  9.530323e-01
    outer loop
      vertex   1.122783e+03  6.551732e+02  8.115625e+02
      vertex   2.499924e+03  6.551732e+02  7.800000e+02
      vertex   1.107255e+03  6.808257e+02  8.200494e+02
    endloop
  endfacet
  facet normal  2.874538e-02 -0.000000e+00  9.995868e-01
    outer loop
      vertex   2.499924e+03  6.551732e+02  7.800000e+02
      vertex   2.499924e+03  6.808257e+02  7.800000e+02
      vertex   1.107255e+03  6.808257e+02  8.200494e+02
    endloop
  endfacet
  facet normal  2.865054e-02 -8.116773e-02  9.962886e-01
    outer loop
      vertex   1.107255e+03  6.808257e+02  8.200494e+02
      vertex   2.499924e+03  6.808257e+02  7.800000e+02
      vertex   1.091679e+03  7.055517e+02  8.225117e+02
    endloop
  endfacet
  facet normal  3.017398e-02 -0.000000e+00  9.995447e-01
    outer loop
      vertex   2.499924e+03  6.808257e+02  7.800000e+02
      vertex   2.499924e+03  7.055517e+02  7.800000e+02
      vertex   1.091679e+03  7.055517e+02  8.225117e+02
    endloop
  endfacet
  facet normal  3.016890e-02 -1.833866e-02  9.993766e-01
    outer loop
      vertex   1.091679e+03  7.055517e+02  8.225117e+02
      vertex   2.499924e+03  7.055517e+02  7.800000e+02
      vertex   1.076030e+03  7.293380e+02  8.234206e+02
    endloop
  endfacet
  facet normal  3.048009e-02 -0.000000e+00  9.995354e-01
    outer loop
      vertex   2.499924e+03  7.055517e+02  7.800000e+02
      vertex   2.499924e+03  7.293380e+02  7.800000e+02
      vertex   1.076030e+03  7.293380e+02  8.234206e+02
    endloop
  endfacet
  facet normal  3.040173e-02 -7.166345e-02  9.969655e-01
    outer loop
      vertex   1.076030e+03  7.293380e+02  8.234206e+02
      vertex   2.499924e+03  7.293380e+02  7.800000e+02
      vertex   1.061750e+03  7.499254e+02  8.253359e+02
    endloop
  endfacet
  facet normal  3.150760e-02 -0.000000e+00  9.995035e-01
    outer loop
      vertex   2.499924e+03  7.293380e+02  7.800000e+02
      vertex   2.499924e+03  7.499254e+02  7.800000e+02
      vertex   1.061750e+03  7.499254e+02  8.253359e+02
    endloop
  endfacet
  facet normal  3.141529e-02 -7.648657e-02  9.965756e-01
    outer loop
      vertex   1.061750e+03  7.499254e+02  8.253359e+02
      vertex   2.499924e+03  7.499254e+02  7.800000e+02
      vertex   1.051387e+03  7.645008e+02  8.267812e+02
    endloop
  endfacet
  facet normal  3.227868e-02 -0.000000e+00  9.994789e-01
    outer loop
      vertex   2.499924e+03  7.499254e+02  7.800000e+02
      vertex   2.499924e+03  7.645008e+02  7.800000e+02
      vertex   1.051387e+03  7.645008e+02  8.267812e+02
    endloop
  endfacet
  facet normal  3.226547e-02  2.861013e-02  9.990698e-01
    outer loop
      vertex   1.051387e+03  7.645008e+02  8.267812e+02
      vertex   2.499924e+03  7.645008e+02  7.800000e+02
      vertex   1.039793e+03  7.800317e+02  8.267109e+02
    endloop
  endfacet
  facet normal  3.197455e-02 -0.000000e+00  9.994887e-01
    outer loop
      vertex   2.499924e+03  7.645008e+02  7.800000e+02
      vertex   2.499924e+03  7.800317e+02  7.800000e+02
      vertex   1.039793e+03  7.800317e+02  8.267109e+02
    endloop
  endfacet
  facet normal  3.193994e-02  4.651826e-02  9.984066e-01
    outer loop
      vertex   1.039793e+03  7.800317e+02  8.267109e+02
      vertex   2.499924e+03  7.800317e+02  7.800000e+02
      vertex   1.023085e+03  8.017529e+02  8.262334e+02
    endloop
  endfacet
  facet normal  3.129030e-02 -0.000000e+00  9.995103e-01
    outer loop
      vertex   2.499924e+03  7.800317e+02  7.800000e+02
      vertex   2.499924e+03  8.017529e+02  7.800000e+02
      vertex   1.023085e+03  8.017529e+02  8.262334e+02
    endloop
  endfacet
  facet normal  3.128974e-02  5.978634e-03  9.994925e-01
    outer loop
      vertex   1.023085e+03  8.017529e+02  8.262334e+02
      vertex   2.499924e+03  8.017529e+02  7.800000e+02
      vertex   1.012621e+03  8.148861e+02  8.264824e+02
    endloop
  endfacet
  facet normal  3.123756e-02 -0.000000e+00  9.995120e-01
    outer loop
      vertex   2.499924e+03  8.017529e+02  7.800000e+02
      vertex   2.499924e+03  8.148861e+02  7.800000e+02
      vertex   1.012621e+03  8.148861e+02  8.264824e+02
    endloop
  endfacet
  facet normal  3.123752e-02 -1.639506e-03  9.995106e-01
    outer loop
      vertex   1.012621e+03  8.148861e+02  8.264824e+02
      vertex   2.499924e+03  8.148861e+02  7.800000e+02
      vertex   9.975113e+02  8.333173e+02  8.269849e+02
    endloop
  endfacet
  facet normal  3.125765e-02 -0.000000e+00  9.995114e-01
    outer loop
      vertex   2.499924e+03  8.148861e+02  7.800000e+02
      vertex   2.499924e+03  8.333173e+02  7.800000e+02
      vertex   9.975113e+02  8.333173e+02  8.269849e+02
    endloop
  endfacet
  facet normal  3.125663e-02 -8.079315e-03  9.994788e-01
    outer loop
      vertex   9.975113e+02  8.333173e+02  8.269849e+02
      vertex   2.499924e+03  8.333173e+02  7.800000e+02
      vertex   9.845223e+02  8.487263e+02  8.275156e+02
    endloop
  endfacet
  facet normal  3.133973e-02 -0.000000e+00  9.995088e-01
    outer loop
      vertex   2.499924e+03  8.333173e+02  7.800000e+02
      vertex   2.499924e+03  8.487263e+02  7.800000e+02
      vertex   9.845223e+02  8.487263e+02  8.275156e+02
    endloop
  endfacet
  facet normal  3.133829e-02 -9.569031e-03  9.994630e-01
    outer loop
      vertex   9.845223e+02  8.487263e+02  8.275156e+02
      vertex   2.499924e+03  8.487263e+02  7.800000e+02
      vertex   9.650058e+02  8.708533e+02  8.283394e+02
    endloop
  endfacet
  facet normal  3.147754e-02 -0.000000e+00  9.995044e-01
    outer loop
      vertex   2.499924e+03  8.487263e+02  7.800000e+02
      vertex   2.499924e+03  8.708533e+02  7.800000e+02
      vertex   9.650058e+02  8.708533e+02  8.283394e+02
    endloop
  endfacet
  facet normal  3.147211e-02 -1.856903e-02  9.993321e-01
    outer loop
      vertex   9.650058e+02  8.708533e+02  8.283394e+02
      vertex   2.499924e+03  8.708533e+02  7.800000e+02
      vertex   9.459226e+02  8.915616e+02  8.293252e+02
    endloop
  endfacet
  facet normal  3.172478e-02 -0.000000e+00  9.994966e-01
    outer loop
      vertex   2.499924e+03  8.708533e+02  7.800000e+02
      vertex   2.499924e+03  8.915616e+02  7.800000e+02
      vertex   9.459226e+02  8.915616e+02  8.293252e+02
    endloop
  endfacet
  facet normal  3.172449e-02 -4.257545e-03  9.994876e-01
    outer loop
      vertex   9.459226e+02  8.915616e+02  8.293252e+02
      vertex   2.499924e+03  8.915616e+02  7.800000e+02
      vertex   9.373154e+02  9.005587e+02  8.296367e+02
    endloop
  endfacet
  facet normal  3.174927e-02 -0.000000e+00  9.994959e-01
    outer loop
      vertex   2.499924e+03  8.915616e+02  7.800000e+02
      vertex   2.499924e+03  9.005587e+02  7.800000e+02
      vertex   9.373154e+02  9.005587e+02  8.296367e+02
    endloop
  endfacet
  facet normal  3.174420e-02  1.786360e-02  9.993364e-01
    outer loop
      vertex   9.373154e+02  9.005587e+02  8.296367e+02
      vertex   2.499924e+03  9.005587e+02  7.800000e+02
      vertex   9.144867e+02  9.237225e+02  8.299478e+02
    endloop
  endfacet
  facet normal  3.148850e-02 -0.000000e+00  9.995041e-01
    outer loop
      vertex   2.499924e+03  9.005587e+02  7.800000e+02
      vertex   2.499924e+03  9.237225e+02  7.800000e+02
      vertex   9.144867e+02  9.237225e+02  8.299478e+02
    endloop
  endfacet
  facet normal  3.142964e-02  6.111264e-02  9.976359e-01
    outer loop
      vertex   9.144867e+02  9.237225e+02  8.299478e+02
      vertex   2.499924e+03  9.237225e+02  7.800000e+02
      vertex   8.924431e+02  9.450091e+02  8.293383e+02
    endloop
  endfacet
  facet normal  3.067849e-02 -0.000000e+00  9.995293e-01
    outer loop
      vertex   2.499924e+03  9.237225e+02  7.800000e+02
      vertex   2.499924e+03  9.450091e+02  7.800000e+02
      vertex   8.924431e+02  9.450091e+02  8.293383e+02
    endloop
  endfacet
  facet normal  3.063201e-02  5.502310e-02  9.980151e-01
    outer loop
      vertex   8.924431e+02  9.450091e+02  8.293383e+02
      vertex   2.499924e+03  9.450091e+02  7.800000e+02
      vertex   8.808345e+02  9.557893e+02  8.291003e+02
    endloop
  endfacet
  facet normal  3.031192e-02 -0.000000e+00  9.995405e-01
    outer loop
      vertex   2.499924e+03  9.450091e+02  7.800000e+02
      vertex   2.499924e+03  9.557893e+02  7.800000e+02
      vertex   8.808345e+02  9.557893e+02  8.291003e+02
    endloop
  endfacet
  facet normal  3.029802e-02  3.028004e-02  9.990821e-01
    outer loop
      vertex   8.808345e+02  9.557893e+02  8.291003e+02
      vertex   2.499924e+03  9.557893e+02  7.800000e+02
      vertex   8.706988e+02  9.650046e+02  8.291284e+02
    endloop
  endfacet
  facet normal  3.014072e-02 -0.000000e+00  9.995457e-01
    outer loop
      vertex   2.499924e+03  9.557893e+02  7.800000e+02
      vertex   2.499924e+03  9.650046e+02  7.800000e+02
      vertex   8.706988e+02  9.650046e+02  8.291284e+02
    endloop
  endfacet
  facet normal  3.011336e-02 -4.259992e-02  9.986383e-01
    outer loop
      vertex   8.706988e+02  9.650046e+02  8.291284e+02
      vertex   2.499924e+03  9.650046e+02  7.800000e+02
      vertex   8.465740e+02  9.862923e+02  8.307639e+02
    endloop
  endfacet
  facet normal  3.068920e-02 -0.000000e+00  9.995290e-01
    outer loop
      vertex   2.499924e+03  9.650046e+02  7.800000e+02
      vertex   2.499924e+03  9.862923e+02  7.800000e+02
      vertex   8.465740e+02  9.862923e+02  8.307639e+02
    endloop
  endfacet
  facet normal  3.048523e-02 -1.151025e-01  9.928857e-01
    outer loop
      vertex   8.465740e+02  9.862923e+02  8.307639e+02
      vertex   2.499924e+03  9.862923e+02  7.800000e+02
      vertex   8.302864e+02  1.000202e+03  8.328765e+02
    endloop
  endfacet
  facet normal  3.165355e-02 -0.000000e+00  9.994989e-01
    outer loop
      vertex   2.499924e+03  9.862923e+02  7.800000e+02
      vertex   2.499924e+03  1.000202e+03  7.800000e+02
      vertex   8.302864e+02  1.000202e+03  8.328765e+02
    endloop
  endfacet
  facet normal  3.136455e-02 -1.348207e-01  9.903735e-01
    outer loop
      vertex   8.302864e+02  1.000202e+03  8.328765e+02
      vertex   2.499924e+03  1.000202e+03  7.800000e+02
      vertex   8.082351e+02  1.018162e+03  8.360198e+02
    endloop
  endfacet
  facet normal  3.309656e-02 -0.000000e+00  9.994522e-01
    outer loop
      vertex   2.499924e+03  1.000202e+03  7.800000e+02
      vertex   2.499924e+03  1.018162e+03  7.800000e+02
      vertex   8.082351e+02  1.018162e+03  8.360198e+02
    endloop
  endfacet
  facet normal  3.300711e-02 -7.346856e-02  9.967512e-01
    outer loop
      vertex   8.082351e+02  1.018162e+03  8.360198e+02
      vertex   2.499924e+03  1.018162e+03  7.800000e+02
      vertex   7.901031e+02  1.032248e+03  8.376584e+02
    endloop
  endfacet
  facet normal  3.370276e-02 -0.000000e+00  9.994319e-01
    outer loop
      vertex   2.499924e+03  1.018162e+03  7.800000e+02
      vertex   2.499924e+03  1.032248e+03  7.800000e+02
      vertex   7.901031e+02  1.032248e+03  8.376584e+02
    endloop
  endfacet
  facet normal  3.365282e-02 -5.441714e-02  9.979510e-01
    outer loop
      vertex   7.901031e+02  1.032248e+03  8.376584e+02
      vertex   2.499924e+03  1.032248e+03  7.800000e+02
      vertex   7.716642e+02  1.046036e+03  8.390321e+02
    endloop
  endfacet
  facet normal  3.413705e-02 -0.000000e+00  9.994172e-01
    outer loop
      vertex   2.499924e+03  1.032248e+03  7.800000e+02
      vertex   2.499924e+03  1.046036e+03  7.800000e+02
      vertex   7.716642e+02  1.046036e+03  8.390321e+02
    endloop
  endfacet
  facet normal  3.381202e-02 -1.376659e-01  9.899014e-01
    outer loop
      vertex   7.716642e+02  1.046036e+03  8.390321e+02
      vertex   2.499924e+03  1.046036e+03  7.800000e+02
      vertex   7.458817e+02  1.064648e+03  8.425012e+02
    endloop
  endfacet
  facet normal  3.561004e-02 -0.000000e+00  9.993657e-01
    outer loop
      vertex   2.499924e+03  1.046036e+03  7.800000e+02
      vertex   2.499924e+03  1.064648e+03  7.800000e+02
      vertex   7.458817e+02  1.064648e+03  8.425012e+02
    endloop
  endfacet
  facet normal  3.514368e-02 -1.613099e-01  9.862779e-01
    outer loop
      vertex   7.458817e+02  1.064648e+03  8.425012e+02
      vertex   2.499924e+03  1.064648e+03  7.800000e+02
      vertex   7.264120e+02  1.078019e+03  8.453818e+02
    endloop
  endfacet
  facet normal  3.684071e-02 -0.000000e+00  9.993212e-01
    outer loop
      vertex   2.499924e+03  1.064648e+03  7.800000e+02
      vertex   2.499924e+03  1.078019e+03  7.800000e+02
      vertex   7.264120e+02  1.078019e+03  8.453818e+02
    endloop
  endfacet
  facet normal  3.622979e-02 -1.813578e-01  9.827496e-01
    outer loop
      vertex   7.264120e+02  1.078019e+03  8.453818e+02
      vertex   2.499924e+03  1.078019e+03  7.800000e+02
      vertex   7.019972e+02  1.093923e+03  8.492169e+02
    endloop
  endfacet
  facet normal  3.846965e-02 -0.000000e+00  9.992598e-01
    outer loop
      vertex   2.499924e+03  1.078019e+03  7.800000e+02
      vertex   2.499924e+03  1.093923e+03  7.800000e+02
      vertex   7.019972e+02  1.093923e+03  8.492169e+02
    endloop
  endfacet
  facet normal  3.833391e-02  8.392993e-02  9.957340e-01
    outer loop
      vertex   7.019972e+02  1.093923e+03  8.492169e+02
      vertex   2.499924e+03  1.093923e+03  7.800000e+02
      vertex   6.758271e+02  1.110393e+03  8.488361e+02
    endloop
  endfacet
  facet normal  3.771025e-02 -0.000000e+00  9.992887e-01
    outer loop
      vertex   2.499924e+03  1.093923e+03  7.800000e+02
      vertex   2.499924e+03  1.110393e+03  7.800000e+02
      vertex   6.758271e+02  1.110393e+03  8.488361e+02
    endloop
  endfacet
  facet normal  3.594935e-02  3.020106e-01  9.526265e-01
    outer loop
      vertex   6.758271e+02  1.110393e+03  8.488361e+02
      vertex   2.499924e+03  1.110393e+03  7.800000e+02
      vertex   6.626973e+02  1.118251e+03  8.468405e+02
    endloop
  endfacet
  facet normal  3.635711e-02 -0.000000e+00  9.993389e-01
    outer loop
      vertex   2.499924e+03  1.110393e+03  7.800000e+02
      vertex   2.499924e+03  1.118251e+03  7.800000e+02
      vertex   6.626973e+02  1.118251e+03  8.468405e+02
    endloop
  endfacet
  facet normal  3.408035e-02  3.483137e-01  9.367583e-01
    outer loop
      vertex   6.626973e+02  1.118251e+03  8.468405e+02
      vertex   2.499924e+03  1.118251e+03  7.800000e+02
      vertex   6.368916e+02  1.133135e+03  8.422451e+02
    endloop
  endfacet
  facet normal  3.339201e-02 -0.000000e+00  9.994423e-01
    outer loop
      vertex   2.499924e+03  1.118251e+03  7.800000e+02
      vertex   2.499924e+03  1.133135e+03  7.800000e+02
      vertex   6.368916e+02  1.133135e+03  8.422451e+02
    endloop
  endfacet
  facet normal  3.239833e-02  2.421373e-01  9.697009e-01
    outer loop
      vertex   6.368916e+02  1.133135e+03  8.422451e+02
      vertex   2.499924e+03  1.133135e+03  7.800000e+02
      vertex   6.118848e+02  1.146754e+03  8.396798e+02
    endloop
  endfacet
  facet normal  3.159363e-02 -0.000000e+00  9.995008e-01
    outer loop
      vertex   2.499924e+03  1.133135e+03  7.800000e+02
      vertex   2.499924e+03  1.146754e+03  7.800000e+02
      vertex   6.118848e+02  1.146754e+03  8.396798e+02
    endloop
  endfacet
  facet normal  3.138031e-02  1.160086e-01  9.927524e-01
    outer loop
      vertex   6.118848e+02  1.146754e+03  8.396798e+02
      vertex   2.499924e+03  1.146754e+03  7.800000e+02
      vertex   5.891774e+02  1.158659e+03  8.390064e+02
    endloop
  endfacet
  facet normal  3.086662e-02 -0.000000e+00  9.995235e-01
    outer loop
      vertex   2.499924e+03  1.146754e+03  7.800000e+02
      vertex   2.499924e+03  1.158659e+03  7.800000e+02
      vertex   5.891774e+02  1.158659e+03  8.390064e+02
    endloop
  endfacet
  facet normal  3.014881e-02  2.144052e-01  9.762794e-01
    outer loop
      vertex   5.891774e+02  1.158659e+03  8.390064e+02
      vertex   2.499924e+03  1.158659e+03  7.800000e+02
      vertex   5.687394e+02  1.168908e+03  8.373868e+02
    endloop
  endfacet
  facet normal  2.970273e-02 -0.000000e+00  9.995588e-01
    outer loop
      vertex   2.499924e+03  1.158659e+03  7.800000e+02
      vertex   2.499924e+03  1.168908e+03  7.800000e+02
      vertex   5.687394e+02  1.168908e+03  8.373868e+02
    endloop
  endfacet
  facet normal  2.861393e-02  2.682710e-01  9.629185e-01
    outer loop
      vertex   5.687394e+02  1.168908e+03  8.373868e+02
      vertex   2.499924e+03  1.168908e+03  7.800000e+02
      vertex   5.432722e+02  1.180941e+03  8.347910e+02
    endloop
  endfacet
  facet normal  2.799146e-02 -0.000000e+00  9.996082e-01
    outer loop
      vertex   2.499924e+03  1.168908e+03  7.800000e+02
      vertex   2.499924e+03  1.180941e+03  7.800000e+02
      vertex   5.432722e+02  1.180941e+03  8.347910e+02
    endloop
  endfacet
  facet normal  2.738748e-02  2.066132e-01  9.780393e-01
    outer loop
      vertex   5.432722e+02  1.180941e+03  8.347910e+02
      vertex   2.499924e+03  1.180941e+03  7.800000e+02
      vertex   5.181241e+02  1.192145e+03  8.331284e+02
    endloop
  endfacet
  facet normal  2.679850e-02 -0.000000e+00  9.996409e-01
    outer loop
      vertex   2.499924e+03  1.180941e+03  7.800000e+02
      vertex   2.499924e+03  1.192145e+03  7.800000e+02
      vertex   5.181241e+02  1.192145e+03  8.331284e+02
    endloop
  endfacet
  facet normal  2.639766e-02  1.723111e-01  9.846888e-01
    outer loop
      vertex   5.181241e+02  1.192145e+03  8.331284e+02
      vertex   2.499924e+03  1.192145e+03  7.800000e+02
      vertex   5.009465e+02  1.199489e+03  8.323038e+02
    endloop
  endfacet
  facet normal  2.615634e-02 -0.000000e+00  9.996579e-01
    outer loop
      vertex   2.499924e+03  1.192145e+03  7.800000e+02
      vertex   2.499924e+03  1.199489e+03  7.800000e+02
      vertex   5.009465e+02  1.199489e+03  8.323038e+02
    endloop
  endfacet
  facet normal  2.543552e-02  2.331450e-01  9.721093e-01
    outer loop
      vertex   5.009465e+02  1.199489e+03  8.323038e+02
      vertex   2.499924e+03  1.199489e+03  7.800000e+02
      vertex   4.781588e+02  1.208783e+03  8.306709e+02
    endloop
  endfacet
  facet normal  2.505483e-02 -0.000000e+00  9.996861e-01
    outer loop
      vertex   2.499924e+03  1.199489e+03  7.800000e+02
      vertex   2.499924e+03  1.208783e+03  7.800000e+02
      vertex   4.781588e+02  1.208783e+03  8.306709e+02
    endloop
  endfacet
  facet normal  2.394624e-02  2.941695e-01  9.554532e-01
    outer loop
      vertex   4.781588e+02  1.208783e+03  8.306709e+02
      vertex   2.499924e+03  1.208783e+03  7.800000e+02
      vertex   4.550183e+02  1.217659e+03  8.285183e+02
    endloop
  endfacet
  facet normal  2.371975e-02 -0.000000e+00  9.997187e-01
    outer loop
      vertex   2.499924e+03  1.208783e+03  7.800000e+02
      vertex   2.499924e+03  1.217659e+03  7.800000e+02
      vertex   4.550183e+02  1.217659e+03  8.285183e+02
    endloop
  endfacet
  facet normal  2.299192e-02  2.458200e-01  9.690428e-01
    outer loop
      vertex   4.550183e+02  1.217659e+03  8.285183e+02
      vertex   2.499924e+03  1.217659e+03  7.800000e+02
      vertex   4.342128e+02  1.225233e+03  8.270906e+02
    endloop
  endfacet
  facet normal  2.279041e-02 -0.000000e+00  9.997402e-01
    outer loop
      vertex   2.499924e+03  1.217659e+03  7.800000e+02
      vertex   2.499924e+03  1.225233e+03  7.800000e+02
      vertex   4.342128e+02  1.225233e+03  8.270906e+02
    endloop
  endfacet
  facet normal  2.019508e-02  4.634519e-01  8.858919e-01
    outer loop
      vertex   4.342128e+02  1.225233e+03  8.270906e+02
      vertex   2.499924e+03  1.225233e+03  7.800000e+02
      vertex   4.033473e+02  1.235793e+03  8.222694e+02
    endloop
  endfacet
  facet normal  2.015706e-02 -0.000000e+00  9.997968e-01
    outer loop
      vertex   2.499924e+03  1.225233e+03  7.800000e+02
      vertex   2.499924e+03  1.235793e+03  7.800000e+02
      vertex   4.033473e+02  1.235793e+03  8.222694e+02
    endloop
  endfacet
  facet normal  1.201014e-02  8.031122e-01  5.957068e-01
    outer loop
      vertex   4.033473e+02  1.235793e+03  8.222694e+02
      vertex   2.499924e+03  1.235793e+03  7.800000e+02
      vertex   3.829516e+02  1.242279e+03  8.139374e+02
    endloop
  endfacet
  facet normal  1.602906e-02 -0.000000e+00  9.998716e-01
    outer loop
      vertex   2.499924e+03  1.235793e+03  7.800000e+02
      vertex   2.499924e+03  1.242279e+03  7.800000e+02
      vertex   3.829516e+02  1.242279e+03  8.139374e+02
    endloop
  endfacet
  facet normal  7.943008e-03  8.685862e-01  4.954744e-01
    outer loop
      vertex   3.829516e+02  1.242279e+03  8.139374e+02
      vertex   2.499924e+03  1.242279e+03  7.800000e+02
      vertex   3.585815e+02  1.249525e+03  8.016254e+02
    endloop
  endfacet
  facet normal  1.009849e-02 -0.000000e+00  9.999490e-01
    outer loop
      vertex   2.499924e+03  1.242279e+03  7.800000e+02
      vertex   2.499924e+03  1.249525e+03  7.800000e+02
      vertex   3.585815e+02  1.249525e+03  8.016254e+02
    endloop
  endfacet
  facet normal  7.949044e-03  6.167592e-01  7.871118e-01
    outer loop
      vertex   3.585815e+02  1.249525e+03  8.016254e+02
      vertex   2.499924e+03  1.249525e+03  7.800000e+02
      vertex   3.350850e+02  1.255967e+03  7.968145e+02
    endloop
  endfacet
  facet normal  7.766833e-03 -0.000000e+00  9.999698e-01
    outer loop
      vertex   2.499924e+03  1.249525e+03  7.800000e+02
      vertex   2.499924e+03  1.255967e+03  7.800000e+02
      vertex   3.350850e+02  1.255967e+03  7.968145e+02
    endloop
  endfacet
  facet normal  7.505398e-03  2.572700e-01  9.663104e-01
    outer loop
      vertex   3.350850e+02  1.255967e+03  7.968145e+02
      vertex   2.499924e+03  1.255967e+03  7.800000e+02
      vertex   3.051762e+02  1.263475e+03  7.950479e+02
    endloop
  endfacet
  facet normal  6.856167e-03 -0.000000e+00  9.999765e-01
    outer loop
      vertex   2.499924e+03  1.255967e+03  7.800000e+02
      vertex   2.499924e+03  1.263475e+03  7.800000e+02
      vertex   3.051762e+02  1.263475e+03  7.950479e+02
    endloop
  endfacet
  facet normal  6.855579e-03 -1.309974e-02  9.998907e-01
    outer loop
      vertex   3.051762e+02  1.263475e+03  7.950479e+02
      vertex   2.499924e+03  1.263475e+03  7.800000e+02
      vertex   2.755782e+02  1.270273e+03  7.953399e+02
    endloop
  endfacet
  facet normal  6.896202e-03 -0.000000e+00  9.999762e-01
    outer loop
      vertex   2.499924e+03  1.263475e+03  7.800000e+02
      vertex   2.499924e+03  1.270273e+03  7.800000e+02
      vertex   2.755782e+02  1.270273e+03  7.953399e+02
    endloop
  endfacet
  facet normal  6.825451e-03 -1.428761e-01  9.897171e-01
    outer loop
      vertex   2.755782e+02  1.270273e+03  7.953399e+02
      vertex   2.499924e+03  1.270273e+03  7.800000e+02
      vertex   2.437132e+02  1.276699e+03  7.964873e+02
    endloop
  endfacet
  facet normal  7.307323e-03 -0.000000e+00  9.999733e-01
    outer loop
      vertex   2.499924e+03  1.270273e+03  7.800000e+02
      vertex   2.499924e+03  1.276699e+03  7.800000e+02
      vertex   2.437132e+02  1.276699e+03  7.964873e+02
    endloop
  endfacet
  facet normal  7.307323e-03  0.000000e+00  9.999733e-01
    outer loop
      vertex   2.437132e+02  1.276699e+03  7.964873e+02
      vertex   2.499924e+03  1.276699e+03  7.800000e+02
      vertex   2.499924e+03  1.279950e+03  7.800000e+02
    endloop
  endfacet
  facet normal  7.307323e-03  0.000000e+00  9.999733e-01
    outer loop
      vertex   2.437132e+02  1.276699e+03  7.964873e+02
      vertex   2.499924e+03  1.279950e+03  7.800000e+02
      vertex   2.499924e+03  1.283722e+03  7.800000e+02
    endloop
  endfacet
  facet normal  7.307323e-03  0.000000e+00  9.999733e-01
    outer loop
      vertex   2.499924e+03  1.287427e+03  7.800000e+02
      vertex   2.437132e+02  1.276699e+03  7.964873e+02
      vertex   2.499924e+03  1.283722e+03  7.800000e+02
    endloop
  endfacet
  facet normal  7.307323e-03  0.000000e+00  9.999733e-01
    outer loop
      vertex   2.499924e+03  1.290304e+03  7.800000e+02
      vertex   2.437132e+02  1.276699e+03  7.964873e+02
      vertex   2.499924e+03  1.287427e+03  7.800000e+02
    endloop
  endfacet
  facet normal  7.935301e-03 -1.117382e-01  9.937060e-01
    outer loop
      vertex   2.499924e+03  1.290304e+03  7.800000e+02
      vertex   2.252931e+02  1.279950e+03  7.970000e+02
      vertex   2.437132e+02  1.276699e+03  7.964873e+02
    endloop
  endfacet
  facet normal  7.265554e-03  4.409684e-02  9.990008e-01
    outer loop
      vertex   2.023976e+02  1.283722e+03  7.970000e+02
      vertex   2.252931e+02  1.279950e+03  7.970000e+02
      vertex   2.499924e+03  1.290304e+03  7.800000e+02
    endloop
  endfacet
  facet normal  7.259740e-03  4.591530e-02  9.989190e-01
    outer loop
      vertex   1.789666e+02  1.287427e+03  7.970000e+02
      vertex   2.023976e+02  1.283722e+03  7.970000e+02
      vertex   2.499924e+03  1.290304e+03  7.800000e+02
    endloop
  endfacet
  facet normal  7.316380e-03  6.326107e-03  9.999532e-01
    outer loop
      vertex   1.789666e+02  1.287427e+03  7.970000e+02
      vertex   2.499924e+03  1.290304e+03  7.800000e+02
      vertex   1.577937e+02  1.290304e+03  7.971367e+02
    endloop
  endfacet
  facet normal  6.839577e-03 -3.551427e-01  9.347871e-01
    outer loop
      vertex   1.577937e+02  1.290304e+03  7.971367e+02
      vertex   2.499924e+03  1.290304e+03  7.800000e+02
      vertex   1.318687e+02  1.293182e+03  7.984199e+02
    endloop
  endfacet
  facet normal  7.778265e-03 -0.000000e+00  9.999697e-01
    outer loop
      vertex   2.499924e+03  1.290304e+03  7.800000e+02
      vertex   2.499924e+03  1.293182e+03  7.800000e+02
      vertex   1.318687e+02  1.293182e+03  7.984199e+02
    endloop
  endfacet
  facet normal  5.463107e-03 -7.118264e-01  7.023342e-01
    outer loop
      vertex   1.318687e+02  1.293182e+03  7.984199e+02
      vertex   2.499924e+03  1.293182e+03  7.800000e+02
      vertex   1.006984e+02  1.296007e+03  8.015256e+02
    endloop
  endfacet
  facet normal  8.971547e-03 -0.000000e+00  9.999598e-01
    outer loop
      vertex   2.499924e+03  1.293182e+03  7.800000e+02
      vertex   2.499924e+03  1.296007e+03  7.800000e+02
      vertex   1.006984e+02  1.296007e+03  8.015256e+02
    endloop
  endfacet
  facet normal  4.629664e-03 -8.565654e-01  5.160177e-01
    outer loop
      vertex   1.006984e+02  1.296007e+03  8.015256e+02
      vertex   2.499924e+03  1.296007e+03  7.800000e+02
      vertex   6.989284e+01  1.298101e+03  8.052773e+02
    endloop
  endfacet
  facet normal  1.040150e-02 -0.000000e+00  9.999459e-01
    outer loop
      vertex   2.499924e+03  1.296007e+03  7.800000e+02
      vertex   2.499924e+03  1.298101e+03  7.800000e+02
      vertex   6.989284e+01  1.298101e+03  8.052773e+02
    endloop
  endfacet
  facet normal  6.180020e-03 -8.043565e-01  5.941148e-01
    outer loop
      vertex   6.989284e+01  1.298101e+03  8.052773e+02
      vertex   2.499924e+03  1.298101e+03  7.800000e+02
      vertex   4.408329e+01  1.299332e+03  8.072127e+02
    endloop
  endfacet
  facet normal  1.108013e-02 -0.000000e+00  9.999386e-01
    outer loop
      vertex   2.499924e+03  1.298101e+03  7.800000e+02
      vertex   2.499924e+03  1.299332e+03  7.800000e+02
      vertex   4.408329e+01  1.299332e+03  8.072127e+02
    endloop
  endfacet
  facet normal  9.337394e-03 -5.383596e-01  8.426635e-01
    outer loop
      vertex   4.408329e+01  1.299332e+03  8.072127e+02
      vertex   2.499924e+03  1.299332e+03  7.800000e+02
      vertex   1.121472e+01  1.299995e+03  8.080005e+02
    endloop
  endfacet
  facet normal  1.125032e-02 -0.000000e+00  9.999367e-01
    outer loop
      vertex   2.499924e+03  1.299332e+03  7.800000e+02
      vertex   2.499924e+03  1.299995e+03  7.800000e+02
      vertex   1.121472e+01  1.299995e+03  8.080005e+02
    endloop
  endfacet
endsolid vcg
